<?xml version="1.0" encoding="UTF-8" standalone="no"?>
<!DOCTYPE svg PUBLIC "-//W3C//DTD SVG 1.1//EN" "http://www.w3.org/Graphics/SVG/1.1/DTD/svg11.dtd">
<!-- 由 Microsoft Visio, SVG Export 生成 C3D8.svg 页-1 -->
<svg xmlns="http://www.w3.org/2000/svg" xmlns:xlink="http://www.w3.org/1999/xlink" xmlns:ev="http://www.w3.org/2001/xml-events"
		xmlns:v="http://schemas.microsoft.com/visio/2003/SVGExtensions/" width="4.45784in" height="3.5169in"
		viewBox="0 0 320.965 253.217" xml:space="preserve" color-interpolation-filters="sRGB" class="st18">
	<v:documentProperties v:langID="2052" v:metric="true" v:viewMarkup="false"/>

	<style type="text/css">
	<![CDATA[
		.st1 {fill:url(#grad0-5);stroke:#3c63ac;stroke-width:0.75}
		.st2 {marker-end:url(#mrkr4-12);stroke:#000000;stroke-linecap:round;stroke-linejoin:round;stroke-width:1}
		.st3 {fill:#000000;fill-opacity:1;stroke:#000000;stroke-opacity:1;stroke-width:0.28409090909091}
		.st4 {fill:#125494;stroke:#000000;stroke-linecap:butt;stroke-width:0.75}
		.st5 {fill:#1c7ddb;stroke:#000000;stroke-linecap:butt;stroke-width:0.75}
		.st6 {fill:#1c82e5;stroke:#000000;stroke-linecap:butt;stroke-width:0.5}
		.st7 {fill:none;stroke:none;stroke-linecap:butt;stroke-width:0.75}
		.st8 {fill:#000000;font-family:Calibri;font-size:0.940773em}
		.st9 {fill:#00b050;stroke:#00b050;stroke-linecap:butt;stroke-width:0.75}
		.st10 {fill:#c00000;stroke:#c00000;stroke-linecap:butt;stroke-width:0.75}
		.st11 {fill:#096bec;stroke:#0a6df3;stroke-linecap:butt;stroke-width:0.75}
		.st12 {fill:#000000;stroke:none;stroke-width:0.25}
		.st13 {fill:none;stroke:none;stroke-width:0.25}
		.st14 {fill:#000000;font-family:Calibri;font-size:1.00001em;font-weight:bold}
		.st15 {font-size:1em}
		.st16 {font-size:1em;font-style:italic}
		.st17 {fill:#1e4e79;font-family:Calibri;font-size:1.5em;font-weight:bold}
		.st18 {fill:none;fill-rule:evenodd;font-size:12px;overflow:visible;stroke-linecap:square;stroke-miterlimit:3}
	]]>
	</style>

	<defs id="Patterns_And_Gradients">
		<linearGradient id="grad0-5" x1="0" y1="0" x2="1" y2="0" gradientTransform="rotate(60 0.5 0.5)">
			<stop offset="0" stop-color="#e8ebf4" stop-opacity="1"/>
			<stop offset="0.24" stop-color="#f4f5f9" stop-opacity="1"/>
			<stop offset="0.54" stop-color="#feffff" stop-opacity="1"/>
		</linearGradient>
	</defs>
	<defs id="Markers">
		<g id="lend4">
			<path d="M 2 1 L 0 0 L 2 -1 L 2 1 " style="stroke:none"/>
		</g>
		<marker id="mrkr4-12" class="st3" v:arrowType="4" v:arrowSize="2" v:setback="7.04" refX="-7.04" orient="auto"
				markerUnits="strokeWidth" overflow="visible">
			<use xlink:href="#lend4" transform="scale(-3.52,-3.52) "/>
		</marker>
	</defs>
	<g v:mID="0" v:index="1" v:groupContext="foregroundPage">
		<title>页-1</title>
		<v:pageProperties v:drawingScale="0.0393701" v:pageScale="0.0393701" v:drawingUnits="24" v:shadowOffsetX="9"
				v:shadowOffsetY="-9"/>
		<v:layer v:name="连接线" v:index="0"/>
		<g id="group6044-1" transform="translate(0.75,-0.75)" v:mID="6044" v:groupContext="group">
			<title>工作表.6044</title>
			<g id="shape6041-2" v:mID="6041" v:groupContext="shape">
				<title>矩形</title>
				<v:userDefs>
					<v:ud v:nameU="visVersion" v:val="VT0(15):26"/>
				</v:userDefs>
				<rect x="0" y="1.50001" width="319.465" height="251.717" class="st1"/>
			</g>
			<g id="group6019-6" transform="translate(0,-4.94487)" v:mID="6019" v:groupContext="group">
				<title>工作表.6019</title>
				<g id="shape6016-7" v:mID="6016" v:groupContext="shape" v:layerMember="0"
						transform="translate(-125.657,233.217) rotate(-90)">
					<title>直线-弧线连接线</title>
					<v:userDefs>
						<v:ud v:nameU="Scale" v:val="VT0(1):26"/>
						<v:ud v:nameU="AntiScale" v:val="VT0(1):26"/>
						<v:ud v:nameU="visVersion" v:val="VT0(15):26"/>
					</v:userDefs>
					<path d="M0 253.22 L9.79 253.22" class="st2"/>
				</g>
				<g id="shape5622-13" v:mID="5622" v:groupContext="shape" transform="translate(154.975,-18.4154)">
					<title>工作表.5622</title>
					<path d="M0 253.22 L77.86 193.91 L91.2 95.45 L0 146.67 L0 253.22 Z" class="st4"/>
				</g>
				<g id="shape5623-15" v:mID="5623" v:groupContext="shape" transform="translate(63.7795,-18.4154)">
					<title>工作表.5623</title>
					<path d="M91.2 146.67 L0 95.45 L13.34 193.91 L91.2 253.22 L91.2 146.67 Z" class="st5"/>
				</g>
				<g id="shape5624-17" v:mID="5624" v:groupContext="shape" transform="translate(63.7795,-125.137)">
					<title>工作表.5624</title>
					<path d="M91.2 253.22 L182.39 202 L91.2 165.77 L0 202 L91.2 253.22 Z" class="st6"/>
				</g>
				<g id="shape5605-19" v:mID="5605" v:groupContext="shape" transform="translate(275.211,-18.4154)">
					<title>工作表.5605</title>
					<desc>X</desc>
					<v:textBlock v:margins="rect(0,0,0,0)" v:tabSpace="42.5197"/>
					<v:textRect cx="5.64468" cy="246.443" width="11.29" height="13.5472"/>
					<rect x="0" y="239.669" width="11.2894" height="13.5472" class="st7"/>
					<text x="2.71" y="249.83" class="st8" v:langID="2057"><v:paragraph v:horizAlign="1"/><v:tabList/>X</text>				</g>
				<g id="shape5606-22" v:mID="5606" v:groupContext="shape" transform="translate(255.368,-52.9802)">
					<title>工作表.5606</title>
					<desc>Y</desc>
					<v:textBlock v:margins="rect(0,0,0,0)" v:tabSpace="42.5197"/>
					<v:textRect cx="5.64468" cy="246.443" width="11.29" height="13.5472"/>
					<rect x="0" y="239.669" width="11.2894" height="13.5472" class="st7"/>
					<text x="2.89" y="249.83" class="st8" v:langID="2057"><v:paragraph v:horizAlign="1"/><v:tabList/>Y</text>				</g>
				<g id="shape5607-25" v:mID="5607" v:groupContext="shape" transform="translate(237.142,-18.4154)">
					<title>工作表.5607</title>
					<desc>Z</desc>
					<v:textBlock v:margins="rect(0,0,0,0)" v:tabSpace="42.5197"/>
					<v:textRect cx="5.64468" cy="246.443" width="11.29" height="13.5472"/>
					<rect x="0" y="239.669" width="11.2894" height="13.5472" class="st7"/>
					<text x="3" y="249.83" class="st8" v:langID="2057"><v:paragraph v:horizAlign="1"/><v:tabList/>Z</text>				</g>
				<g id="shape5683-28" v:mID="5683" v:groupContext="shape" transform="translate(258.017,-37.0956)">
					<title>工作表.5683</title>
					<path d="M4.1 253.22 L4.05 253.19 L4.05 245.86 L4.23 245.81 L4.64 245.68 L5.05 245.56 L5.16 245.44 L5.26 245.33
								 L5.36 245.2 L5.47 245.09 L5.2 244.3 L4.95 243.51 L5.05 243.39 L5.16 243.28 L4.95 243.51 L5.47 245.09
								 L5.68 244.86 L5.79 244.73 L5.89 244.62 L5.81 244.36 L5.79 244.23 L5.6 243.57 L5.27 243.03 L4.94
								 242.49 L4.6 241.95 L4.27 241.4 L3.94 240.87 L3.61 240.32 L3.27 239.79 L2.94 239.24 L1.47 241.66
								 L0 244.08 L0.14 244.6 L0.29 245.13 L1.59 245.88 L1.83 245.9 L1.83 253.19 L1.79 253.22 L4.1 253.22
								 ZM4.1 242.29 L4 242.4 L4.21 242.17 L4.1 242.29 Z" class="st9"/>
				</g>
				<g id="shape5688-30" v:mID="5688" v:groupContext="shape" transform="translate(262.005,-29.0586)">
					<title>工作表.5688</title>
					<path d="M0 247.67 L0.38 247.88 L4.48 250.25 L5.31 250.73 L5.22 251.12 L5.17 251.33 L5.12 251.54 L5.07 251.75
								 L5.89 251.91 L6.7 252.08 L5.07 251.75 L5.17 252.04 L5.37 252.64 L5.47 252.94 L6.52 253.22 L11.6
								 253.08 L7.51 252.99 L8.53 253.01 L11.6 253.08 L10.25 250.6 L9.56 249.36 L8.88 248.12 L8.62 248.05
								 L8.35 247.98 L7.83 247.84 L7.67 247.94 L7.5 248.03 L7.18 248.22 L7.01 248.32 L6.69 248.5 L6.52 248.59
								 L6.38 248.79 L5.76 248.44 L3.71 247.25 L1.65 246.07 L0.11 245.18 L0 245.18 L0 247.67 Z"
							class="st10"/>
				</g>
				<g id="shape5693-32" v:mID="5693" v:groupContext="shape" transform="translate(248.318,-29.0586)">
					<title>工作表.5693</title>
					<path d="M11.58 245.18 L11.49 245.18 L5.22 248.79 L5.08 248.59 L4.75 248.41 L4.42 248.22 L4.1 248.03 L3.77 247.84
								 L3.25 247.98 L2.72 248.12 L1.35 250.6 L0 253.08 L1.27 253.11 L3.81 253.19 L5.08 253.22 L5.61 253.08
								 L5.87 253.01 L6.13 252.94 L6.23 252.64 L6.43 252.04 L6.53 251.75 L6.43 251.33 L6.29 250.73 L11.58
								 247.68 L11.58 245.18 Z" class="st11"/>
				</g>
				<g id="shape5695-34" v:mID="5695" v:groupContext="shape" transform="translate(258.017,-33.1424)">
					<title>圆形</title>
					<v:userDefs>
						<v:ud v:nameU="visVersion" v:val="VT0(15):26"/>
					</v:userDefs>
					<path d="M0 250.27 A2.94452 2.94452 0 0 1 5.89 250.27 A2.94452 2.94452 0 1 1 0 250.27 Z" class="st12"/>
				</g>
				<g id="shape6010-36" v:mID="6010" v:groupContext="shape" transform="translate(135.884,-164.321)">
					<title>工作表.6010</title>
					<desc>Top</desc>
					<v:textBlock v:margins="rect(4,4,4,4)" v:tabSpace="42.5197"/>
					<v:textRect cx="19.0906" cy="243.217" width="38.19" height="20"/>
					<rect x="0" y="233.217" width="38.1811" height="20" class="st13"/>
					<text x="9.67" y="246.82" class="st14" v:langID="2052"><v:paragraph v:horizAlign="1"/><v:tabList/>Top</text>				</g>
				<g id="shape6011-39" v:mID="6011" v:groupContext="shape" transform="translate(90.2867,-93.4547)">
					<title>工作表.6011</title>
					<desc>Left</desc>
					<v:textBlock v:margins="rect(4,4,4,4)" v:tabSpace="42.5197"/>
					<v:textRect cx="19.0906" cy="243.217" width="38.19" height="20"/>
					<rect x="0" y="233.217" width="38.1811" height="20" class="st13"/>
					<text x="9.55" y="246.82" class="st14" v:langID="2052"><v:paragraph v:horizAlign="1"/><v:tabList/>Left</text>				</g>
				<g id="shape6012-42" v:mID="6012" v:groupContext="shape" transform="translate(181.482,-93.4547)">
					<title>工作表.6012</title>
					<desc>Front</desc>
					<v:textBlock v:margins="rect(4,4,4,4)" v:tabSpace="42.5197"/>
					<v:textRect cx="19.0906" cy="243.217" width="38.19" height="20"/>
					<rect x="0" y="233.217" width="38.1811" height="20" class="st13"/>
					<text x="5.68" y="246.82" class="st14" v:langID="2052"><v:paragraph v:horizAlign="1"/><v:tabList/>Front</text>				</g>
				<g id="shape6013-45" v:mID="6013" v:groupContext="shape" transform="translate(265.261,-125.974)">
					<title>工作表.6013</title>
					<desc>Right</desc>
					<v:textBlock v:margins="rect(4,4,4,4)" v:tabSpace="42.5197"/>
					<v:textRect cx="19.0906" cy="243.217" width="38.19" height="20"/>
					<rect x="0" y="233.217" width="38.1811" height="20" class="st13"/>
					<text x="6.09" y="246.82" class="st14" v:langID="2052"><v:paragraph v:horizAlign="1"/><v:tabList/>Right</text>				</g>
				<g id="shape6014-48" v:mID="6014" v:groupContext="shape" transform="translate(101.197,-2.84217E-14)">
					<title>工作表.6014</title>
					<desc>Bottom</desc>
					<v:textBlock v:margins="rect(4,4,4,4)" v:tabSpace="42.5197"/>
					<v:textRect cx="26.3622" cy="243.217" width="52.73" height="20"/>
					<rect x="0" y="233.217" width="52.7244" height="20" class="st13"/>
					<text x="7.51" y="246.82" class="st14" v:langID="2052"><v:paragraph v:horizAlign="1"/><v:tabList/>Bottom</text>				</g>
				<g id="shape6015-51" v:mID="6015" v:groupContext="shape" transform="translate(0,-128.888)">
					<title>工作表.6015</title>
					<desc>Back</desc>
					<v:textBlock v:margins="rect(4,4,4,4)" v:tabSpace="42.5197"/>
					<v:textRect cx="19.0906" cy="243.217" width="38.19" height="20"/>
					<rect x="0" y="233.217" width="38.1811" height="20" class="st13"/>
					<text x="7.37" y="246.82" class="st14" v:langID="2052"><v:paragraph v:horizAlign="1"/><v:tabList/>Back</text>				</g>
				<g id="shape6017-54" v:mID="6017" v:groupContext="shape" v:layerMember="0"
						transform="translate(265.261,-135.974) scale(-1,1)">
					<title>直线-弧线连接线.6017</title>
					<v:userDefs>
						<v:ud v:nameU="Scale" v:val="VT0(1):26"/>
						<v:ud v:nameU="AntiScale" v:val="VT0(1):26"/>
						<v:ud v:nameU="visVersion" v:val="VT0(15):26"/>
					</v:userDefs>
					<path d="M0 253.22 L16.85 253.22" class="st2"/>
				</g>
				<g id="shape6018-59" v:mID="6018" v:groupContext="shape" v:layerMember="0" transform="translate(32.8021,-138.888)">
					<title>直线-弧线连接线.6018</title>
					<v:userDefs>
						<v:ud v:nameU="Scale" v:val="VT0(1):26"/>
						<v:ud v:nameU="AntiScale" v:val="VT0(1):26"/>
						<v:ud v:nameU="visVersion" v:val="VT0(15):26"/>
					</v:userDefs>
					<path d="M0 253.22 L16.85 253.22" class="st2"/>
				</g>
			</g>
			<g id="shape6020-64" v:mID="6020" v:groupContext="shape" transform="translate(31.9228,-203.48)">
				<title>工作表.6020</title>
				<desc>Point0 (0, 0, 0)</desc>
				<v:textBlock v:margins="rect(4,4,4,4)" v:tabSpace="42.5197"/>
				<v:textRect cx="33.0037" cy="239.043" width="66.01" height="28.3465"/>
				<rect x="0" y="224.87" width="66.0074" height="28.3465" class="st13"/>
				<text x="16.77" y="235.44" class="st14" v:langID="2052"><v:paragraph v:horizAlign="1"/><v:tabList/>Point0<v:newlineChar/><tspan
							x="14.34" dy="1.2em" class="st15">(0, 0, 0)</tspan></text>			</g>
			<g id="shape6022-68" v:mID="6022" v:groupContext="shape" transform="translate(243.139,-178.38)">
				<title>圆形</title>
				<v:userDefs>
					<v:ud v:nameU="visVersion" v:val="VT0(15):26"/>
				</v:userDefs>
				<path d="M0 250.27 A2.94452 2.94452 0 0 1 5.89 250.27 A2.94452 2.94452 0 1 1 0 250.27 Z" class="st12"/>
			</g>
			<g id="shape6023-70" v:mID="6023" v:groupContext="shape" transform="translate(152.986,-214.709)">
				<title>圆形.6023</title>
				<v:userDefs>
					<v:ud v:nameU="visVersion" v:val="VT0(15):26"/>
				</v:userDefs>
				<path d="M0 250.27 A2.94452 2.94452 0 0 1 5.89 250.27 A2.94452 2.94452 0 1 1 0 250.27 Z" class="st12"/>
			</g>
			<g id="shape6024-72" v:mID="6024" v:groupContext="shape" transform="translate(60.86,-178.38)">
				<title>圆形.6024</title>
				<v:userDefs>
					<v:ud v:nameU="visVersion" v:val="VT0(15):26"/>
				</v:userDefs>
				<path d="M0 250.27 A2.94452 2.94452 0 0 1 5.89 250.27 A2.94452 2.94452 0 1 1 0 250.27 Z" class="st12"/>
			</g>
			<g id="shape6025-74" v:mID="6025" v:groupContext="shape" transform="translate(151.788,-126.835)">
				<title>圆形.6025</title>
				<v:userDefs>
					<v:ud v:nameU="visVersion" v:val="VT0(15):26"/>
				</v:userDefs>
				<path d="M0 250.27 A2.94452 2.94452 0 0 1 5.89 250.27 A2.94452 2.94452 0 1 1 0 250.27 Z" class="st12"/>
			</g>
			<g id="shape6026-76" v:mID="6026" v:groupContext="shape" transform="translate(229.741,-79.6408)">
				<title>圆形.6026</title>
				<v:userDefs>
					<v:ud v:nameU="visVersion" v:val="VT0(15):26"/>
				</v:userDefs>
				<path d="M0 250.27 A2.94452 2.94452 0 0 1 5.89 250.27 A2.94452 2.94452 0 1 1 0 250.27 Z" class="st12"/>
			</g>
			<g id="shape6027-78" v:mID="6027" v:groupContext="shape" transform="translate(73.6159,-79.6408)">
				<title>圆形.6027</title>
				<v:userDefs>
					<v:ud v:nameU="visVersion" v:val="VT0(15):26"/>
				</v:userDefs>
				<path d="M0 250.27 A2.94452 2.94452 0 0 1 5.89 250.27 A2.94452 2.94452 0 1 1 0 250.27 Z" class="st12"/>
			</g>
			<g id="shape6028-80" v:mID="6028" v:groupContext="shape" transform="translate(151.974,-21.1256)">
				<title>圆形.6028</title>
				<v:userDefs>
					<v:ud v:nameU="visVersion" v:val="VT0(15):26"/>
				</v:userDefs>
				<path d="M0 250.27 A2.94452 2.94452 0 0 1 5.89 250.27 A2.94452 2.94452 0 1 1 0 250.27 Z" class="st12"/>
			</g>
			<g id="shape6029-82" v:mID="6029" v:groupContext="shape" transform="translate(249.38,-178.38)">
				<title>工作表.6029</title>
				<desc>(l, l, 0)</desc>
				<v:textBlock v:margins="rect(4,4,4,4)" v:tabSpace="42.5197"/>
				<v:textRect cx="23.4877" cy="243.217" width="46.98" height="20"/>
				<rect x="0" y="233.217" width="46.9754" height="20" class="st13"/>
				<text x="7.95" y="246.82" class="st14" v:langID="2052"><v:paragraph v:horizAlign="1"/><v:tabList/>(<tspan
							class="st16">l</tspan>, <tspan class="st16">l</tspan>, 0)</text>			</g>
			<g id="shape6030-87" v:mID="6030" v:groupContext="shape" transform="translate(238.245,-79.6408)">
				<title>工作表.6030</title>
				<desc>(l, 0, 0)</desc>
				<v:textBlock v:margins="rect(4,4,4,4)" v:tabSpace="42.5197"/>
				<v:textRect cx="23.4877" cy="243.217" width="46.98" height="20"/>
				<rect x="0" y="233.217" width="46.9754" height="20" class="st13"/>
				<text x="6.39" y="246.82" class="st14" v:langID="2052"><v:paragraph v:horizAlign="1"/><v:tabList/>(<tspan
							class="st16">l</tspan>, 0, 0)</text>			</g>
			<g id="shape6031-91" v:mID="6031" v:groupContext="shape" transform="translate(158.065,-217.543)">
				<title>工作表.6031</title>
				<desc>(0, l, 0)</desc>
				<v:textBlock v:margins="rect(4,4,4,4)" v:tabSpace="42.5197"/>
				<v:textRect cx="23.4877" cy="243.217" width="46.98" height="20"/>
				<rect x="0" y="233.217" width="46.9754" height="20" class="st13"/>
				<text x="6.39" y="246.82" class="st14" v:langID="2052"><v:paragraph v:horizAlign="1"/><v:tabList/>(0, <tspan
							class="st16">l</tspan>, 0)</text>			</g>
			<g id="shape6032-95" v:mID="6032" v:groupContext="shape" transform="translate(13.4976,-178.38)">
				<title>工作表.6032</title>
				<desc>(0, l, l)</desc>
				<v:textBlock v:margins="rect(4,4,4,4)" v:tabSpace="42.5197"/>
				<v:textRect cx="23.4877" cy="243.217" width="46.98" height="20"/>
				<rect x="0" y="233.217" width="46.9754" height="20" class="st13"/>
				<text x="7.95" y="246.82" class="st14" v:langID="2052"><v:paragraph v:horizAlign="1"/><v:tabList/>(0, <tspan
							class="st16">l</tspan>, <tspan class="st16">l</tspan>)</text>			</g>
			<g id="shape6033-100" v:mID="6033" v:groupContext="shape" transform="translate(22.812,-69.9842)">
				<title>工作表.6033</title>
				<desc>(0, 0, l)</desc>
				<v:textBlock v:margins="rect(4,4,4,4)" v:tabSpace="42.5197"/>
				<v:textRect cx="23.4877" cy="243.217" width="46.98" height="20"/>
				<rect x="0" y="233.217" width="46.9754" height="20" class="st13"/>
				<text x="6.39" y="246.82" class="st14" v:langID="2052"><v:paragraph v:horizAlign="1"/><v:tabList/>(0, 0, <tspan
							class="st16">l</tspan>)</text>			</g>
			<g id="shape6034-104" v:mID="6034" v:groupContext="shape" transform="translate(132.443,-142.346)">
				<title>工作表.6034</title>
				<desc>(l, l, I)</desc>
				<v:textBlock v:margins="rect(4,4,4,4)" v:tabSpace="42.5197"/>
				<v:textRect cx="23.4877" cy="243.217" width="46.98" height="20"/>
				<rect x="0" y="233.217" width="46.9754" height="20" class="st13"/>
				<text x="9.4" y="246.82" class="st14" v:langID="2052"><v:paragraph v:horizAlign="1"/><v:tabList/>(<tspan
							class="st16">l</tspan>, <tspan class="st16">l</tspan>, <tspan class="st16">I</tspan>)</text>			</g>
			<g id="shape6035-110" v:mID="6035" v:groupContext="shape" transform="translate(161.71,-7.01462)">
				<title>工作表.6035</title>
				<desc>(l, 0, l)</desc>
				<v:textBlock v:margins="rect(4,4,4,4)" v:tabSpace="42.5197"/>
				<v:textRect cx="23.4877" cy="243.217" width="46.98" height="20"/>
				<rect x="0" y="233.217" width="46.9754" height="20" class="st13"/>
				<text x="7.95" y="246.82" class="st14" v:langID="2052"><v:paragraph v:horizAlign="1"/><v:tabList/>(<tspan
							class="st16">l</tspan>, 0, <tspan class="st16">l</tspan>)</text>			</g>
			<g id="shape6042-115" v:mID="6042" v:groupContext="shape" transform="translate(252.89,-230.378)">
				<title>工作表.6042</title>
				<desc>C3D8</desc>
				<v:textBlock v:margins="rect(4,4,4,4)" v:tabSpace="42.5197"/>
				<v:textRect cx="33.0037" cy="243.217" width="66.01" height="20"/>
				<rect x="0" y="233.217" width="66.0074" height="20" class="st13"/>
				<text x="13.44" y="248.62" class="st17" v:langID="2052"><v:paragraph v:horizAlign="1"/><v:tabList/>C3D8</text>			</g>
			<g id="shape6043-118" v:mID="6043" v:groupContext="shape" transform="translate(246.127,-209.039)">
				<title>工作表.6043</title>
				<desc>MeshSize=l</desc>
				<v:textBlock v:margins="rect(4,4,4,4)" v:tabSpace="42.5197"/>
				<v:textRect cx="34.2593" cy="243.217" width="68.52" height="20"/>
				<rect x="0" y="233.217" width="68.5187" height="20" class="st13"/>
				<text x="6.2" y="246.82" class="st14" v:langID="2052"><v:paragraph v:horizAlign="1"/><v:tabList/>MeshSize=<tspan
							class="st16">l</tspan></text>			</g>
		</g>
	</g>
</svg>
