<?xml version="1.0" encoding="UTF-8" standalone="no"?>
<!DOCTYPE svg PUBLIC "-//W3C//DTD SVG 1.1//EN" "http://www.w3.org/Graphics/SVG/1.1/DTD/svg11.dtd">
<!-- 由 Microsoft Visio, SVG Export 生成 C3D8.svg C3D8 -->
<svg xmlns="http://www.w3.org/2000/svg" xmlns:xlink="http://www.w3.org/1999/xlink" xmlns:ev="http://www.w3.org/2001/xml-events"
		xmlns:v="http://schemas.microsoft.com/visio/2003/SVGExtensions/" width="8.35548in" height="4.0169in"
		viewBox="0 0 601.594 289.217" xml:space="preserve" color-interpolation-filters="sRGB" class="st22">
	<v:documentProperties v:langID="2052" v:metric="true" v:viewMarkup="false">
		<v:userDefs>
			<v:ud v:nameU="msvSubprocessMaster" v:prompt="" v:val="VT4(Rectangle)"/>
			<v:ud v:nameU="msvNoAutoConnect" v:val="VT0(1):26"/>
		</v:userDefs>
	</v:documentProperties>

	<style type="text/css">
	<![CDATA[
		.st1 {fill:url(#grad0-5);stroke:#000000;stroke-width:0.75}
		.st2 {stroke:#000000;stroke-dasharray:3.75845,1.87922;stroke-linecap:butt;stroke-width:0.469806}
		.st3 {marker-end:url(#mrkr4-21);stroke:#000000;stroke-linecap:round;stroke-linejoin:round;stroke-width:1}
		.st4 {fill:#000000;fill-opacity:1;stroke:#000000;stroke-opacity:1;stroke-width:0.28409090909091}
		.st5 {fill:#125494;stroke:#000000;stroke-linecap:butt;stroke-width:0.75}
		.st6 {fill:#1c7ddb;stroke:#000000;stroke-linecap:butt;stroke-width:0.75}
		.st7 {fill:#1c82e5;stroke:#000000;stroke-linecap:butt;stroke-width:0.5}
		.st8 {fill:none;stroke:none;stroke-linecap:butt;stroke-width:0.75}
		.st9 {fill:#203864;font-family:Calibri;font-size:0.940773em}
		.st10 {fill:#00b050;stroke:#00b050;stroke-linecap:butt;stroke-width:0.75}
		.st11 {fill:#c00000;stroke:#c00000;stroke-linecap:butt;stroke-width:0.75}
		.st12 {fill:#096bec;stroke:#0a6df3;stroke-linecap:butt;stroke-width:0.75}
		.st13 {fill:#000000;stroke:none;stroke-width:0.25}
		.st14 {fill:none;stroke:none;stroke-width:0.25}
		.st15 {fill:#203864;font-family:Calibri;font-size:1.00001em;font-weight:bold}
		.st16 {font-size:1em}
		.st17 {font-size:1em;font-style:italic}
		.st18 {fill:#000000;font-family:Calibri;font-size:1.5em;font-weight:bold}
		.st19 {stroke:#000000;stroke-linecap:butt;stroke-width:0.469806}
		.st20 {fill:none}
		.st21 {stroke:#ff7a00;stroke-linecap:butt;stroke-width:0.469806}
		.st22 {fill:none;fill-rule:evenodd;font-size:12px;overflow:visible;stroke-linecap:square;stroke-miterlimit:3}
	]]>
	</style>

	<defs id="Patterns_And_Gradients">
		<linearGradient id="grad0-5" x1="0" y1="0" x2="1" y2="0" gradientTransform="rotate(60 0.5 0.5)">
			<stop offset="0" stop-color="#e8ebf4" stop-opacity="1"/>
			<stop offset="0.24" stop-color="#f4f5f9" stop-opacity="1"/>
			<stop offset="0.54" stop-color="#feffff" stop-opacity="1"/>
		</linearGradient>
	</defs>
	<defs id="Markers">
		<g id="lend4">
			<path d="M 2 1 L 0 0 L 2 -1 L 2 1 " style="stroke:none"/>
		</g>
		<marker id="mrkr4-21" class="st4" v:arrowType="4" v:arrowSize="2" v:setback="7.04" refX="-7.04" orient="auto"
				markerUnits="strokeWidth" overflow="visible">
			<use xlink:href="#lend4" transform="scale(-3.52,-3.52) "/>
		</marker>
	</defs>
	<g v:mID="0" v:index="1" v:groupContext="foregroundPage">
		<v:userDefs>
			<v:ud v:nameU="msvThemeOrder" v:val="VT0(0):26"/>
		</v:userDefs>
		<title>C3D8</title>
		<v:pageProperties v:drawingScale="0.0393701" v:pageScale="0.0393701" v:drawingUnits="24" v:shadowOffsetX="9"
				v:shadowOffsetY="-9"/>
		<v:layer v:name="连接线" v:index="0"/>
		<g id="group6059-1" transform="translate(1.55908,-8.11272)" v:mID="6059" v:groupContext="group">
			<title>工作表.6059</title>
			<g id="shape6041-2" v:mID="6041" v:groupContext="shape">
				<title>矩形</title>
				<v:userDefs>
					<v:ud v:nameU="visVersion" v:val="VT0(15):26"/>
				</v:userDefs>
				<rect x="0" y="21.6887" width="599.528" height="267.528" class="st1"/>
			</g>
			<g id="shape6058-6" v:mID="6058" v:groupContext="shape" transform="translate(193.217,164.253) rotate(-90.0933)">
				<title>工作表.6058</title>
				<path d="M0 289.22 L96.34 289.22" class="st2"/>
			</g>
			<g id="shape6057-9" v:mID="6057" v:groupContext="shape" transform="translate(624.653,-87.9387) rotate(29.4784)">
				<title>工作表.6057</title>
				<path d="M0 289.22 L95.35 289.22" class="st2"/>
			</g>
			<g id="shape6056-12" v:mID="6056" v:groupContext="shape" transform="translate(625.27,415.262) rotate(150.381)">
				<title>工作表.6056</title>
				<path d="M0 289.22 L95.05 289.22" class="st2"/>
			</g>
			<g id="group6019-15" transform="translate(9.03812,-3.49179)" v:mID="6019" v:groupContext="group">
				<title>工作表.6019</title>
				<g id="shape6016-16" v:mID="6016" v:groupContext="shape" v:layerMember="0"
						transform="translate(-153.645,267.96) rotate(-90)">
					<title>直线-弧线连接线</title>
					<v:userDefs>
						<v:ud v:nameU="Scale" v:val="VT0(1):26"/>
						<v:ud v:nameU="AntiScale" v:val="VT0(1):26"/>
						<v:ud v:nameU="visVersion" v:val="VT0(15):26"/>
					</v:userDefs>
					<path d="M0 289.22 L10.85 289.22" class="st3"/>
				</g>
				<g id="shape5622-22" v:mID="5622" v:groupContext="shape" transform="translate(164.71,-19.5721)">
					<title>工作表.5622</title>
					<path d="M0 289.22 L82.75 226.19 L96.92 121.54 L0 175.98 L0 289.22 Z" class="st5"/>
				</g>
				<g id="shape5623-24" v:mID="5623" v:groupContext="shape" transform="translate(67.7858,-19.5721)">
					<title>工作表.5623</title>
					<path d="M96.92 175.98 L0 121.54 L14.18 226.19 L96.92 289.22 L96.92 175.98 Z" class="st6"/>
				</g>
				<g id="shape5624-26" v:mID="5624" v:groupContext="shape" transform="translate(67.7858,-132.998)">
					<title>工作表.5624</title>
					<path d="M96.92 289.22 L193.85 234.79 L96.92 196.27 L0 234.79 L96.92 289.22 Z" class="st7"/>
				</g>
				<g id="shape5605-28" v:mID="5605" v:groupContext="shape" transform="translate(292.498,-19.5721)">
					<title>工作表.5605</title>
					<desc>X</desc>
					<v:textBlock v:margins="rect(0,0,0,0)" v:tabSpace="42.5197"/>
					<v:textRect cx="5.99924" cy="282.017" width="12" height="14.3982"/>
					<rect x="0" y="274.818" width="11.9985" height="14.3982" class="st8"/>
					<text x="3.07" y="285.4" class="st9" v:langID="2057"><v:paragraph v:horizAlign="1"/><v:tabList/>X</text>				</g>
				<g id="shape5606-31" v:mID="5606" v:groupContext="shape" transform="translate(271.409,-56.3081)">
					<title>工作表.5606</title>
					<desc>Y</desc>
					<v:textBlock v:margins="rect(0,0,0,0)" v:tabSpace="42.5197"/>
					<v:textRect cx="5.99924" cy="282.017" width="12" height="14.3982"/>
					<rect x="0" y="274.818" width="11.9985" height="14.3982" class="st8"/>
					<text x="3.25" y="285.4" class="st9" v:langID="2057"><v:paragraph v:horizAlign="1"/><v:tabList/>Y</text>				</g>
				<g id="shape5607-34" v:mID="5607" v:groupContext="shape" transform="translate(252.037,-19.5721)">
					<title>工作表.5607</title>
					<desc>Z</desc>
					<v:textBlock v:margins="rect(0,0,0,0)" v:tabSpace="42.5197"/>
					<v:textRect cx="5.99924" cy="282.017" width="12" height="14.3982"/>
					<rect x="0" y="274.818" width="11.9985" height="14.3982" class="st8"/>
					<text x="3.36" y="285.4" class="st9" v:langID="2057"><v:paragraph v:horizAlign="1"/><v:tabList/>Z</text>				</g>
				<g id="shape5683-37" v:mID="5683" v:groupContext="shape" transform="translate(274.224,-39.4257)">
					<title>工作表.5683</title>
					<path d="M4.36 289.22 L4.31 289.19 L4.31 281.4 L4.5 281.34 L4.93 281.21 L5.37 281.08 L5.48 280.95 L5.59 280.83
								 L5.7 280.7 L5.81 280.58 L5.53 279.74 L5.26 278.9 L5.37 278.77 L5.48 278.65 L5.26 278.9 L5.81 280.58
								 L6.04 280.33 L6.15 280.2 L6.26 280.08 L6.18 279.8 L6.15 279.66 L5.95 278.96 L5.6 278.39 L5.25 277.81
								 L4.89 277.24 L4.54 276.66 L4.19 276.09 L3.84 275.51 L3.48 274.94 L3.13 274.36 L1.56 276.93 L0 279.5
								 L0.15 280.06 L0.31 280.62 L1.69 281.42 L1.95 281.44 L1.95 289.19 L1.9 289.22 L4.36 289.22 ZM4.36
								 277.6 L4.25 277.72 L4.47 277.47 L4.36 277.6 Z" class="st10"/>
				</g>
				<g id="shape5688-39" v:mID="5688" v:groupContext="shape" transform="translate(278.463,-30.8838)">
					<title>工作表.5688</title>
					<path d="M0 283.32 L0.4 283.55 L4.76 286.07 L5.64 286.58 L5.55 286.99 L5.49 287.21 L5.44 287.44 L5.39 287.66
								 L6.26 287.83 L7.12 288.01 L5.39 287.66 L5.49 287.97 L5.71 288.61 L5.81 288.93 L6.93 289.22 L12.33
								 289.08 L7.98 288.98 L9.07 289 L12.33 289.08 L10.89 286.44 L10.16 285.12 L9.44 283.8 L9.16 283.73
								 L8.88 283.65 L8.32 283.51 L8.15 283.61 L7.97 283.71 L7.63 283.91 L7.45 284.01 L7.11 284.21 L6.93
								 284.3 L6.78 284.52 L6.12 284.14 L3.94 282.88 L1.75 281.62 L0.12 280.67 L0 280.67 L0 283.32 Z"
							class="st11"/>
				</g>
				<g id="shape5693-41" v:mID="5693" v:groupContext="shape" transform="translate(263.916,-30.8838)">
					<title>工作表.5693</title>
					<path d="M12.3 280.67 L12.21 280.67 L5.55 284.51 L5.4 284.3 L5.05 284.11 L4.7 283.91 L4.36 283.71 L4.01 283.51
								 L3.45 283.65 L2.89 283.8 L1.44 286.44 L0 289.08 L1.35 289.11 L4.05 289.19 L5.4 289.22 L5.96 289.08
								 L6.24 289 L6.52 288.93 L6.62 288.61 L6.84 287.97 L6.94 287.66 L6.84 287.21 L6.68 286.58 L12.3 283.33
								 L12.3 280.67 Z" class="st12"/>
				</g>
				<g id="shape5695-43" v:mID="5695" v:groupContext="shape" transform="translate(274.224,-35.2242)">
					<title>圆形</title>
					<v:userDefs>
						<v:ud v:nameU="visVersion" v:val="VT0(15):26"/>
					</v:userDefs>
					<path d="M0 286.09 A3.12947 3.12947 0 0 1 6.26 286.09 A3.12947 3.12947 0 0 1 0 286.09 Z" class="st13"/>
				</g>
				<g id="shape6010-45" v:mID="6010" v:groupContext="shape" transform="translate(144.42,-174.643)">
					<title>工作表.6010</title>
					<desc>Top</desc>
					<v:textBlock v:margins="rect(4,4,4,4)" v:tabSpace="42.5197"/>
					<v:textRect cx="20.2897" cy="278.588" width="40.58" height="21.2563"/>
					<rect x="0" y="267.96" width="40.5794" height="21.2563" class="st14"/>
					<text x="10.87" y="282.19" class="st15" v:langID="2052"><v:paragraph v:horizAlign="1"/><v:tabList/>Top</text>				</g>
				<g id="shape6011-48" v:mID="6011" v:groupContext="shape" transform="translate(95.9579,-99.325)">
					<title>工作表.6011</title>
					<desc>Left</desc>
					<v:textBlock v:margins="rect(4,4,4,4)" v:tabSpace="42.5197"/>
					<v:textRect cx="20.2897" cy="278.588" width="40.58" height="21.2563"/>
					<rect x="0" y="267.96" width="40.5794" height="21.2563" class="st14"/>
					<text x="10.75" y="282.19" class="st15" v:langID="2052"><v:paragraph v:horizAlign="1"/><v:tabList/>Left</text>				</g>
				<g id="shape6012-51" v:mID="6012" v:groupContext="shape" transform="translate(192.882,-99.325)">
					<title>工作表.6012</title>
					<desc>Front</desc>
					<v:textBlock v:margins="rect(4,4,4,4)" v:tabSpace="42.5197"/>
					<v:textRect cx="20.2897" cy="278.588" width="40.58" height="21.2563"/>
					<rect x="0" y="267.96" width="40.5794" height="21.2563" class="st14"/>
					<text x="6.88" y="282.19" class="st15" v:langID="2052"><v:paragraph v:horizAlign="1"/><v:tabList/>Front</text>				</g>
				<g id="shape6013-54" v:mID="6013" v:groupContext="shape" transform="translate(281.923,-133.887)">
					<title>工作表.6013</title>
					<desc>Right</desc>
					<v:textBlock v:margins="rect(4,4,4,4)" v:tabSpace="42.5197"/>
					<v:textRect cx="20.2897" cy="278.588" width="40.58" height="21.2563"/>
					<rect x="0" y="267.96" width="40.5794" height="21.2563" class="st14"/>
					<text x="7.29" y="282.19" class="st15" v:langID="2052"><v:paragraph v:horizAlign="1"/><v:tabList/>Right</text>				</g>
				<g id="shape6014-57" v:mID="6014" v:groupContext="shape" transform="translate(107.553,0)">
					<title>工作表.6014</title>
					<desc>Bottom</desc>
					<v:textBlock v:margins="rect(4,4,4,4)" v:tabSpace="42.5197"/>
					<v:textRect cx="28.0181" cy="278.588" width="56.04" height="21.2563"/>
					<rect x="0" y="267.96" width="56.0362" height="21.2563" class="st14"/>
					<text x="9.16" y="282.19" class="st15" v:langID="2052"><v:paragraph v:horizAlign="1"/><v:tabList/>Bottom</text>				</g>
				<g id="shape6015-60" v:mID="6015" v:groupContext="shape" transform="translate(-6.39488E-13,-136.984)">
					<title>工作表.6015</title>
					<desc>Back</desc>
					<v:textBlock v:margins="rect(4,4,4,4)" v:tabSpace="42.5197"/>
					<v:textRect cx="20.2897" cy="278.588" width="40.58" height="21.2563"/>
					<rect x="0" y="267.96" width="40.5794" height="21.2563" class="st14"/>
					<text x="8.57" y="282.19" class="st15" v:langID="2052"><v:paragraph v:horizAlign="1"/><v:tabList/>Back</text>				</g>
				<g id="shape6017-63" v:mID="6017" v:groupContext="shape" v:layerMember="0"
						transform="translate(281.923,-144.516) scale(-1,1)">
					<title>直线-弧线连接线.6017</title>
					<v:userDefs>
						<v:ud v:nameU="Scale" v:val="VT0(1):26"/>
						<v:ud v:nameU="AntiScale" v:val="VT0(1):26"/>
						<v:ud v:nameU="visVersion" v:val="VT0(15):26"/>
					</v:userDefs>
					<path d="M0 289.22 L18.35 289.22" class="st3"/>
				</g>
				<g id="shape6018-68" v:mID="6018" v:groupContext="shape" v:layerMember="0" transform="translate(34.8626,-147.612)">
					<title>直线-弧线连接线.6018</title>
					<v:userDefs>
						<v:ud v:nameU="Scale" v:val="VT0(1):26"/>
						<v:ud v:nameU="AntiScale" v:val="VT0(1):26"/>
						<v:ud v:nameU="visVersion" v:val="VT0(15):26"/>
					</v:userDefs>
					<path d="M0 289.22 L18.35 289.22" class="st3"/>
				</g>
			</g>
			<g id="shape6020-73" v:mID="6020" v:groupContext="shape" transform="translate(42.9661,-214.498)">
				<title>工作表.6020</title>
				<desc>Point0 (0, 0, 0)</desc>
				<v:textBlock v:margins="rect(4,4,4,4)" v:tabSpace="42.5197"/>
				<v:textRect cx="35.0768" cy="274.153" width="70.16" height="30.127"/>
				<rect x="0" y="259.09" width="70.1535" height="30.127" class="st14"/>
				<text x="18.84" y="270.55" class="st15" v:langID="2052"><v:paragraph v:horizAlign="1"/><v:tabList/>Point0<v:newlineChar/><tspan
							x="16.41" dy="1.2em" class="st16">(0, 0, 0)</tspan></text>			</g>
			<g id="shape6022-77" v:mID="6022" v:groupContext="shape" transform="translate(267.449,-187.822)">
				<title>圆形</title>
				<v:userDefs>
					<v:ud v:nameU="visVersion" v:val="VT0(15):26"/>
				</v:userDefs>
				<path d="M0 286.09 A3.12947 3.12947 0 0 1 6.26 286.09 A3.12947 3.12947 0 0 1 -0 286.09 Z" class="st13"/>
			</g>
			<g id="shape6023-79" v:mID="6023" v:groupContext="shape" transform="translate(171.634,-226.432)">
				<title>圆形.6023</title>
				<v:userDefs>
					<v:ud v:nameU="visVersion" v:val="VT0(15):26"/>
				</v:userDefs>
				<path d="M0 286.09 A3.12947 3.12947 0 0 1 6.26 286.09 A3.12947 3.12947 0 0 1 -0 286.09 Z" class="st13"/>
			</g>
			<g id="shape6024-81" v:mID="6024" v:groupContext="shape" transform="translate(73.721,-187.822)">
				<title>圆形.6024</title>
				<v:userDefs>
					<v:ud v:nameU="visVersion" v:val="VT0(15):26"/>
				</v:userDefs>
				<path d="M0 286.09 A3.12947 3.12947 0 0 1 6.26 286.09 A3.12947 3.12947 0 0 1 -0 286.09 Z" class="st13"/>
			</g>
			<g id="shape6025-83" v:mID="6025" v:groupContext="shape" transform="translate(170.361,-133.038)">
				<title>圆形.6025</title>
				<v:userDefs>
					<v:ud v:nameU="visVersion" v:val="VT0(15):26"/>
				</v:userDefs>
				<path d="M0 286.09 A3.12947 3.12947 0 0 1 6.26 286.09 A3.12947 3.12947 0 0 1 -0 286.09 Z" class="st13"/>
			</g>
			<g id="shape6026-85" v:mID="6026" v:groupContext="shape" transform="translate(253.21,-82.8796)">
				<title>圆形.6026</title>
				<v:userDefs>
					<v:ud v:nameU="visVersion" v:val="VT0(15):26"/>
				</v:userDefs>
				<path d="M0 286.09 A3.12947 3.12947 0 0 1 6.26 286.09 A3.12947 3.12947 0 0 1 -0 286.09 Z" class="st13"/>
			</g>
			<g id="shape6027-87" v:mID="6027" v:groupContext="shape" transform="translate(87.2781,-82.8796)">
				<title>圆形.6027</title>
				<v:userDefs>
					<v:ud v:nameU="visVersion" v:val="VT0(15):26"/>
				</v:userDefs>
				<path d="M0 286.09 A3.12947 3.12947 0 0 1 6.26 286.09 A3.12947 3.12947 0 0 1 -0 286.09 Z" class="st13"/>
			</g>
			<g id="shape6028-89" v:mID="6028" v:groupContext="shape" transform="translate(170.558,-20.6889)">
				<title>圆形.6028</title>
				<v:userDefs>
					<v:ud v:nameU="visVersion" v:val="VT0(15):26"/>
				</v:userDefs>
				<path d="M0 286.09 A3.12947 3.12947 0 0 1 6.26 286.09 A3.12947 3.12947 0 0 1 -0 286.09 Z" class="st13"/>
			</g>
			<g id="shape6029-91" v:mID="6029" v:groupContext="shape" transform="translate(274.083,-187.822)">
				<title>工作表.6029</title>
				<desc>(l, l, 0)</desc>
				<v:textBlock v:margins="rect(4,4,4,4)" v:tabSpace="42.5197"/>
				<v:textRect cx="24.963" cy="278.588" width="49.93" height="21.2563"/>
				<rect x="0" y="267.96" width="49.9261" height="21.2563" class="st14"/>
				<text x="9.43" y="282.19" class="st15" v:langID="2052"><v:paragraph v:horizAlign="1"/><v:tabList/>(<tspan
							class="st17">l</tspan>, <tspan class="st17">l</tspan>, 0)</text>			</g>
			<g id="shape6030-96" v:mID="6030" v:groupContext="shape" transform="translate(262.248,-82.8796)">
				<title>工作表.6030</title>
				<desc>(l, 0, 0)</desc>
				<v:textBlock v:margins="rect(4,4,4,4)" v:tabSpace="42.5197"/>
				<v:textRect cx="24.963" cy="278.588" width="49.93" height="21.2563"/>
				<rect x="0" y="267.96" width="49.9261" height="21.2563" class="st14"/>
				<text x="7.86" y="282.19" class="st15" v:langID="2052"><v:paragraph v:horizAlign="1"/><v:tabList/>(<tspan
							class="st17">l</tspan>, 0, 0)</text>			</g>
			<g id="shape6031-100" v:mID="6031" v:groupContext="shape" transform="translate(177.031,-229.444)">
				<title>工作表.6031</title>
				<desc>(0, l, 0)</desc>
				<v:textBlock v:margins="rect(4,4,4,4)" v:tabSpace="42.5197"/>
				<v:textRect cx="24.963" cy="278.588" width="49.93" height="21.2563"/>
				<rect x="0" y="267.96" width="49.9261" height="21.2563" class="st14"/>
				<text x="7.86" y="282.19" class="st15" v:langID="2052"><v:paragraph v:horizAlign="1"/><v:tabList/>(0, <tspan
							class="st17">l</tspan>, 0)</text>			</g>
			<g id="shape6032-104" v:mID="6032" v:groupContext="shape" transform="translate(23.3835,-187.822)">
				<title>工作表.6032</title>
				<desc>(0, l, l)</desc>
				<v:textBlock v:margins="rect(4,4,4,4)" v:tabSpace="42.5197"/>
				<v:textRect cx="24.963" cy="278.588" width="49.93" height="21.2563"/>
				<rect x="0" y="267.96" width="49.9261" height="21.2563" class="st14"/>
				<text x="9.43" y="282.19" class="st15" v:langID="2052"><v:paragraph v:horizAlign="1"/><v:tabList/>(0, <tspan
							class="st17">l</tspan>, <tspan class="st17">l</tspan>)</text>			</g>
			<g id="shape6033-109" v:mID="6033" v:groupContext="shape" transform="translate(33.2831,-72.6165)">
				<title>工作表.6033</title>
				<desc>(0, 0, l)</desc>
				<v:textBlock v:margins="rect(4,4,4,4)" v:tabSpace="42.5197"/>
				<v:textRect cx="24.963" cy="278.588" width="49.93" height="21.2563"/>
				<rect x="0" y="267.96" width="49.9261" height="21.2563" class="st14"/>
				<text x="7.86" y="282.19" class="st15" v:langID="2052"><v:paragraph v:horizAlign="1"/><v:tabList/>(0, 0, <tspan
							class="st17">l</tspan>)</text>			</g>
			<g id="shape6034-113" v:mID="6034" v:groupContext="shape" transform="translate(149.8,-149.524)">
				<title>工作表.6034</title>
				<desc>(l, l, I)</desc>
				<v:textBlock v:margins="rect(4,4,4,4)" v:tabSpace="42.5197"/>
				<v:textRect cx="24.963" cy="278.588" width="49.93" height="21.2563"/>
				<rect x="0" y="267.96" width="49.9261" height="21.2563" class="st14"/>
				<text x="10.87" y="282.19" class="st15" v:langID="2052"><v:paragraph v:horizAlign="1"/><v:tabList/>(<tspan
							class="st17">l</tspan>, <tspan class="st17">l</tspan>, <tspan class="st17">I</tspan>)</text>			</g>
			<g id="shape6035-119" v:mID="6035" v:groupContext="shape" transform="translate(180.905,-5.69154)">
				<title>工作表.6035</title>
				<desc>(l, 0, l)</desc>
				<v:textBlock v:margins="rect(4,4,4,4)" v:tabSpace="42.5197"/>
				<v:textRect cx="24.963" cy="278.588" width="49.93" height="21.2563"/>
				<rect x="0" y="267.96" width="49.9261" height="21.2563" class="st14"/>
				<text x="9.43" y="282.19" class="st15" v:langID="2052"><v:paragraph v:horizAlign="1"/><v:tabList/>(<tspan
							class="st17">l</tspan>, 0, <tspan class="st17">l</tspan>)</text>			</g>
			<g id="shape6042-124" v:mID="6042" v:groupContext="shape" transform="translate(1.07564,-244.508)">
				<title>工作表.6042</title>
				<desc>C3D8</desc>
				<v:textBlock v:margins="rect(4,4,4,4)" v:tabSpace="42.5197"/>
				<v:textRect cx="35.0768" cy="278.588" width="70.16" height="21.2563"/>
				<rect x="0" y="267.96" width="70.1535" height="21.2563" class="st14"/>
				<text x="15.52" y="283.99" class="st18" v:langID="2052"><v:paragraph v:horizAlign="1"/><v:tabList/>C3D8</text>			</g>
			<g id="shape6043-127" v:mID="6043" v:groupContext="shape" transform="translate(270.625,-220.406)">
				<title>工作表.6043</title>
				<desc>MeshSize=l</desc>
				<v:textBlock v:margins="rect(4,4,4,4)" v:tabSpace="42.5197"/>
				<v:textRect cx="36.4113" cy="278.588" width="72.83" height="21.2563"/>
				<rect x="0" y="267.96" width="72.8226" height="21.2563" class="st14"/>
				<text x="8.36" y="282.19" class="st15" v:langID="2052"><v:paragraph v:horizAlign="1"/><v:tabList/>MeshSize=<tspan
							class="st17">l</tspan></text>			</g>
			<g id="shape6045-131" v:mID="6045" v:groupContext="shape" transform="translate(113.006,249.545) rotate(-97.7102)">
				<title>工作表.6045</title>
				<path d="M0 289.22 L105.53 289.22" class="st19"/>
			</g>
			<g id="shape6046-134" v:mID="6046" v:groupContext="shape" transform="translate(307.109,503.852) rotate(-142.702)">
				<title>工作表.6046</title>
				<path d="M0 289.22 L104.03 289.22" class="st19"/>
			</g>
			<g id="shape6047-137" v:mID="6047" v:groupContext="shape" transform="translate(278.64,-162.674) rotate(-21.6709)">
				<title>工作表.6047</title>
				<path d="M0 289.22 L104.3 289.22" class="st19"/>
			</g>
			<g id="shape6048-140" v:mID="6048" v:groupContext="shape" transform="translate(278.509,171.941) rotate(-82.2898)">
				<title>工作表.6048</title>
				<path d="M0 289.22 L105.53 289.22" class="st19"/>
			</g>
			<g id="shape6049-143" v:mID="6049" v:groupContext="shape" transform="translate(307.096,43.7236) rotate(-37.3017)">
				<title>工作表.6049</title>
				<path d="M0 289.22 L104.02 289.22" class="st19"/>
			</g>
			<g id="shape6050-146" v:mID="6050" v:groupContext="shape" transform="translate(385.441,-15.4339)">
				<title>工作表.6050</title>
				<path d="M193.84 121.53 L96.91 83.02 L193.84 121.53 ZM96.92 175.98 L193.85 121.53 L96.92 175.98 ZM96.92 175.98 L96.92
							 289.22 L96.92 175.98 ZM0 121.53 L96.92 175.98 L0 121.53 Z" class="st20"/>
				<path d="M193.84 121.53 L96.91 83.02M96.92 175.98 L193.85 121.53M96.92 175.98 L96.92 289.22M0 121.53 L96.92 175.98"
						class="st19"/>
			</g>
			<g id="shape6051-149" v:mID="6051" v:groupContext="shape" transform="translate(229.614,146.253) rotate(-62.202)">
				<title>工作表.6051</title>
				<path d="M0 289.22 L2.7 289.22" class="st21"/>
			</g>
			<g id="shape6052-152" v:mID="6052" v:groupContext="shape" transform="translate(377.502,-7.08534)">
				<title>工作表.6052</title>
				<path d="M104.86 280.87 L109.22 285.84 L107.93 283.48 L104.86 280.87 ZM104.86 280.87 L107.92 283.47 L104.86 282.5
							 L101.79 283.47 L104.86 280.87 ZM104.86 280.87 L101.79 283.47 L100.5 285.83 L104.86 280.87 ZM104.86 280.87
							 L100.5 285.84 L101.76 288.23 L104.86 280.87 ZM104.86 280.87 L101.76 288.22 L104.86 289.22 L104.86 280.87
							 ZM104.86 280.87 L104.86 289.22 L107.96 288.22 L104.86 280.87 ZM89.27 273.95 L90.61 271.65 L89.27 273.95
							 ZM86.12 266.59 L90.61 271.66 L89.42 269.38 L86.12 266.59 ZM86.12 266.59 L89.43 269.38 L86.43 268.45
							 L83.34 269.38 L86.12 266.59 ZM86.12 266.59 L83.34 269.38 L81.95 271.66 L86.12 266.59 ZM86.12 266.59
							 L81.95 271.66 L83.1 273.96 L86.12 266.59 ZM86.12 266.59 L83.1 273.96 L86.14 274.92 L86.12 266.59 ZM86.12
							 266.59 L86.14 274.91 L89.27 273.95 L86.12 266.59 ZM71.78 260.61 L73.22 258.39 L71.78 260.61 ZM68.58
							 253.22 L73.22 258.39 L72.13 256.2 L68.58 253.22 ZM68.58 253.22 L72.14 256.2 L69.18 255.3 L66.06 256.2
							 L68.58 253.22 ZM68.58 253.22 L66.06 256.2 L64.58 258.39 L68.58 253.22 ZM68.58 253.22 L64.58 258.39 L65.64
							 260.61 L68.58 253.22 ZM68.58 253.22 L65.64 260.61 L68.63 261.54 L68.58 253.22 ZM68.58 253.22 L68.63
							 261.54 L71.78 260.61 L68.58 253.22 ZM55.38 248.12 L56.91 245.97 L55.38 248.12 ZM52.12 240.69 L56.91
							 245.97 L55.91 243.84 L52.12 240.69 ZM52.12 240.69 L55.91 243.85 L52.99 242.98 L49.84 243.85 L52.12 240.69
							 ZM52.12 240.69 L48.28 245.97 L49.25 248.12 L52.12 240.69 ZM52.12 240.69 L49.24 248.12 L52.19 249.02
							 L52.12 240.69 ZM52.12 240.69 L52.19 249.02 L55.38 248.12 L52.12 240.69 ZM39.98 236.4 L41.6 234.31 L39.98
							 236.4 ZM36.66 228.92 L41.6 234.31 L40.68 232.25 L36.66 228.92 ZM36.66 228.92 L40.67 232.25 L37.78 231.4
							 L36.66 228.92 ZM36.66 228.92 L37.78 231.4 L34.59 232.25 L36.66 228.92 ZM36.66 228.92 L34.6 232.25 L36.66
							 228.92 ZM36.66 228.92 L32.95 234.31 L33.83 236.4 L36.66 228.92 ZM36.66 228.92 L33.83 236.4 L36.75 237.27
							 L36.66 228.92 ZM36.66 228.92 L36.75 237.28 L39.98 236.41 L36.66 228.92 ZM25.49 225.37 L27.19 223.34
							 L25.49 225.37 ZM22.11 217.83 L27.19 223.34 L26.35 221.32 L22.11 217.83 ZM22.11 217.83 L26.35 221.32
							 L23.48 220.49 L22.11 217.83 ZM22.11 217.83 L23.48 220.5 L20.25 221.33 L22.11 217.83 ZM22.11 217.83 L20.25
							 221.32 L18.52 223.34 L22.11 217.83 ZM22.11 217.83 L18.52 223.34 L19.33 225.37 L22.11 217.83 ZM22.11
							 217.83 L19.33 225.37 L22.23 226.22 L22.11 217.83 ZM22.11 217.83 L22.23 226.22 L25.5 225.37 L22.11 217.83
							 ZM107.88 178.44 L109.11 176.7 L107.85 174.97 L107.88 178.44 ZM104.86 170.88 L107.85 174.97 L104.86 174.26
							 L101.87 174.97 L104.86 170.88 ZM104.86 170.88 L100.61 176.7 L101.84 178.44 L104.86 170.88 ZM104.86 170.88
							 L101.83 178.44 L104.86 179.17 L104.86 170.88 ZM104.86 170.88 L104.86 179.17 L107.88 178.44 L104.86 170.88
							 ZM90.04 179.28 L93.11 186.81 L94.42 185.02 L90.04 179.28 ZM90.04 179.28 L94.42 185.02 L93.23 183.25
							 L90.04 179.28 ZM90.04 179.28 L93.24 183.25 L90.28 182.52 L87.26 183.25 L90.04 179.28 ZM90.04 179.28
							 L87.26 183.25 L90.04 179.28 ZM90.04 179.28 L85.92 185.02 L87.07 186.81 L90.04 179.28 ZM90.04 179.28
							 L87.08 186.81 L90.06 187.56 L90.04 179.28 ZM90.04 179.28 L90.06 187.56 L93.11 186.81 L90.04 179.28 ZM77.57
							 195.66 L78.96 193.82 L77.57 195.66 ZM74.43 188.14 L78.96 193.82 L77.86 192 L74.43 188.14 ZM74.43 188.14
							 L77.86 192 L74.93 191.25 L74.43 188.14 ZM74.43 188.14 L74.92 191.24 L71.86 191.99 L74.43 188.14 ZM70.44
							 193.82 L74.43 188.14 L70.44 193.82 L71.51 195.66 L70.44 193.82 ZM74.43 188.14 L71.51 195.66 L74.47 196.43
							 L74.43 188.14 ZM74.43 188.14 L74.47 196.43 L77.56 195.66 L74.43 188.14 ZM61.16 205 L62.65 203.1 L61.16
							 205 ZM57.95 197.49 L62.65 203.1 L61.63 201.22 L57.95 197.49 ZM57.95 197.49 L61.62 201.23 L58.71 200.46
							 L57.95 197.49 ZM57.95 197.49 L58.72 200.45 L55.61 201.22 L57.95 197.49 ZM57.95 197.49 L55.61 201.23
							 L54.09 203.11 L57.95 197.49 ZM57.95 197.49 L54.09 203.1 L55.07 205 L57.95 197.49 ZM57.95 197.49 L55.08
							 205 L58.02 205.79 L57.95 197.49 ZM57.95 197.49 L58.02 205.79 L61.16 205 L57.95 197.49 ZM43.83 214.89
							 L45.41 212.93 L43.83 214.89 ZM40.54 207.37 L45.41 212.93 L44.48 210.99 L40.54 207.37 ZM40.54 207.37
							 L44.48 210.99 L41.59 210.19 L40.54 207.37 ZM40.54 207.37 L41.6 210.19 L38.44 210.99 L40.54 207.37 ZM40.54
							 207.37 L38.43 210.99 L36.81 212.93 L40.54 207.37 ZM40.54 207.37 L36.81 212.93 L37.71 214.89 L40.54 207.37
							 ZM40.54 207.37 L37.72 214.89 L40.63 215.71 L40.54 207.37 ZM40.54 207.37 L40.63 215.71 L43.83 214.89
							 L40.54 207.37 ZM190.39 225.37 L191.2 223.34 L190.39 225.37 ZM187.61 217.83 L191.2 223.34 L189.47 221.32
							 L187.61 217.83 ZM187.61 217.83 L189.47 221.32 L186.24 220.49 L183.38 221.32 L187.61 217.83 ZM187.61
							 217.83 L183.37 221.32 L182.52 223.34 L187.61 217.83 ZM187.61 217.83 L182.53 223.34 L184.23 225.37 L187.61
							 217.83 ZM187.61 217.83 L184.23 225.37 L187.5 226.22 L187.61 217.83 ZM187.61 217.83 L187.49 226.22 L190.39
							 225.37 L187.61 217.83 ZM172 214.89 L172.9 212.93 L172 214.89 ZM169.17 207.37 L172.9 212.93 L171.28 210.99
							 L169.17 207.37 ZM169.17 207.37 L171.28 210.99 L168.12 210.19 L169.17 207.37 ZM169.17 207.37 L168.11
							 210.19 L165.22 210.99 L169.17 207.37 ZM169.17 207.37 L165.23 210.99 L164.3 212.93 L169.17 207.37 ZM169.17
							 207.37 L164.3 212.93 L165.88 214.89 L169.17 207.37 ZM169.17 207.37 L165.88 214.89 L169.08 215.71 L169.17
							 207.37 ZM169.17 207.37 L169.08 215.71 L171.99 214.89 L169.17 207.37 ZM154.63 205 L155.61 203.1 L154.63
							 205 ZM151.75 197.49 L155.61 203.1 L154.1 201.22 L151.75 197.49 ZM151.75 197.49 L154.1 201.23 L150.99
							 200.46 L151.75 197.49 ZM151.75 197.49 L150.99 200.45 L148.09 201.22 L151.75 197.49 ZM151.75 197.49 L148.09
							 201.23 L147.07 203.11 L151.75 197.49 ZM151.75 197.49 L147.07 203.1 L148.55 205 L151.75 197.49 ZM151.75
							 197.49 L148.55 205 L151.69 205.79 L151.75 197.49 ZM151.75 197.49 L151.69 205.79 L154.63 205 L151.75
							 197.49 ZM138.21 195.66 L139.28 193.82 L138.21 195.66 ZM135.29 188.14 L139.28 193.82 L137.86 192 L135.29
							 188.14 ZM135.29 188.14 L137.86 192 L134.8 191.25 L135.29 188.14 ZM135.29 188.14 L134.8 191.24 L131.87
							 191.99 L135.29 188.14 ZM135.29 188.14 L131.86 192 L130.76 193.82 L135.29 188.14 ZM135.29 188.14 L130.76
							 193.82 L132.16 195.66 L135.29 188.14 ZM135.29 188.14 L132.15 195.66 L135.24 196.43 L135.29 188.14 ZM135.29
							 188.14 L135.25 196.43 L138.21 195.66 L135.29 188.14 ZM122.64 186.81 L123.79 185.02 L122.64 186.81 ZM119.67
							 179.28 L123.8 185.02 L122.46 183.25 L119.67 179.28 ZM119.67 179.28 L122.46 183.25 L119.43 182.52 L116.47
							 183.25 L119.67 179.28 ZM119.67 179.28 L116.47 183.25 L119.67 179.28 ZM119.67 179.28 L115.29 185.02 L116.6
							 186.81 L119.67 179.28 ZM119.67 179.28 L116.6 186.81 L119.65 187.56 L119.67 179.28 ZM119.67 179.28 L119.65
							 187.56 L122.64 186.81 L119.67 179.28 ZM175.88 236.4 L176.76 234.31 L175.88 236.4 ZM173.05 228.92 L176.76
							 234.31 L175.11 232.25 L173.05 228.92 ZM173.05 228.92 L175.11 232.25 L171.92 231.4 L169.03 232.25 L173.05
							 228.92 ZM173.05 228.92 L169.04 232.25 L168.12 234.31 L173.05 228.92 ZM173.05 228.92 L168.11 234.31 L169.73
							 236.4 L173.05 228.92 ZM173.05 228.92 L169.73 236.4 L172.96 237.27 L173.05 228.92 ZM173.05 228.92 L172.96
							 237.28 L175.88 236.41 L173.05 228.92 ZM160.47 248.12 L161.44 245.97 L159.88 243.84 L160.47 248.12 ZM157.59
							 240.69 L159.87 243.85 L156.72 242.98 L157.59 240.69 ZM157.59 240.69 L156.72 242.97 L153.8 243.84 L157.59
							 240.69 ZM157.59 240.69 L153.8 243.85 L152.8 245.98 L157.59 240.69 ZM157.59 240.69 L152.8 245.97 L154.33
							 248.12 L157.59 240.69 ZM157.59 240.69 L154.32 248.12 L157.51 249.02 L157.59 240.69 ZM157.59 240.69 L157.52
							 249.02 L160.47 248.12 L157.59 240.69 ZM144.09 260.61 L145.14 258.39 L144.09 260.61 ZM141.14 253.22 L145.14
							 258.39 L143.67 256.2 L141.14 253.22 ZM141.14 253.22 L143.66 256.2 L140.54 255.3 L137.58 256.2 L141.14
							 253.22 ZM141.14 253.22 L137.58 256.2 L136.49 258.39 L141.14 253.22 ZM141.14 253.22 L136.5 258.39 L137.94
							 260.61 L141.14 253.22 ZM141.14 253.22 L137.94 260.61 L141.09 261.54 L141.14 253.22 ZM141.14 253.22 L141.09
							 261.54 L144.08 260.61 L141.14 253.22 ZM126.62 273.95 L127.77 271.65 L126.62 273.95 ZM123.6 266.59 L127.77
							 271.66 L126.38 269.38 L123.6 266.59 ZM123.6 266.59 L126.38 269.38 L123.29 268.45 L120.28 269.38 L123.6
							 266.59 ZM123.6 266.59 L120.28 269.38 L119.09 271.66 L123.6 266.59 ZM123.6 266.59 L119.1 271.66 L120.45
							 273.96 L123.6 266.59 ZM123.6 266.59 L120.45 273.96 L123.58 274.92 L123.6 266.59 ZM123.6 266.59 L123.58
							 274.91 L126.62 273.95 L123.6 266.59 ZM21.28 212.55 L19.93 210.76 L21.28 212.55 ZM22.11 217.83 L19.93
							 210.76 L17.29 211.16 L22.11 217.83 ZM22.11 217.83 L17.28 211.16 L14.9 213.54 L22.11 217.83 ZM22.11 217.83
							 L14.9 213.55 L14.2 216.5 L22.11 217.83 L14.2 216.5 L15.59 218.27 L22.11 217.83 ZM22.11 217.83 L15.59
							 218.26 L18.23 217.82 L22.11 217.83 ZM22.11 217.83 L18.23 217.82 L20.57 215.46 L22.11 217.83 ZM22.11
							 217.83 L20.57 215.46 L21.28 212.55 L22.11 217.83 ZM18.82 194.41 L17.46 192.53 L18.82 194.41 ZM19.62
							 199.42 L17.46 192.53 L14.81 192.83 L19.62 199.42 ZM19.62 199.42 L14.81 192.84 L12.43 195.18 L19.62 199.42
							 ZM19.62 199.42 L12.43 195.17 L11.73 198.15 L19.62 199.42 ZM19.62 199.42 L11.73 198.16 L13.13 200.02
							 L19.62 199.42 ZM19.62 199.42 L13.13 200.02 L15.78 199.67 L19.62 199.42 ZM19.62 199.42 L15.78 199.67
							 L18.12 197.36 L19.62 199.42 ZM19.62 199.42 L18.12 197.36 L18.82 194.41 L19.62 199.42 ZM16.21 175.15
							 L14.83 173.17 L16.21 175.15 ZM16.97 179.87 L14.83 173.17 L12.16 173.37 L16.97 179.87 ZM16.97 179.87
							 L12.17 173.36 L9.78 175.66 L16.97 179.87 ZM16.97 179.87 L9.78 175.66 L9.09 178.69 L16.97 179.87 ZM16.97
							 179.87 L9.09 178.69 L10.5 180.64 L16.97 179.87 ZM16.97 179.87 L10.51 180.64 L13.17 180.4 L16.97 179.87
							 ZM16.97 179.87 L13.17 180.4 L15.52 178.14 L16.97 179.87 ZM16.97 179.87 L15.52 178.14 L16.21 175.15 L16.97
							 179.87 ZM13.43 154.64 L12.04 152.54 L13.43 154.64 ZM14.15 159.07 L12.04 152.53 L9.36 152.62 L14.15 159.07
							 ZM14.15 159.07 L9.35 152.62 L6.95 154.87 L14.15 159.07 ZM14.15 159.07 L6.95 154.87 L6.27 157.95 L14.15
							 159.07 ZM14.15 159.07 L6.27 157.95 L7.7 160.03 L14.15 159.07 ZM14.15 159.07 L7.7 160.03 L10.38 159.91
							 L14.15 159.07 ZM14.15 159.07 L10.38 159.91 L12.74 157.68 L14.15 159.07 ZM14.15 159.07 L12.74 157.67
							 L13.43 154.63 L14.15 159.07 ZM10.46 132.75 L9.05 130.52 L10.46 132.75 ZM11.15 136.89 L9.05 130.53 L6.34
							 130.5 L11.15 136.89 ZM11.15 136.89 L6.34 130.5 L3.92 132.7 L11.15 136.89 ZM11.15 136.89 L3.92 132.7
							 L3.24 135.85 L11.15 136.89 ZM11.15 136.89 L3.25 135.85 L4.71 138.06 L11.15 136.89 ZM11.15 136.89 L4.7
							 138.06 L7.4 138.05 L11.15 136.89 ZM11.15 136.89 L7.4 138.05 L9.78 135.86 L11.15 136.89 ZM11.15 136.89
							 L9.78 135.86 L10.46 132.76 L11.15 136.89 ZM7.29 109.37 L5.85 107 L7.29 109.37 ZM7.94 113.19 L5.86 107
							 L3.11 106.84 L7.94 113.19 ZM7.94 113.19 L3.11 106.84 L0.67 109.01 L7.94 113.19 ZM7.94 113.19 L0.67 109.01
							 L0 112.23 L7.94 113.19 ZM7.94 113.19 L0 112.22 L1.48 114.57 L7.94 113.19 ZM7.94 113.19 L1.48 114.58
							 L4.22 114.7 L7.94 113.19 ZM7.94 113.19 L4.22 114.7 L6.62 112.55 L7.94 113.19 ZM7.94 113.19 L6.61 112.55
							 L7.29 109.37 L7.94 113.19 ZM102.82 71.43 L101.91 68.87 L102.82 71.43 ZM104.86 74.67 L101.91 68.87 L99.71
							 68.5 L104.86 74.67 ZM104.86 74.67 L99.71 68.5 L97.51 70.57 L104.86 74.67 ZM104.86 74.67 L97.5 70.57
							 L96.61 73.85 L104.86 74.67 ZM104.86 74.67 L96.61 73.86 L97.56 76.41 L104.86 74.67 ZM104.86 74.67 L97.56
							 76.4 L99.76 76.72 L104.86 74.67 ZM104.86 74.67 L99.76 76.73 L101.93 74.67 L104.86 74.67 ZM104.86 74.67
							 L101.94 74.67 L102.83 71.43 L104.86 74.67 ZM86.03 78.12 L85.03 75.6 L86.03 78.12 ZM87.82 81.45 L85.03
							 75.61 L82.74 75.28 L87.82 81.45 Z" class="st20"/>
				<path d="M104.86 280.87 L109.22 285.84 L107.93 283.48M104.86 280.87 L107.92 283.47 L104.86 282.5 L101.79 283.47M104.86
							 280.87 L101.79 283.47 L100.5 285.83M104.86 280.87 L100.5 285.84 L101.76 288.23M104.86 280.87 L101.76
							 288.22 L104.86 289.22M104.86 280.87 L104.86 289.22 L107.96 288.22 L104.86 280.87M89.27 273.95 L90.61
							 271.65M86.12 266.59 L90.61 271.66 L89.42 269.38M86.12 266.59 L89.43 269.38 L86.43 268.45 L83.34 269.38M86.12
							 266.59 L83.34 269.38 L81.95 271.66M86.12 266.59 L81.95 271.66 L83.1 273.96M86.12 266.59 L83.1 273.96
							 L86.14 274.92M86.12 266.59 L86.14 274.91 L89.27 273.95 L86.12 266.59M71.78 260.61 L73.22 258.39M68.58
							 253.22 L73.22 258.39 L72.13 256.2M68.58 253.22 L72.14 256.2 L69.18 255.3 L66.06 256.2M68.58 253.22 L66.06
							 256.2 L64.58 258.39M68.58 253.22 L64.58 258.39 L65.64 260.61M68.58 253.22 L65.64 260.61 L68.63 261.54M68.58
							 253.22 L68.63 261.54 L71.78 260.61 L68.58 253.22M55.38 248.12 L56.91 245.97M52.12 240.69 L56.91 245.97
							 L55.91 243.84M52.12 240.69 L55.91 243.85 L52.99 242.98 L49.84 243.85M52.12 240.69 L48.28 245.97 L49.25
							 248.12M52.12 240.69 L49.24 248.12 L52.19 249.02M52.12 240.69 L52.19 249.02 L55.38 248.12 L52.12 240.69M39.98
							 236.4 L41.6 234.31M36.66 228.92 L41.6 234.31 L40.68 232.25M36.66 228.92 L40.67 232.25 L37.78 231.4M36.66
							 228.92 L37.78 231.4 L34.59 232.25M36.66 228.92 L34.6 232.25M36.66 228.92 L32.95 234.31 L33.83 236.4M36.66
							 228.92 L33.83 236.4 L36.75 237.27M36.66 228.92 L36.75 237.28 L39.98 236.41 L36.66 228.92M25.49 225.37
							 L27.19 223.34M22.11 217.83 L27.19 223.34 L26.35 221.32M22.11 217.83 L26.35 221.32 L23.48 220.49M22.11
							 217.83 L23.48 220.5 L20.25 221.33M22.11 217.83 L20.25 221.32 L18.52 223.34M22.11 217.83 L18.52 223.34
							 L19.33 225.37M22.11 217.83 L19.33 225.37 L22.23 226.22M22.11 217.83 L22.23 226.22 L25.5 225.37 L22.11
							 217.83M107.88 178.44 L109.11 176.7 L107.85 174.97M104.86 170.88 L107.85 174.97 L104.86 174.26 L101.87
							 174.97M104.86 170.88 L100.61 176.7 L101.84 178.44M104.86 170.88 L101.83 178.44 L104.86 179.17M104.86
							 170.88 L104.86 179.17 L107.88 178.44 L104.86 170.88M90.04 179.28 L93.11 186.81 L94.42 185.02M90.04 179.28
							 L94.42 185.02 L93.23 183.25M90.04 179.28 L93.24 183.25 L90.28 182.52 L87.26 183.25M90.04 179.28 L87.26
							 183.25M90.04 179.28 L85.92 185.02 L87.07 186.81M90.04 179.28 L87.08 186.81 L90.06 187.56M90.04 179.28
							 L90.06 187.56 L93.11 186.81 L90.04 179.28M77.57 195.66 L78.96 193.82M74.43 188.14 L78.96 193.82 L77.86
							 192M74.43 188.14 L77.86 192 L74.93 191.25M74.43 188.14 L74.92 191.24 L71.86 191.99M70.44 193.82 L74.43
							 188.14 L70.44 193.82 L71.51 195.66M74.43 188.14 L71.51 195.66 L74.47 196.43M74.43 188.14 L74.47 196.43
							 L77.56 195.66 L74.43 188.14M61.16 205 L62.65 203.1M57.95 197.49 L62.65 203.1 L61.63 201.22M57.95 197.49
							 L61.62 201.23 L58.71 200.46M57.95 197.49 L58.72 200.45 L55.61 201.22M57.95 197.49 L55.61 201.23 L54.09
							 203.11M57.95 197.49 L54.09 203.1 L55.07 205M57.95 197.49 L55.08 205 L58.02 205.79M57.95 197.49 L58.02
							 205.79 L61.16 205 L57.95 197.49M43.83 214.89 L45.41 212.93M40.54 207.37 L45.41 212.93 L44.48 210.99M40.54
							 207.37 L44.48 210.99 L41.59 210.19M40.54 207.37 L41.6 210.19 L38.44 210.99M40.54 207.37 L38.43 210.99
							 L36.81 212.93M40.54 207.37 L36.81 212.93 L37.71 214.89M40.54 207.37 L37.72 214.89 L40.63 215.71M40.54
							 207.37 L40.63 215.71 L43.83 214.89 L40.54 207.37M190.39 225.37 L191.2 223.34M187.61 217.83 L191.2 223.34
							 L189.47 221.32M187.61 217.83 L189.47 221.32 L186.24 220.49 L183.38 221.32M187.61 217.83 L183.37 221.32
							 L182.52 223.34M187.61 217.83 L182.53 223.34 L184.23 225.37M187.61 217.83 L184.23 225.37 L187.5 226.22M187.61
							 217.83 L187.49 226.22 L190.39 225.37 L187.61 217.83M172 214.89 L172.9 212.93M169.17 207.37 L172.9 212.93
							 L171.28 210.99M169.17 207.37 L171.28 210.99 L168.12 210.19M169.17 207.37 L168.11 210.19 L165.22 210.99M169.17
							 207.37 L165.23 210.99 L164.3 212.93M169.17 207.37 L164.3 212.93 L165.88 214.89M169.17 207.37 L165.88
							 214.89 L169.08 215.71M169.17 207.37 L169.08 215.71 L171.99 214.89 L169.17 207.37M154.63 205 L155.61
							 203.1M151.75 197.49 L155.61 203.1 L154.1 201.22M151.75 197.49 L154.1 201.23 L150.99 200.46M151.75 197.49
							 L150.99 200.45 L148.09 201.22M151.75 197.49 L148.09 201.23 L147.07 203.11M151.75 197.49 L147.07 203.1
							 L148.55 205M151.75 197.49 L148.55 205 L151.69 205.79M151.75 197.49 L151.69 205.79 L154.63 205 L151.75
							 197.49M138.21 195.66 L139.28 193.82M135.29 188.14 L139.28 193.82 L137.86 192M135.29 188.14 L137.86 192
							 L134.8 191.25M135.29 188.14 L134.8 191.24 L131.87 191.99M135.29 188.14 L131.86 192 L130.76 193.82M135.29
							 188.14 L130.76 193.82 L132.16 195.66M135.29 188.14 L132.15 195.66 L135.24 196.43M135.29 188.14 L135.25
							 196.43 L138.21 195.66 L135.29 188.14M122.64 186.81 L123.79 185.02M119.67 179.28 L123.8 185.02 L122.46
							 183.25M119.67 179.28 L122.46 183.25 L119.43 182.52 L116.47 183.25M119.67 179.28 L116.47 183.25M119.67
							 179.28 L115.29 185.02 L116.6 186.81M119.67 179.28 L116.6 186.81 L119.65 187.56M119.67 179.28 L119.65
							 187.56 L122.64 186.81 L119.67 179.28M175.88 236.4 L176.76 234.31M173.05 228.92 L176.76 234.31 L175.11
							 232.25M173.05 228.92 L175.11 232.25 L171.92 231.4 L169.03 232.25M173.05 228.92 L169.04 232.25 L168.12
							 234.31M173.05 228.92 L168.11 234.31 L169.73 236.4M173.05 228.92 L169.73 236.4 L172.96 237.27M173.05
							 228.92 L172.96 237.28 L175.88 236.41 L173.05 228.92M160.47 248.12 L161.44 245.97 L159.88 243.84M157.59
							 240.69 L159.87 243.85 L156.72 242.98M157.59 240.69 L156.72 242.97 L153.8 243.84M157.59 240.69 L153.8
							 243.85 L152.8 245.98M157.59 240.69 L152.8 245.97 L154.33 248.12M157.59 240.69 L154.32 248.12 L157.51
							 249.02M157.59 240.69 L157.52 249.02 L160.47 248.12 L157.59 240.69M144.09 260.61 L145.14 258.39M141.14
							 253.22 L145.14 258.39 L143.67 256.2M141.14 253.22 L143.66 256.2 L140.54 255.3 L137.58 256.2M141.14 253.22
							 L137.58 256.2 L136.49 258.39M141.14 253.22 L136.5 258.39 L137.94 260.61M141.14 253.22 L137.94 260.61
							 L141.09 261.54M141.14 253.22 L141.09 261.54 L144.08 260.61 L141.14 253.22M126.62 273.95 L127.77 271.65M123.6
							 266.59 L127.77 271.66 L126.38 269.38M123.6 266.59 L126.38 269.38 L123.29 268.45 L120.28 269.38M123.6
							 266.59 L120.28 269.38 L119.09 271.66M123.6 266.59 L119.1 271.66 L120.45 273.96M123.6 266.59 L120.45
							 273.96 L123.58 274.92M123.6 266.59 L123.58 274.91 L126.62 273.95 L123.6 266.59M21.28 212.55 L19.93 210.76M22.11
							 217.83 L19.93 210.76 L17.29 211.16M22.11 217.83 L17.28 211.16 L14.9 213.54M22.11 217.83 L14.9 213.55
							 L14.2 216.5 L22.11 217.83 L14.2 216.5 L15.59 218.27M22.11 217.83 L15.59 218.26 L18.23 217.82M22.11 217.83
							 L18.23 217.82 L20.57 215.46M22.11 217.83 L20.57 215.46 L21.28 212.55 L22.11 217.83M18.82 194.41 L17.46
							 192.53M19.62 199.42 L17.46 192.53 L14.81 192.83M19.62 199.42 L14.81 192.84 L12.43 195.18M19.62 199.42
							 L12.43 195.17 L11.73 198.15M19.62 199.42 L11.73 198.16 L13.13 200.02M19.62 199.42 L13.13 200.02 L15.78
							 199.67M19.62 199.42 L15.78 199.67 L18.12 197.36M19.62 199.42 L18.12 197.36 L18.82 194.41 L19.62 199.42M16.21
							 175.15 L14.83 173.17M16.97 179.87 L14.83 173.17 L12.16 173.37M16.97 179.87 L12.17 173.36 L9.78 175.66M16.97
							 179.87 L9.78 175.66 L9.09 178.69M16.97 179.87 L9.09 178.69 L10.5 180.64M16.97 179.87 L10.51 180.64 L13.17
							 180.4M16.97 179.87 L13.17 180.4 L15.52 178.14M16.97 179.87 L15.52 178.14 L16.21 175.15 L16.97 179.87M13.43
							 154.64 L12.04 152.54M14.15 159.07 L12.04 152.53 L9.36 152.62M14.15 159.07 L9.35 152.62 L6.95 154.87M14.15
							 159.07 L6.95 154.87 L6.27 157.95M14.15 159.07 L6.27 157.95 L7.7 160.03M14.15 159.07 L7.7 160.03 L10.38
							 159.91M14.15 159.07 L10.38 159.91 L12.74 157.68M14.15 159.07 L12.74 157.67 L13.43 154.63 L14.15 159.07M10.46
							 132.75 L9.05 130.52M11.15 136.89 L9.05 130.53 L6.34 130.5M11.15 136.89 L6.34 130.5 L3.92 132.7M11.15
							 136.89 L3.92 132.7 L3.24 135.85M11.15 136.89 L3.25 135.85 L4.71 138.06M11.15 136.89 L4.7 138.06 L7.4
							 138.05M11.15 136.89 L7.4 138.05 L9.78 135.86M11.15 136.89 L9.78 135.86 L10.46 132.76 L11.15 136.89M7.29
							 109.37 L5.85 107M7.94 113.19 L5.86 107 L3.11 106.84M7.94 113.19 L3.11 106.84 L0.67 109.01M7.94 113.19
							 L0.67 109.01 L0 112.23M7.94 113.19 L0 112.22 L1.48 114.57M7.94 113.19 L1.48 114.58 L4.22 114.7M7.94
							 113.19 L4.22 114.7 L6.62 112.55M7.94 113.19 L6.61 112.55 L7.29 109.37 L7.94 113.19M102.82 71.43 L101.91
							 68.87M104.86 74.67 L101.91 68.87 L99.71 68.5M104.86 74.67 L99.71 68.5 L97.51 70.57M104.86 74.67 L97.5
							 70.57 L96.61 73.85M104.86 74.67 L96.61 73.86 L97.56 76.41M104.86 74.67 L97.56 76.4 L99.76 76.72M104.86
							 74.67 L99.76 76.73 L101.93 74.67M104.86 74.67 L101.94 74.67 L102.83 71.43 L104.86 74.67M86.03 78.12
							 L85.03 75.6M87.82 81.45 L85.03 75.61 L82.74 75.28" class="st21"/>
			</g>
			<g id="shape6053-155" v:mID="6053" v:groupContext="shape" transform="translate(399.408,-78.0434)">
				<title>工作表.6053</title>
				<path d="M65.91 152.41 L60.83 146.23 L58.59 148.31 L65.91 152.41 ZM65.91 152.41 L58.6 148.31 L57.75 151.57 L65.91
							 152.41 ZM65.91 152.41 L57.75 151.57 L58.79 154.08 L65.91 152.41 ZM65.91 152.41 L58.78 154.08 L61.07
							 154.37 L65.91 152.41 ZM65.91 152.41 L61.07 154.36 L63.27 152.3 L65.91 152.41 ZM65.91 152.41 L63.27 152.3
							 L64.12 149.08 L65.91 152.41 ZM47.79 159.61 L45.17 153.7 L42.78 153.41 L47.79 159.61 ZM47.79 159.61 L42.79
							 153.41 L40.51 155.5 L47.79 159.61 ZM47.79 159.61 L40.51 155.5 L39.7 158.74 L47.79 159.61 ZM47.79 159.61
							 L39.7 158.75 L40.83 161.21 L47.79 159.61 ZM47.79 159.61 L40.84 161.21 L43.22 161.46 L47.79 159.61 ZM47.79
							 159.61 L43.22 161.46 L45.46 159.38 L47.79 159.61 ZM47.79 159.61 L45.46 159.38 L46.27 156.18 L47.79 159.61
							 ZM27.29 163.72 L26.09 161.28 L27.29 163.72 ZM28.53 167.26 L26.09 161.28 L23.59 161.03 L28.53 167.26
							 ZM28.53 167.26 L23.59 161.03 L21.27 163.14 L28.53 167.26 ZM28.53 167.26 L21.27 163.14 L20.51 166.37
							 L28.53 167.26 ZM28.53 167.26 L20.51 166.37 L21.74 168.8 L28.53 167.26 ZM28.53 167.26 L21.74 168.79 L24.23
							 169 L28.53 167.26 ZM28.53 167.26 L24.23 169 L26.52 166.9 L28.53 167.26 ZM28.53 167.26 L26.52 166.9 L27.29
							 163.72 L28.53 167.26 ZM7.03 171.75 L5.71 169.35 L7.03 171.75 ZM7.98 175.43 L5.71 169.36 L3.1 169.15
							 L7.98 175.43 ZM7.98 175.43 L3.1 169.15 L0.72 171.29 L7.98 175.43 ZM7.98 175.43 L0.72 171.29 L0 174.51
							 L7.98 175.43 ZM7.98 175.43 L0 174.5 L1.35 176.89 L7.98 175.43 ZM7.98 175.43 L1.36 176.89 L3.97 177.06
							 L7.98 175.43 ZM7.98 175.43 L3.97 177.06 L6.3 174.94 L7.98 175.43 ZM7.98 175.43 L6.3 174.94 L7.03 171.76
							 L7.98 175.43 ZM82.96 241.83 L80.08 235.32 L77.93 235.47 L82.96 241.83 ZM82.96 241.83 L77.93 235.47 L75.78
							 237.7 L82.96 241.83 ZM82.96 241.83 L75.78 237.71 L74.91 240.7 L82.96 241.83 ZM82.96 241.83 L74.91 240.69
							 L75.83 242.66 L82.96 241.83 ZM82.96 241.83 L75.83 242.67 L77.98 242.49 L82.96 241.83 ZM82.96 241.83
							 L77.98 242.48 L80.1 240.27 L82.96 241.83 ZM82.96 241.83 L80.1 240.27 L80.97 237.32 L82.96 241.83 ZM82.96
							 224.61 L80.08 218.24 L77.92 218.3 L82.96 224.61 ZM82.96 224.61 L77.92 218.3 L75.76 220.49 L82.96 224.61
							 ZM82.96 224.61 L75.77 220.49 L74.9 223.53 L82.96 224.61 ZM82.96 224.61 L74.9 223.53 L75.83 225.6 L82.96
							 224.61 ZM82.96 224.61 L75.82 225.6 L77.97 225.5 L82.96 224.61 ZM82.96 224.61 L77.98 225.51 L80.1 223.33
							 L82.96 224.61 ZM82.96 224.61 L80.1 223.33 L80.97 220.33 L82.96 224.61 ZM82.96 206.46 L80.07 200.23 L77.91
							 200.19 L82.96 206.46 ZM82.96 206.46 L77.91 200.19 L75.75 202.36 L82.96 206.46 ZM82.96 206.46 L75.75
							 202.36 L74.88 205.44 L82.96 206.46 ZM82.96 206.46 L74.88 205.44 L75.81 207.61 L82.96 206.46 ZM82.96
							 206.46 L75.8 207.61 L77.96 207.61 L82.96 206.46 ZM82.96 206.46 L77.96 207.61 L80.09 205.47 L82.96 206.46
							 ZM82.96 206.46 L80.09 205.47 L80.96 202.42 L82.96 206.46 ZM80.95 183.52 L80.05 181.22 L80.95 183.52
							 ZM82.96 187.3 L80.05 181.22 L77.88 181.08 L82.96 187.3 ZM82.96 187.3 L77.89 181.08 L75.72 183.21 L82.96
							 187.3 ZM82.96 187.3 L75.72 183.21 L74.84 186.35 L82.96 187.3 ZM82.96 187.3 L74.84 186.35 L75.77 188.64
							 L82.96 187.3 ZM82.96 187.3 L75.77 188.63 L77.94 188.73 L82.96 187.3 ZM82.96 187.3 L77.94 188.74 L80.08
							 186.63 L82.96 187.3 ZM82.96 187.3 L80.08 186.62 L80.95 183.52 L82.96 187.3 ZM80.94 163.55 L80.04 161.12
							 L80.94 163.55 ZM82.96 167.06 L80.04 161.12 L77.86 160.87 L82.96 167.06 ZM82.96 167.06 L77.86 160.87
							 L75.68 162.97 L82.96 167.06 ZM82.96 167.06 L75.67 162.97 L74.79 166.18 L82.96 167.06 ZM82.96 167.06
							 L74.79 166.18 L75.73 168.59 L82.96 167.06 ZM82.96 167.06 L75.72 168.58 L77.9 168.79 L82.96 167.06 ZM82.96
							 167.06 L77.91 168.79 L80.06 166.71 L82.96 167.06 ZM82.96 167.06 L80.06 166.71 L80.94 163.55 L82.96 167.06
							 ZM68.14 250.24 L65.39 243.65 L63.16 243.84 L68.14 250.24 ZM68.14 250.24 L63.16 243.84 L60.97 246.09
							 L68.14 250.24 ZM68.14 250.24 L60.97 246.09 L60.13 249.07 L68.14 250.24 ZM68.14 250.24 L60.13 249.07
							 L61.13 251.01 L63.36 250.78 L68.14 250.24 ZM68.14 250.24 L63.37 250.77 L65.52 248.54 L68.14 250.24 ZM68.14
							 250.24 L65.52 248.54 L66.36 245.6 L68.14 250.24 ZM50.96 254.33 L49.91 252.42 L50.96 254.33 ZM52.52 259.1
							 L49.91 252.42 L47.59 252.66 L52.52 259.1 ZM52.52 259.1 L47.59 252.66 L45.36 254.94 L52.52 259.1 ZM52.52
							 259.1 L45.36 254.93 L44.56 257.89 L52.52 259.1 ZM52.52 259.1 L44.56 257.89 L45.65 259.78 L47.97 259.5
							 L52.52 259.1 ZM52.52 259.1 L47.96 259.51 L50.15 257.25 L52.52 259.1 ZM52.52 259.1 L50.15 257.25 L50.96
							 254.33 L52.52 259.1 ZM34.71 263.52 L33.57 261.65 L34.71 263.52 ZM36.04 268.45 L33.57 261.66 L31.15 261.95
							 L36.04 268.45 ZM36.04 268.45 L31.15 261.95 L28.89 264.26 L36.04 268.45 ZM36.04 268.45 L28.89 264.25
							 L28.12 267.21 L36.04 268.45 ZM36.04 268.45 L28.12 267.21 L29.3 269.05 L36.04 268.45 ZM36.04 268.45 L29.3
							 269.06 L31.71 268.73 L36.04 268.45 ZM36.04 268.45 L31.7 268.73 L33.93 266.44 L36.04 268.45 ZM36.04 268.45
							 L33.94 266.44 L34.71 263.52 L36.04 268.45 ZM17.55 273.24 L16.31 271.42 L17.55 273.24 ZM18.64 278.33
							 L16.31 271.41 L13.79 271.76 L18.64 278.33 ZM18.64 278.33 L13.79 271.76 L11.47 274.1 L18.64 278.33 ZM18.64
							 278.33 L11.46 274.09 L10.73 277.04 L18.64 278.33 ZM18.64 278.33 L10.73 277.04 L12.01 278.85 L18.64 278.33
							 ZM18.64 278.33 L12 278.85 L14.52 278.47 L18.64 278.33 L14.52 278.47 L16.81 276.15 L18.64 278.33 ZM18.64
							 278.33 L16.81 276.15 L17.55 273.24 L18.64 278.33 ZM173.61 287.46 L172.91 284.51 L173.61 287.46 ZM165.7
							 288.79 L172.91 284.51 L170.53 282.13 L165.7 288.79 ZM165.7 288.79 L170.53 282.12 L167.89 281.72 L165.7
							 288.79 ZM165.7 288.79 L167.88 281.72 L166.53 283.51 L165.7 288.79 ZM165.7 288.79 L166.54 283.51 L167.25
							 286.42 L165.7 288.79 ZM165.7 288.79 L167.24 286.42 L169.58 288.78 L165.7 288.79 ZM165.7 288.79 L169.58
							 288.78 L172.22 289.22 L165.7 288.79 ZM165.7 288.79 L172.22 289.22 L173.61 287.45 L165.7 288.79 ZM155.18
							 277.04 L154.45 274.09 L155.18 277.04 ZM147.27 278.33 L154.44 274.09 L152.12 271.75 L147.27 278.33 ZM147.27
							 278.33 L152.12 271.76 L149.59 271.41 L147.27 278.33 ZM147.27 278.33 L149.59 271.41 L148.36 273.23 L147.27
							 278.33 ZM147.27 278.33 L148.36 273.23 L149.09 276.14 L147.27 278.33 ZM147.27 278.33 L149.09 276.15 L151.37
							 278.47 L147.27 278.33 ZM147.27 278.33 L151.38 278.47 L147.27 278.33 ZM147.27 278.33 L153.9 278.85 L155.18
							 277.04 L147.27 278.33 ZM137.79 267.21 L137.02 264.25 L137.79 267.21 ZM129.85 268.45 L137.01 264.25 L134.74
							 261.94 L129.85 268.45 ZM129.85 268.45 L134.74 261.95 L132.32 261.66 L129.85 268.45 ZM129.85 268.45 L132.33
							 261.66 L131.19 263.53 L129.85 268.45 ZM129.85 268.45 L131.18 263.52 L131.95 266.44 L129.85 268.45 ZM129.85
							 268.45 L131.96 266.44 L134.2 268.73 L136.61 269.06 L129.85 268.45 ZM129.85 268.45 L136.61 269.06 L137.79
							 267.22 L129.85 268.45 ZM121.34 257.89 L120.54 254.93 L121.34 257.89 ZM113.38 259.1 L120.54 254.93 L118.31
							 252.65 L113.38 259.1 ZM113.38 259.1 L118.31 252.66 L115.99 252.42 L113.38 259.1 ZM113.38 259.1 L115.99
							 252.42 L114.94 254.33 L113.38 259.1 ZM113.38 259.1 L114.94 254.33 L115.75 257.25 L113.38 259.1 ZM113.38
							 259.1 L115.75 257.25 L117.94 259.51 L113.38 259.1 ZM113.38 259.1 L120.26 259.79 L121.35 257.9 L113.38
							 259.1 ZM105.77 249.07 L104.93 246.09 L105.77 249.07 ZM97.76 250.24 L104.92 246.09 L102.74 243.84 L97.76
							 250.24 ZM97.76 250.24 L102.74 243.84 L100.51 243.65 L97.76 250.24 ZM97.76 250.24 L100.51 243.65 L99.54
							 245.6 L97.76 250.24 ZM97.76 250.24 L99.54 245.6 L100.38 248.54 L97.76 250.24 ZM97.76 250.24 L100.38
							 248.54 L102.53 250.77 L97.76 250.24 ZM97.76 250.24 L102.53 250.77 L97.76 250.24 ZM97.76 250.24 L104.76
							 251 L105.76 249.06 L97.76 250.24 ZM91 240.69 L90.13 237.7 L91 240.69 ZM82.96 241.83 L90.13 237.71 L87.99
							 235.48 L82.96 241.83 ZM82.96 241.83 L87.99 235.47 L85.84 235.32 L84.95 237.32 L82.96 241.83 ZM82.96
							 241.83 L84.94 237.32 L85.81 240.27 L82.96 241.83 ZM82.96 241.83 L85.81 240.27 L87.93 242.48 L82.96 241.83
							 ZM82.96 241.83 L87.93 242.48 L90.07 242.66 L82.96 241.83 ZM82.96 241.83 L90.08 242.67 L91 240.7 L82.96
							 241.83 ZM91.01 223.54 L90.14 220.5 L91.01 223.54 ZM82.96 224.61 L90.14 220.49 L87.99 218.3 L82.96 224.61
							 ZM82.96 224.61 L87.99 218.3 L85.83 218.24 L82.96 224.61 ZM82.96 224.61 L85.84 218.24 L84.95 220.33 L82.96
							 224.61 ZM82.96 224.61 L84.95 220.33 L85.82 223.33 L82.96 224.61 ZM82.96 224.61 L85.82 223.33 L87.94
							 225.51 L82.96 224.61 ZM82.96 224.61 L87.94 225.51 L82.96 224.61 ZM82.96 224.61 L90.08 225.6 L91.01 223.53
							 L82.96 224.61 ZM91.02 205.44 L90.15 202.36 L82.95 206.46 L90.15 202.36 L88 200.19 L91.02 205.44 ZM82.96
							 206.46 L88.01 200.19 L85.85 200.23 L82.96 206.46 ZM82.96 206.46 L85.85 200.23 L84.96 202.42 L82.96 206.46
							 ZM82.96 206.46 L84.95 202.42 L85.82 205.47 L82.96 206.46 ZM82.96 206.46 L85.82 205.47 L87.95 207.61
							 L82.96 206.46 ZM82.96 206.46 L87.95 207.61 L90.1 207.61 L82.96 206.46 ZM82.96 206.46 L90.1 207.61 L91.03
							 205.44 L82.96 206.46 ZM91.06 186.35 L90.18 183.21 L91.06 186.35 ZM82.96 187.3 L90.19 183.21 L88.03 181.08
							 L82.96 187.3 ZM82.96 187.3 L88.03 181.08 L85.86 181.22 L82.96 187.3 ZM82.96 187.3 L85.86 181.22 L84.96
							 183.52 L82.96 187.3 ZM82.96 187.3 L84.96 183.52 L85.84 186.62 L82.96 187.3 ZM82.96 187.3 L85.84 186.62
							 L87.98 188.73 L82.96 187.3 ZM82.96 187.3 L87.97 188.74 L90.13 188.64 L82.96 187.3 ZM82.96 187.3 L90.13
							 188.63 L91.06 186.34 L82.96 187.3 ZM91.12 166.18 L90.24 162.97 L91.12 166.18 ZM82.96 167.06 L90.23 162.97
							 L88.06 160.87 L82.96 167.06 ZM82.96 167.06 L88.06 160.87 L85.88 161.12 L82.96 167.06 ZM82.96 167.06
							 L85.87 161.12 L84.97 163.55 L82.96 167.06 ZM82.96 167.06 L84.97 163.54 L85.85 166.7 L88 168.78 L82.96
							 167.06 ZM82.96 167.06 L88.01 168.79 L90.18 168.58 L82.96 167.06 ZM82.96 167.06 L90.18 168.58 L91.12
							 166.17 L82.96 167.06 ZM91.19 144.82 L90.3 141.54 L91.19 144.82 ZM82.96 145.63 L90.3 141.53 L88.11 139.46
							 L82.96 145.63 ZM82.96 145.63 L88.11 139.46 L85.91 139.83 L82.96 145.63 ZM82.96 145.63 L85.9 139.83 L84.99
							 142.39 L82.96 145.63 ZM82.96 145.63 L84.99 142.39 L85.88 145.63 L82.96 145.63 ZM82.96 145.63 L85.88
							 145.63 L88.05 147.69 L82.96 145.63 ZM82.96 145.63 L88.05 147.69 L90.24 147.37 L82.96 145.63 ZM82.96
							 145.63 L90.24 147.36 L91.19 144.81 L82.96 145.63 ZM108.16 151.57 L107.31 148.31 L108.16 151.57 ZM100
							 152.41 L107.31 148.31 L105.07 146.23 L100 152.41 ZM100 152.41 L105.08 146.23 L102.79 146.56 L100 152.41
							 ZM100 152.41 L102.79 146.57 L101.79 149.09 L100 152.41 ZM100 152.41 L101.78 149.08 L102.63 152.3 L100
							 152.41 ZM100 152.41 L102.63 152.3 L104.83 154.36 L100 152.41 ZM100 152.41 L104.84 154.36 L107.13 154.07
							 L100 152.41 ZM100 152.41 L107.13 154.08 L108.17 151.57 L100 152.41 ZM126.2 158.74 L125.39 155.5 L126.2
							 158.74 ZM118.1 159.61 L125.38 155.5 L123.1 153.41 L118.1 159.61 ZM118.1 159.61 L123.11 153.41 L120.72
							 153.7 L119.62 156.17 L118.1 159.61 ZM118.1 159.61 L119.62 156.18 L120.43 159.38 L118.1 159.61 ZM118.1
							 159.61 L120.43 159.38 L122.67 161.46 L118.1 159.61 ZM118.1 159.61 L122.68 161.46 L125.06 161.21 L118.1
							 159.61 ZM118.1 159.61 L125.06 161.21 L126.19 158.75 L118.1 159.61 ZM145.4 166.37 L144.64 163.14 L145.4
							 166.37 ZM137.38 167.26 L144.64 163.14 L142.32 161.03 L137.38 167.26 ZM137.38 167.26 L142.32 161.03 L139.82
							 161.28 L137.38 167.26 ZM137.38 167.26 L139.82 161.28 L138.62 163.72 L137.38 167.26 ZM137.38 167.26 L138.62
							 163.72 L139.39 166.9 L137.38 167.26 ZM137.38 167.26 L139.39 166.9 L141.68 169 L137.38 167.26 ZM137.38
							 167.26 L141.68 169 L144.17 168.79 L137.38 167.26 ZM137.38 167.26 L144.17 168.79 L145.41 166.36 L137.38
							 167.26 Z" class="st20"/>
				<path d="M65.91 152.41 L60.83 146.23 L58.59 148.31M65.91 152.41 L58.6 148.31 L57.75 151.57M65.91 152.41 L57.75 151.57
							 L58.79 154.08M65.91 152.41 L58.78 154.08 L61.07 154.37M65.91 152.41 L61.07 154.36 L63.27 152.3M65.91
							 152.41 L63.27 152.3 L64.12 149.08 L65.91 152.41M47.79 159.61 L45.17 153.7 L42.78 153.41M47.79 159.61
							 L42.79 153.41 L40.51 155.5M47.79 159.61 L40.51 155.5 L39.7 158.74M47.79 159.61 L39.7 158.75 L40.83 161.21M47.79
							 159.61 L40.84 161.21 L43.22 161.46M47.79 159.61 L43.22 161.46 L45.46 159.38M47.79 159.61 L45.46 159.38
							 L46.27 156.18 L47.79 159.61M27.29 163.72 L26.09 161.28M28.53 167.26 L26.09 161.28 L23.59 161.03M28.53
							 167.26 L23.59 161.03 L21.27 163.14M28.53 167.26 L21.27 163.14 L20.51 166.37M28.53 167.26 L20.51 166.37
							 L21.74 168.8M28.53 167.26 L21.74 168.79 L24.23 169M28.53 167.26 L24.23 169 L26.52 166.9M28.53 167.26
							 L26.52 166.9 L27.29 163.72 L28.53 167.26M7.03 171.75 L5.71 169.35M7.98 175.43 L5.71 169.36 L3.1 169.15M7.98
							 175.43 L3.1 169.15 L0.72 171.29M7.98 175.43 L0.72 171.29 L0 174.51M7.98 175.43 L0 174.5 L1.35 176.89M7.98
							 175.43 L1.36 176.89 L3.97 177.06M7.98 175.43 L3.97 177.06 L6.3 174.94M7.98 175.43 L6.3 174.94 L7.03
							 171.76 L7.98 175.43M82.96 241.83 L80.08 235.32 L77.93 235.47M82.96 241.83 L77.93 235.47 L75.78 237.7M82.96
							 241.83 L75.78 237.71 L74.91 240.7M82.96 241.83 L74.91 240.69 L75.83 242.66M82.96 241.83 L75.83 242.67
							 L77.98 242.49M82.96 241.83 L77.98 242.48 L80.1 240.27M82.96 241.83 L80.1 240.27 L80.97 237.32 L82.96
							 241.83M82.96 224.61 L80.08 218.24 L77.92 218.3M82.96 224.61 L77.92 218.3 L75.76 220.49M82.96 224.61
							 L75.77 220.49 L74.9 223.53M82.96 224.61 L74.9 223.53 L75.83 225.6M82.96 224.61 L75.82 225.6 L77.97 225.5M82.96
							 224.61 L77.98 225.51 L80.1 223.33M82.96 224.61 L80.1 223.33 L80.97 220.33 L82.96 224.61M82.96 206.46
							 L80.07 200.23 L77.91 200.19M82.96 206.46 L77.91 200.19 L75.75 202.36M82.96 206.46 L75.75 202.36 L74.88
							 205.44M82.96 206.46 L74.88 205.44 L75.81 207.61M82.96 206.46 L75.8 207.61 L77.96 207.61M82.96 206.46
							 L77.96 207.61 L80.09 205.47M82.96 206.46 L80.09 205.47 L80.96 202.42 L82.96 206.46M80.95 183.52 L80.05
							 181.22M82.96 187.3 L80.05 181.22 L77.88 181.08M82.96 187.3 L77.89 181.08 L75.72 183.21M82.96 187.3 L75.72
							 183.21 L74.84 186.35M82.96 187.3 L74.84 186.35 L75.77 188.64M82.96 187.3 L75.77 188.63 L77.94 188.73M82.96
							 187.3 L77.94 188.74 L80.08 186.63M82.96 187.3 L80.08 186.62 L80.95 183.52 L82.96 187.3M80.94 163.55
							 L80.04 161.12M82.96 167.06 L80.04 161.12 L77.86 160.87M82.96 167.06 L77.86 160.87 L75.68 162.97M82.96
							 167.06 L75.67 162.97 L74.79 166.18M82.96 167.06 L74.79 166.18 L75.73 168.59M82.96 167.06 L75.72 168.58
							 L77.9 168.79M82.96 167.06 L77.91 168.79 L80.06 166.71M82.96 167.06 L80.06 166.71 L80.94 163.55 L82.96
							 167.06M68.14 250.24 L65.39 243.65 L63.16 243.84M68.14 250.24 L63.16 243.84 L60.97 246.09M68.14 250.24
							 L60.97 246.09 L60.13 249.07M68.14 250.24 L60.13 249.07 L61.13 251.01 L63.36 250.78M68.14 250.24 L63.37
							 250.77 L65.52 248.54M68.14 250.24 L65.52 248.54 L66.36 245.6 L68.14 250.24M50.96 254.33 L49.91 252.42M52.52
							 259.1 L49.91 252.42 L47.59 252.66M52.52 259.1 L47.59 252.66 L45.36 254.94M52.52 259.1 L45.36 254.93
							 L44.56 257.89M52.52 259.1 L44.56 257.89 L45.65 259.78 L47.97 259.5M52.52 259.1 L47.96 259.51 L50.15
							 257.25M52.52 259.1 L50.15 257.25 L50.96 254.33 L52.52 259.1M34.71 263.52 L33.57 261.65M36.04 268.45
							 L33.57 261.66 L31.15 261.95M36.04 268.45 L31.15 261.95 L28.89 264.26M36.04 268.45 L28.89 264.25 L28.12
							 267.21M36.04 268.45 L28.12 267.21 L29.3 269.05M36.04 268.45 L29.3 269.06 L31.71 268.73M36.04 268.45
							 L31.7 268.73 L33.93 266.44M36.04 268.45 L33.94 266.44 L34.71 263.52 L36.04 268.45M17.55 273.24 L16.31
							 271.42M18.64 278.33 L16.31 271.41 L13.79 271.76M18.64 278.33 L13.79 271.76 L11.47 274.1M18.64 278.33
							 L11.46 274.09 L10.73 277.04M18.64 278.33 L10.73 277.04 L12.01 278.85M18.64 278.33 L12 278.85 L14.52
							 278.47 L18.64 278.33 L14.52 278.47 L16.81 276.15M18.64 278.33 L16.81 276.15 L17.55 273.24 L18.64 278.33M173.61
							 287.46 L172.91 284.51M165.7 288.79 L172.91 284.51 L170.53 282.13M165.7 288.79 L170.53 282.12 L167.89
							 281.72M165.7 288.79 L167.88 281.72 L166.53 283.51M165.7 288.79 L166.54 283.51 L167.25 286.42M165.7 288.79
							 L167.24 286.42 L169.58 288.78M165.7 288.79 L169.58 288.78 L172.22 289.22M165.7 288.79 L172.22 289.22
							 L173.61 287.45 L165.7 288.79M155.18 277.04 L154.45 274.09M147.27 278.33 L154.44 274.09 L152.12 271.75M147.27
							 278.33 L152.12 271.76 L149.59 271.41M147.27 278.33 L149.59 271.41 L148.36 273.23M147.27 278.33 L148.36
							 273.23 L149.09 276.14M147.27 278.33 L149.09 276.15 L151.37 278.47M147.27 278.33 L151.38 278.47M147.27
							 278.33 L153.9 278.85 L155.18 277.04 L147.27 278.33M137.79 267.21 L137.02 264.25M129.85 268.45 L137.01
							 264.25 L134.74 261.94M129.85 268.45 L134.74 261.95 L132.32 261.66M129.85 268.45 L132.33 261.66 L131.19
							 263.53M129.85 268.45 L131.18 263.52 L131.95 266.44M129.85 268.45 L131.96 266.44 L134.2 268.73 L136.61
							 269.06M129.85 268.45 L136.61 269.06 L137.79 267.22 L129.85 268.45M121.34 257.89 L120.54 254.93M113.38
							 259.1 L120.54 254.93 L118.31 252.65M113.38 259.1 L118.31 252.66 L115.99 252.42M113.38 259.1 L115.99
							 252.42 L114.94 254.33M113.38 259.1 L114.94 254.33 L115.75 257.25M113.38 259.1 L115.75 257.25 L117.94
							 259.51M113.38 259.1 L120.26 259.79 L121.35 257.9 L113.38 259.1M105.77 249.07 L104.93 246.09M97.76 250.24
							 L104.92 246.09 L102.74 243.84M97.76 250.24 L102.74 243.84 L100.51 243.65M97.76 250.24 L100.51 243.65
							 L99.54 245.6M97.76 250.24 L99.54 245.6 L100.38 248.54M97.76 250.24 L100.38 248.54 L102.53 250.77M97.76
							 250.24 L102.53 250.77M97.76 250.24 L104.76 251 L105.76 249.06 L97.76 250.24M91 240.69 L90.13 237.7M82.96
							 241.83 L90.13 237.71 L87.99 235.48M82.96 241.83 L87.99 235.47 L85.84 235.32 L84.95 237.32M82.96 241.83
							 L84.94 237.32 L85.81 240.27M82.96 241.83 L85.81 240.27 L87.93 242.48M82.96 241.83 L87.93 242.48 L90.07
							 242.66M82.96 241.83 L90.08 242.67 L91 240.7 L82.96 241.83M91.01 223.54 L90.14 220.5M82.96 224.61 L90.14
							 220.49 L87.99 218.3M82.96 224.61 L87.99 218.3 L85.83 218.24M82.96 224.61 L85.84 218.24 L84.95 220.33M82.96
							 224.61 L84.95 220.33 L85.82 223.33M82.96 224.61 L85.82 223.33 L87.94 225.51M82.96 224.61 L87.94 225.51M82.96
							 224.61 L90.08 225.6 L91.01 223.53 L82.96 224.61M91.02 205.44 L90.15 202.36 L82.95 206.46 L90.15 202.36
							 L88 200.19M82.96 206.46 L88.01 200.19 L85.85 200.23M82.96 206.46 L85.85 200.23 L84.96 202.42M82.96 206.46
							 L84.95 202.42 L85.82 205.47M82.96 206.46 L85.82 205.47 L87.95 207.61M82.96 206.46 L87.95 207.61 L90.1
							 207.61M82.96 206.46 L90.1 207.61 L91.03 205.44 L82.96 206.46M91.06 186.35 L90.18 183.21M82.96 187.3
							 L90.19 183.21 L88.03 181.08M82.96 187.3 L88.03 181.08 L85.86 181.22M82.96 187.3 L85.86 181.22 L84.96
							 183.52M82.96 187.3 L84.96 183.52 L85.84 186.62M82.96 187.3 L85.84 186.62 L87.98 188.73M82.96 187.3 L87.97
							 188.74 L90.13 188.64M82.96 187.3 L90.13 188.63 L91.06 186.34 L82.96 187.3M91.12 166.18 L90.24 162.97M82.96
							 167.06 L90.23 162.97 L88.06 160.87M82.96 167.06 L88.06 160.87 L85.88 161.12M82.96 167.06 L85.87 161.12
							 L84.97 163.55M82.96 167.06 L84.97 163.54 L85.85 166.7 L88 168.78M82.96 167.06 L88.01 168.79 L90.18 168.58M82.96
							 167.06 L90.18 168.58 L91.12 166.17 L82.96 167.06M91.19 144.82 L90.3 141.54M82.96 145.63 L90.3 141.53
							 L88.11 139.46M82.96 145.63 L88.11 139.46 L85.91 139.83M82.96 145.63 L85.9 139.83 L84.99 142.39M82.96
							 145.63 L84.99 142.39 L85.88 145.63M82.96 145.63 L85.88 145.63 L88.05 147.69M82.96 145.63 L88.05 147.69
							 L90.24 147.37M82.96 145.63 L90.24 147.36 L91.19 144.81 L82.96 145.63M108.16 151.57 L107.31 148.31M100
							 152.41 L107.31 148.31 L105.07 146.23M100 152.41 L105.08 146.23 L102.79 146.56M100 152.41 L102.79 146.57
							 L101.79 149.09M100 152.41 L101.78 149.08 L102.63 152.3M100 152.41 L102.63 152.3 L104.83 154.36M100 152.41
							 L104.84 154.36 L107.13 154.07M100 152.41 L107.13 154.08 L108.17 151.57 L100 152.41M126.2 158.74 L125.39
							 155.5M118.1 159.61 L125.38 155.5 L123.1 153.41M118.1 159.61 L123.11 153.41 L120.72 153.7 L119.62 156.17M118.1
							 159.61 L119.62 156.18 L120.43 159.38M118.1 159.61 L120.43 159.38 L122.67 161.46M118.1 159.61 L122.68
							 161.46 L125.06 161.21M118.1 159.61 L125.06 161.21 L126.19 158.75 L118.1 159.61M145.4 166.37 L144.64
							 163.14M137.38 167.26 L144.64 163.14 L142.32 161.03M137.38 167.26 L142.32 161.03 L139.82 161.28M137.38
							 167.26 L139.82 161.28 L138.62 163.72M137.38 167.26 L138.62 163.72 L139.39 166.9M137.38 167.26 L139.39
							 166.9 L141.68 169M137.38 167.26 L141.68 169 L144.17 168.79M137.38 167.26 L144.17 168.79 L145.41 166.36
							 L137.38 167.26" class="st21"/>
			</g>
			<g id="shape6054-158" v:mID="6054" v:groupContext="shape" transform="translate(377.242,-96.2804)">
				<title>工作表.6054</title>
				<path d="M188.06 192.73 L187.34 189.51 L188.06 192.73 ZM180.09 193.66 L187.35 189.52 L184.97 187.38 L180.09 193.66
							 ZM180.09 193.66 L184.97 187.38 L182.36 187.59 L180.09 193.66 ZM180.09 193.66 L182.36 187.59 L181.04
							 189.99 L180.09 193.66 ZM180.09 193.66 L181.04 189.99 L181.77 193.17 L180.09 193.66 ZM180.09 193.66 L181.77
							 193.17 L184.1 195.29 L180.09 193.66 ZM180.09 193.66 L184.1 195.29 L186.71 195.12 L180.09 193.66 ZM180.09
							 193.66 L186.71 195.12 L188.06 192.73 L180.09 193.66 ZM209.98 201.42 L209.3 198.2 L209.98 201.42 ZM202.04
							 202.38 L209.3 198.2 L206.87 196.03 L202.04 202.38 ZM202.04 202.38 L206.87 196.03 L204.12 196.19 L202.04
							 202.38 ZM202.04 202.38 L204.12 196.19 L202.67 198.56 L203.35 201.74 L202.04 202.38 ZM202.04 202.38 L203.36
							 201.74 L205.76 203.89 L202.04 202.38 ZM202.04 202.38 L205.76 203.89 L208.5 203.77 L202.04 202.38 ZM202.04
							 202.38 L208.5 203.77 L209.97 201.42 L202.04 202.38 ZM206.73 225.04 L206.05 221.89 L206.73 225.04 ZM198.84
							 226.09 L206.06 221.9 L203.64 219.7 L198.84 226.09 ZM198.84 226.09 L203.65 219.7 L200.94 219.73 L198.84
							 226.09 ZM198.84 226.09 L200.93 219.73 L199.52 221.96 L198.84 226.09 ZM198.84 226.09 L199.52 221.96 L200.2
							 225.06 L198.84 226.09 ZM198.84 226.09 L200.2 225.06 L202.58 227.25 L198.84 226.09 ZM198.84 226.09 L202.58
							 227.25 L205.28 227.26 L198.84 226.09 ZM198.84 226.09 L205.28 227.26 L206.74 225.05 L198.84 226.09 ZM203.71
							 247.14 L203.03 244.06 L203.71 247.14 ZM195.83 248.26 L203.03 244.06 L200.63 241.81 L195.83 248.26 ZM195.83
							 248.26 L200.63 241.81 L197.95 241.72 L195.83 248.26 ZM195.83 248.26 L197.94 241.72 L196.55 243.82 L195.83
							 248.26 ZM195.83 248.26 L196.55 243.82 L197.24 246.86 L195.83 248.26 ZM195.83 248.26 L197.24 246.86 L199.6
							 249.09 L195.83 248.26 ZM195.83 248.26 L199.6 249.1 L202.28 249.22 L195.83 248.26 ZM195.83 248.26 L202.28
							 249.22 L203.71 247.14 L195.83 248.26 ZM200.89 267.88 L200.2 264.85 L200.89 267.88 ZM193.01 269.07 L200.2
							 264.85 L197.81 262.55 L193.01 269.07 L197.81 262.55 L195.14 262.35 L193.01 269.07 ZM193.01 269.07 L195.15
							 262.36 L193.77 264.34 L193.01 269.07 ZM193.01 269.07 L193.77 264.34 L194.46 267.33 L193.01 269.07 ZM193.01
							 269.07 L194.46 267.33 L196.81 269.6 L199.47 269.84 L193.01 269.07 ZM193.01 269.07 L199.47 269.84 L200.88
							 267.88 L193.01 269.07 ZM198.25 287.36 L197.56 284.38 L198.25 287.36 ZM190.36 288.62 L197.56 284.37 L195.17
							 282.03 L190.36 288.62 ZM190.36 288.62 L195.17 282.04 L192.52 281.74 L190.36 288.62 ZM190.36 288.62 L192.52
							 281.73 L191.16 283.61 L190.36 288.62 ZM190.36 288.62 L191.16 283.61 L191.86 286.56 L190.36 288.62 ZM190.36
							 288.62 L191.86 286.56 L194.2 288.87 L196.85 289.22 L190.36 288.62 ZM190.36 288.62 L196.85 289.22 L198.25
							 287.36 L190.36 288.62 ZM7.27 177.11 L9.18 175.75 L7.27 177.11 ZM3.62 168.6 L9.18 175.75 L8.39 174.4
							 L3.62 168.6 ZM3.62 168.6 L8.39 174.4 L5.4 173.85 L3.62 168.6 ZM3.62 168.6 L5.4 173.84 L1.94 174.39 L3.62
							 168.6 ZM3.62 168.6 L1.94 174.4 L0 175.75 L3.62 168.6 ZM3.62 168.6 L0 175.75 L0.74 177.11 L3.62 168.6
							 ZM3.62 168.6 L0.75 177.11 L3.77 177.68 L3.62 168.6 ZM3.62 168.6 L3.77 177.68 L7.27 177.11 L3.62 168.6
							 ZM24.63 187.08 L26.42 185.67 L24.63 187.08 ZM21.07 178.7 L26.41 185.67 L25.53 184.28 L21.07 178.7 ZM21.07
							 178.7 L25.53 184.28 L22.53 183.71 L21.07 178.7 ZM21.07 178.7 L22.53 183.71 L19.14 184.28 L17.32 185.67
							 L21.07 178.7 ZM21.07 178.7 L17.32 185.67 L18.16 187.08 L21.07 178.7 ZM21.07 178.7 L18.16 187.08 L21.19
							 187.67 L21.07 178.7 ZM21.07 178.7 L21.19 187.67 L24.62 187.08 L21.07 178.7 ZM43.23 197.74 L44.9 196.28
							 L43.23 197.74 ZM39.79 189.46 L44.91 196.28 L43.94 194.84 L39.79 189.46 ZM39.79 189.46 L43.93 194.84
							 L40.91 194.25 L39.79 189.46 ZM39.79 189.46 L40.91 194.25 L37.59 194.84 L39.79 189.46 ZM39.79 189.46
							 L37.6 194.84 L35.9 196.28 L39.79 189.46 ZM39.79 189.46 L35.9 196.28 L36.84 197.74 L39.79 189.46 ZM39.79
							 189.46 L36.83 197.74 L39.88 198.35 L39.79 189.46 ZM39.79 189.46 L39.88 198.35 L43.24 197.74 L39.79 189.46
							 ZM63.27 209.16 L64.81 207.65 L59.92 200.98 L63.27 209.16 ZM64.81 207.65 L63.73 206.16 L64.81 207.65
							 ZM59.92 200.98 L63.74 206.16 L60.7 205.55 L59.92 200.98 ZM59.92 200.98 L60.69 205.54 L57.44 206.15 L59.92
							 200.98 ZM59.92 200.98 L57.44 206.16 L55.86 207.65 L59.92 200.98 ZM59.92 200.98 L55.87 207.65 L56.91
							 209.16 L59.92 200.98 ZM59.92 200.98 L56.9 209.16 L59.98 209.79 L59.92 200.98 ZM59.92 200.98 L59.98 209.79
							 L63.27 209.16 L59.92 200.98 ZM84.88 221.41 L86.3 219.84 L84.88 221.41 ZM81.63 213.32 L86.3 219.85 L85.11
							 218.29 L81.63 213.32 ZM81.63 213.32 L85.11 218.29 L82.03 217.65 L78.85 218.29 L81.63 213.32 ZM81.63
							 213.32 L78.85 218.29 L77.39 219.85 L81.63 213.32 ZM81.63 213.32 L77.39 219.85 L78.55 221.42 L81.63 213.32
							 ZM81.63 213.32 L78.55 221.42 L81.66 222.08 L81.63 213.32 ZM81.63 213.32 L81.66 222.07 L84.88 221.41
							 L81.63 213.32 ZM108.27 234.61 L109.56 232.97 L108.27 234.61 ZM105.12 226.58 L109.56 232.97 L108.24 231.35
							 L105.12 226.58 ZM105.12 226.58 L108.24 231.34 L105.12 230.67 L101.99 231.34 L105.12 226.58 ZM105.12
							 226.58 L101.99 231.34 L100.67 232.96 L105.12 226.58 ZM105.12 226.58 L100.67 232.97 L101.95 234.61 L105.12
							 226.58 ZM105.12 226.58 L101.96 234.61 L105.12 235.3 L108.27 234.61 L105.12 226.58 ZM209.49 177.11 L210.23
							 175.75 L209.49 177.11 ZM206.62 168.6 L210.23 175.75 L208.3 174.4 L206.62 168.6 ZM206.62 168.6 L208.3
							 174.4 L204.84 173.85 L206.62 168.6 ZM206.62 168.6 L204.84 173.84 L201.85 174.39 L206.62 168.6 ZM206.62
							 168.6 L201.86 174.4 L206.62 168.6 ZM206.62 168.6 L201.06 175.75 L202.97 177.11 L206.62 168.6 ZM206.62
							 168.6 L202.97 177.11 L206.47 177.68 L206.62 168.6 ZM206.62 168.6 L206.47 177.68 L209.48 177.11 L206.62
							 168.6 ZM192.08 187.08 L192.92 185.67 L192.08 187.08 ZM189.16 178.7 L192.91 185.67 L191.09 184.28 L187.7
							 183.71 L189.16 178.7 ZM189.16 178.7 L187.7 183.71 L184.7 184.28 L189.16 178.7 ZM189.16 178.7 L184.7
							 184.28 L183.82 185.67 L189.16 178.7 ZM189.16 178.7 L183.82 185.67 L185.61 187.08 L189.16 178.7 ZM189.16
							 178.7 L185.61 187.08 L189.04 187.67 L189.16 178.7 ZM189.16 178.7 L189.04 187.67 L192.07 187.08 L189.16
							 178.7 ZM173.4 197.74 L174.34 196.28 L173.4 197.74 ZM170.45 189.46 L174.34 196.28 L172.64 194.84 L170.45
							 189.46 ZM170.45 189.46 L172.64 194.84 L169.32 194.25 L170.45 189.46 ZM170.45 189.46 L169.33 194.25 L166.31
							 194.84 L170.45 189.46 ZM170.45 189.46 L166.31 194.84 L165.34 196.28 L170.45 189.46 ZM170.45 189.46 L165.33
							 196.28 L167 197.74 L170.45 189.46 ZM170.45 189.46 L167 197.74 L170.36 198.35 L170.45 189.46 ZM170.45
							 189.46 L170.36 198.35 L173.41 197.74 L170.45 189.46 ZM153.33 209.16 L154.37 207.65 L153.33 209.16 ZM150.31
							 200.98 L154.36 207.65 L152.78 206.16 L150.31 200.98 ZM150.31 200.98 L152.79 206.16 L149.54 205.55 L150.31
							 200.98 ZM150.31 200.98 L149.54 205.54 L146.51 206.15 L150.31 200.98 ZM150.31 200.98 L145.42 207.65 L146.97
							 209.16 L150.31 200.98 ZM150.31 200.98 L146.97 209.16 L150.25 209.79 L150.31 200.98 ZM150.31 200.98 L150.25
							 209.79 L153.33 209.16 L150.31 200.98 ZM131.69 221.41 L132.85 219.84 L131.69 221.41 ZM128.61 213.32 L132.85
							 219.85 L131.4 218.29 L128.61 213.32 ZM128.61 213.32 L131.4 218.29 L128.21 217.65 L125.13 218.29 L128.61
							 213.32 ZM128.61 213.32 L125.13 218.29 L128.61 213.32 ZM128.61 213.32 L123.94 219.85 L125.36 221.42 L128.61
							 213.32 ZM128.61 213.32 L125.35 221.42 L128.57 222.08 L128.61 213.32 ZM128.61 213.32 L128.58 222.07 L131.69
							 221.41 L128.61 213.32 ZM108.35 137.11 L109.67 135.98 L108.35 137.11 ZM105.12 128.51 L109.67 135.98 L108.32
							 134.87 L105.12 128.51 ZM105.12 128.51 L108.32 134.87 L105.12 134.41 L101.92 134.87 L105.12 128.51 ZM105.12
							 128.51 L101.92 134.87 L100.57 135.98 L105.12 128.51 ZM105.12 128.51 L100.57 135.98 L101.88 137.11 L105.12
							 128.51 ZM105.12 128.51 L101.88 137.11 L105.12 137.58 L108.36 137.11 L105.12 128.51 ZM126.13 144.24 L127.34
							 143.08 L126.13 144.24 ZM122.96 135.69 L127.33 143.08 L125.88 141.93 L122.96 135.69 ZM122.96 135.69 L125.88
							 141.93 L122.65 141.45 L119.5 141.93 L122.96 135.69 ZM122.96 135.69 L119.5 141.93 L118.25 143.08 L122.96
							 135.69 ZM122.96 135.69 L118.25 143.08 L119.67 144.24 L122.96 135.69 ZM122.96 135.69 L119.67 144.24 L122.94
							 144.73 L122.96 135.69 L122.94 144.73 L126.13 144.24 L122.96 135.69 ZM145.01 151.77 L146.11 150.56 L145.01
							 151.77 ZM141.92 143.26 L146.11 150.57 L144.55 149.38 L141.92 143.26 ZM141.92 143.26 L144.56 149.38 L141.28
							 148.89 L141.92 143.26 ZM141.92 143.26 L141.28 148.89 L138.17 149.38 L141.92 143.26 ZM141.92 143.26 L138.17
							 149.38 L137.03 150.57 L141.92 143.26 ZM141.92 143.26 L137.03 150.57 L138.55 151.78 L141.92 143.26 ZM141.92
							 143.26 L138.55 151.78 L141.86 152.28 L141.92 143.26 ZM141.92 143.26 L141.87 152.28 L145.01 151.78 L141.92
							 143.26 ZM165.1 159.73 L166.09 158.48 L165.1 159.73 ZM162.08 151.23 L166.08 158.48 L164.41 157.24 L162.08
							 151.23 ZM162.08 151.23 L164.42 157.24 L161.09 156.73 L162.08 151.23 ZM162.08 151.23 L161.09 156.73 L158.03
							 157.24 L162.08 151.23 ZM162.08 151.23 L158.03 157.24 L157 158.48 L162.08 151.23 ZM162.08 151.23 L157
							 158.48 L158.63 159.73 L162.08 151.23 ZM162.08 151.23 L158.63 159.73 L162 160.25 L162.08 151.23 ZM162.08
							 151.23 L162 160.25 L165.1 159.73 L162.08 151.23 ZM186.55 168.16 L187.42 166.86 L186.55 168.16 ZM183.61
							 159.67 L187.42 166.86 L185.63 165.57 L182.24 165.04 L183.61 159.67 ZM183.61 159.67 L182.24 165.04 L179.22
							 165.57 L183.61 159.67 ZM183.61 159.67 L179.22 165.57 L183.61 159.67 ZM183.61 159.67 L178.31 166.86 L180.07
							 168.16 L183.61 159.67 ZM183.61 159.67 L180.07 168.16 L183.49 168.71 L183.61 159.67 ZM183.61 159.67 L183.49
							 168.71 L186.55 168.16 L183.61 159.67 ZM90.56 144.24 L91.98 143.08 L90.56 144.24 ZM87.28 135.69 L91.98
							 143.08 L90.73 141.93 L87.28 135.69 ZM87.28 135.69 L90.73 141.93 L87.59 141.45 L87.28 135.69 ZM87.28
							 135.69 L87.59 141.45 L84.35 141.93 L87.28 135.69 ZM87.28 135.69 L84.35 141.93 L82.9 143.08 L87.28 135.69
							 ZM87.28 135.69 L82.91 143.08 L84.12 144.24 L87.28 135.69 ZM87.28 135.69 L84.12 144.24 L87.31 144.73
							 L87.28 135.69 ZM87.28 135.69 L87.3 144.73 L90.56 144.24 L87.28 135.69 ZM71.69 151.77 L73.21 150.56 L71.69
							 151.77 ZM68.32 143.26 L73.21 150.57 L72.07 149.38 L68.32 143.26 ZM68.32 143.26 L72.07 149.38 L68.96
							 148.89 L68.32 143.26 ZM68.32 143.26 L68.96 148.89 L65.68 149.38 L68.32 143.26 ZM68.32 143.26 L65.68
							 149.38 L64.12 150.57 L68.32 143.26 ZM68.32 143.26 L64.13 150.57 L65.23 151.78 L68.32 143.26 ZM68.32
							 143.26 L65.23 151.78 L68.37 152.28 L68.32 143.26 ZM68.32 143.26 L68.37 152.28 L71.68 151.78 L68.32 143.26
							 ZM51.59 159.73 L53.22 158.48 L51.59 159.73 ZM48.15 151.23 L53.23 158.48 L52.2 157.24 L48.15 151.23 ZM48.15
							 151.23 L52.2 157.24 L49.14 156.73 L48.15 151.23 ZM48.15 151.23 L49.14 156.73 L45.81 157.24 L48.15 151.23
							 ZM48.15 151.23 L45.81 157.24 L44.14 158.48 L48.15 151.23 ZM48.15 151.23 L44.15 158.48 L45.14 159.73
							 L48.15 151.23 ZM48.15 151.23 L45.13 159.73 L48.23 160.25 L48.15 151.23 ZM48.15 151.23 L48.23 160.25
							 L51.6 159.73 L48.15 151.23 ZM30.16 168.16 L31.92 166.86 L30.16 168.16 ZM26.63 159.67 L31.92 166.86 L31.01
							 165.57 L26.63 159.67 ZM26.63 159.67 L31.01 165.57 L27.99 165.04 L26.63 159.67 ZM26.63 159.67 L27.99
							 165.04 L24.6 165.57 L22.81 166.86 L26.63 159.67 ZM26.63 159.67 L22.82 166.86 L23.69 168.16 L26.63 159.67
							 L23.69 168.16 L26.75 168.71 L26.63 159.67 ZM26.63 159.67 L26.75 168.71 L30.16 168.16 L26.63 159.67 ZM8.2
							 202.38 L3.62 168.6 L8.2 202.38 ZM24.83 211.73 L21.07 178.7 L24.83 211.73 ZM42.68 221.76 L39.78 189.46
							 L42.68 221.76 ZM61.91 232.56 L59.92 200.98 L61.91 232.56 ZM82.66 244.2 L81.63 213.32 L82.66 244.2 ZM105.12
							 256.82 L105.12 226.58 L105.12 256.82 ZM202.04 202.38 L206.62 168.6 L202.04 202.38 ZM185.41 211.73 L189.17
							 178.7 L185.41 211.73 ZM167.55 221.76 L170.45 189.46 L167.55 221.76 ZM148.34 232.56 L150.32 200.98 L148.34
							 232.56 Z" class="st20"/>
				<path d="M188.06 192.73 L187.34 189.51M180.09 193.66 L187.35 189.52 L184.97 187.38M180.09 193.66 L184.97 187.38 L182.36
							 187.59M180.09 193.66 L182.36 187.59 L181.04 189.99M180.09 193.66 L181.04 189.99 L181.77 193.17M180.09
							 193.66 L181.77 193.17 L184.1 195.29M180.09 193.66 L184.1 195.29 L186.71 195.12M180.09 193.66 L186.71
							 195.12 L188.06 192.73 L180.09 193.66M209.98 201.42 L209.3 198.2M202.04 202.38 L209.3 198.2 L206.87 196.03M202.04
							 202.38 L206.87 196.03 L204.12 196.19M202.04 202.38 L204.12 196.19 L202.67 198.56 L203.35 201.74M202.04
							 202.38 L203.36 201.74 L205.76 203.89M202.04 202.38 L205.76 203.89 L208.5 203.77M202.04 202.38 L208.5
							 203.77 L209.97 201.42 L202.04 202.38M206.73 225.04 L206.05 221.89M198.84 226.09 L206.06 221.9 L203.64
							 219.7M198.84 226.09 L203.65 219.7 L200.94 219.73M198.84 226.09 L200.93 219.73 L199.52 221.96M198.84
							 226.09 L199.52 221.96 L200.2 225.06M198.84 226.09 L200.2 225.06 L202.58 227.25M198.84 226.09 L202.58
							 227.25 L205.28 227.26M198.84 226.09 L205.28 227.26 L206.74 225.05 L198.84 226.09M203.71 247.14 L203.03
							 244.06M195.83 248.26 L203.03 244.06 L200.63 241.81M195.83 248.26 L200.63 241.81 L197.95 241.72M195.83
							 248.26 L197.94 241.72 L196.55 243.82M195.83 248.26 L196.55 243.82 L197.24 246.86M195.83 248.26 L197.24
							 246.86 L199.6 249.09M195.83 248.26 L199.6 249.1 L202.28 249.22M195.83 248.26 L202.28 249.22 L203.71
							 247.14 L195.83 248.26M200.89 267.88 L200.2 264.85M193.01 269.07 L200.2 264.85 L197.81 262.55 L193.01
							 269.07 L197.81 262.55 L195.14 262.35M193.01 269.07 L195.15 262.36 L193.77 264.34M193.01 269.07 L193.77
							 264.34 L194.46 267.33M193.01 269.07 L194.46 267.33 L196.81 269.6 L199.47 269.84M193.01 269.07 L199.47
							 269.84 L200.88 267.88 L193.01 269.07M198.25 287.36 L197.56 284.38M190.36 288.62 L197.56 284.37 L195.17
							 282.03M190.36 288.62 L195.17 282.04 L192.52 281.74M190.36 288.62 L192.52 281.73 L191.16 283.61M190.36
							 288.62 L191.16 283.61 L191.86 286.56M190.36 288.62 L191.86 286.56 L194.2 288.87 L196.85 289.22M190.36
							 288.62 L196.85 289.22 L198.25 287.36 L190.36 288.62M7.27 177.11 L9.18 175.75M3.62 168.6 L9.18 175.75
							 L8.39 174.4M3.62 168.6 L8.39 174.4 L5.4 173.85M3.62 168.6 L5.4 173.84 L1.94 174.39M3.62 168.6 L1.94
							 174.4 L0 175.75M3.62 168.6 L0 175.75 L0.74 177.11M3.62 168.6 L0.75 177.11 L3.77 177.68M3.62 168.6 L3.77
							 177.68 L7.27 177.11 L3.62 168.6M24.63 187.08 L26.42 185.67M21.07 178.7 L26.41 185.67 L25.53 184.28M21.07
							 178.7 L25.53 184.28 L22.53 183.71M21.07 178.7 L22.53 183.71 L19.14 184.28 L17.32 185.67M21.07 178.7
							 L17.32 185.67 L18.16 187.08M21.07 178.7 L18.16 187.08 L21.19 187.67M21.07 178.7 L21.19 187.67 L24.62
							 187.08 L21.07 178.7M43.23 197.74 L44.9 196.28M39.79 189.46 L44.91 196.28 L43.94 194.84M39.79 189.46
							 L43.93 194.84 L40.91 194.25M39.79 189.46 L40.91 194.25 L37.59 194.84M39.79 189.46 L37.6 194.84 L35.9
							 196.28M39.79 189.46 L35.9 196.28 L36.84 197.74M39.79 189.46 L36.83 197.74 L39.88 198.35M39.79 189.46
							 L39.88 198.35 L43.24 197.74 L39.79 189.46M63.27 209.16 L64.81 207.65 L59.92 200.98M64.81 207.65 L63.73
							 206.16M59.92 200.98 L63.74 206.16 L60.7 205.55M59.92 200.98 L60.69 205.54 L57.44 206.15M59.92 200.98
							 L57.44 206.16 L55.86 207.65M59.92 200.98 L55.87 207.65 L56.91 209.16M59.92 200.98 L56.9 209.16 L59.98
							 209.79M59.92 200.98 L59.98 209.79 L63.27 209.16 L59.92 200.98M84.88 221.41 L86.3 219.84M81.63 213.32
							 L86.3 219.85 L85.11 218.29M81.63 213.32 L85.11 218.29 L82.03 217.65 L78.85 218.29M81.63 213.32 L78.85
							 218.29 L77.39 219.85M81.63 213.32 L77.39 219.85 L78.55 221.42M81.63 213.32 L78.55 221.42 L81.66 222.08M81.63
							 213.32 L81.66 222.07 L84.88 221.41 L81.63 213.32M108.27 234.61 L109.56 232.97M105.12 226.58 L109.56
							 232.97 L108.24 231.35M105.12 226.58 L108.24 231.34 L105.12 230.67 L101.99 231.34M105.12 226.58 L101.99
							 231.34 L100.67 232.96M105.12 226.58 L100.67 232.97 L101.95 234.61M105.12 226.58 L101.96 234.61 L105.12
							 235.3 L108.27 234.61 L105.12 226.58M209.49 177.11 L210.23 175.75M206.62 168.6 L210.23 175.75 L208.3
							 174.4M206.62 168.6 L208.3 174.4 L204.84 173.85M206.62 168.6 L204.84 173.84 L201.85 174.39M206.62 168.6
							 L201.86 174.4M206.62 168.6 L201.06 175.75 L202.97 177.11M206.62 168.6 L202.97 177.11 L206.47 177.68M206.62
							 168.6 L206.47 177.68 L209.48 177.11 L206.62 168.6M192.08 187.08 L192.92 185.67M189.16 178.7 L192.91
							 185.67 L191.09 184.28 L187.7 183.71M189.16 178.7 L187.7 183.71 L184.7 184.28M189.16 178.7 L184.7 184.28
							 L183.82 185.67M189.16 178.7 L183.82 185.67 L185.61 187.08M189.16 178.7 L185.61 187.08 L189.04 187.67M189.16
							 178.7 L189.04 187.67 L192.07 187.08 L189.16 178.7M173.4 197.74 L174.34 196.28M170.45 189.46 L174.34
							 196.28 L172.64 194.84M170.45 189.46 L172.64 194.84 L169.32 194.25M170.45 189.46 L169.33 194.25 L166.31
							 194.84M170.45 189.46 L166.31 194.84 L165.34 196.28M170.45 189.46 L165.33 196.28 L167 197.74M170.45 189.46
							 L167 197.74 L170.36 198.35M170.45 189.46 L170.36 198.35 L173.41 197.74 L170.45 189.46M153.33 209.16
							 L154.37 207.65M150.31 200.98 L154.36 207.65 L152.78 206.16M150.31 200.98 L152.79 206.16 L149.54 205.55M150.31
							 200.98 L149.54 205.54 L146.51 206.15M150.31 200.98 L145.42 207.65 L146.97 209.16M150.31 200.98 L146.97
							 209.16 L150.25 209.79M150.31 200.98 L150.25 209.79 L153.33 209.16 L150.31 200.98M131.69 221.41 L132.85
							 219.84M128.61 213.32 L132.85 219.85 L131.4 218.29M128.61 213.32 L131.4 218.29 L128.21 217.65 L125.13
							 218.29M128.61 213.32 L125.13 218.29M128.61 213.32 L123.94 219.85 L125.36 221.42M128.61 213.32 L125.35
							 221.42 L128.57 222.08M128.61 213.32 L128.58 222.07 L131.69 221.41 L128.61 213.32M108.35 137.11 L109.67
							 135.98M105.12 128.51 L109.67 135.98 L108.32 134.87M105.12 128.51 L108.32 134.87 L105.12 134.41 L101.92
							 134.87M105.12 128.51 L101.92 134.87 L100.57 135.98M105.12 128.51 L100.57 135.98 L101.88 137.11M105.12
							 128.51 L101.88 137.11 L105.12 137.58 L108.36 137.11 L105.12 128.51M126.13 144.24 L127.34 143.08M122.96
							 135.69 L127.33 143.08 L125.88 141.93M122.96 135.69 L125.88 141.93 L122.65 141.45 L119.5 141.93M122.96
							 135.69 L119.5 141.93 L118.25 143.08M122.96 135.69 L118.25 143.08 L119.67 144.24M122.96 135.69 L119.67
							 144.24 L122.94 144.73 L122.96 135.69 L122.94 144.73 L126.13 144.24 L122.96 135.69M145.01 151.77 L146.11
							 150.56M141.92 143.26 L146.11 150.57 L144.55 149.38M141.92 143.26 L144.56 149.38 L141.28 148.89M141.92
							 143.26 L141.28 148.89 L138.17 149.38M141.92 143.26 L138.17 149.38 L137.03 150.57M141.92 143.26 L137.03
							 150.57 L138.55 151.78M141.92 143.26 L138.55 151.78 L141.86 152.28M141.92 143.26 L141.87 152.28 L145.01
							 151.78 L141.92 143.26M165.1 159.73 L166.09 158.48M162.08 151.23 L166.08 158.48 L164.41 157.24M162.08
							 151.23 L164.42 157.24 L161.09 156.73M162.08 151.23 L161.09 156.73 L158.03 157.24M162.08 151.23 L158.03
							 157.24 L157 158.48M162.08 151.23 L157 158.48 L158.63 159.73M162.08 151.23 L158.63 159.73 L162 160.25M162.08
							 151.23 L162 160.25 L165.1 159.73 L162.08 151.23M186.55 168.16 L187.42 166.86M183.61 159.67 L187.42 166.86
							 L185.63 165.57 L182.24 165.04M183.61 159.67 L182.24 165.04 L179.22 165.57M183.61 159.67 L179.22 165.57M183.61
							 159.67 L178.31 166.86 L180.07 168.16M183.61 159.67 L180.07 168.16 L183.49 168.71M183.61 159.67 L183.49
							 168.71 L186.55 168.16 L183.61 159.67M90.56 144.24 L91.98 143.08M87.28 135.69 L91.98 143.08 L90.73 141.93M87.28
							 135.69 L90.73 141.93 L87.59 141.45M87.28 135.69 L87.59 141.45 L84.35 141.93M87.28 135.69 L84.35 141.93
							 L82.9 143.08M87.28 135.69 L82.91 143.08 L84.12 144.24M87.28 135.69 L84.12 144.24 L87.31 144.73M87.28
							 135.69 L87.3 144.73 L90.56 144.24 L87.28 135.69M71.69 151.77 L73.21 150.56M68.32 143.26 L73.21 150.57
							 L72.07 149.38M68.32 143.26 L72.07 149.38 L68.96 148.89M68.32 143.26 L68.96 148.89 L65.68 149.38M68.32
							 143.26 L65.68 149.38 L64.12 150.57M68.32 143.26 L64.13 150.57 L65.23 151.78M68.32 143.26 L65.23 151.78
							 L68.37 152.28M68.32 143.26 L68.37 152.28 L71.68 151.78 L68.32 143.26M51.59 159.73 L53.22 158.48M48.15
							 151.23 L53.23 158.48 L52.2 157.24M48.15 151.23 L52.2 157.24 L49.14 156.73M48.15 151.23 L49.14 156.73
							 L45.81 157.24M48.15 151.23 L45.81 157.24 L44.14 158.48M48.15 151.23 L44.15 158.48 L45.14 159.73M48.15
							 151.23 L45.13 159.73 L48.23 160.25M48.15 151.23 L48.23 160.25 L51.6 159.73 L48.15 151.23M30.16 168.16
							 L31.92 166.86M26.63 159.67 L31.92 166.86 L31.01 165.57M26.63 159.67 L31.01 165.57 L27.99 165.04M26.63
							 159.67 L27.99 165.04 L24.6 165.57 L22.81 166.86M26.63 159.67 L22.82 166.86 L23.69 168.16 L26.63 159.67
							 L23.69 168.16 L26.75 168.71M26.63 159.67 L26.75 168.71 L30.16 168.16 L26.63 159.67M8.2 202.38 L3.62
							 168.6M24.83 211.73 L21.07 178.7M42.68 221.76 L39.78 189.46M61.91 232.56 L59.92 200.98M82.66 244.2 L81.63
							 213.32M105.12 256.82 L105.12 226.58M202.04 202.38 L206.62 168.6M185.41 211.73 L189.17 178.7M167.55 221.76
							 L170.45 189.46M148.34 232.56 L150.32 200.98" class="st21"/>
			</g>
			<g id="shape6055-161" v:mID="6055" v:groupContext="shape" transform="translate(403.868,-141.293)">
				<title>工作表.6055</title>
				<path d="M100.95 289.22 L101.98 258.33 L100.95 289.22 ZM78.5 208.88 L78.5 173.53 L78.5 208.88 ZM95.54 215.66 L96.34
							 180.71 L95.54 215.66 ZM113.64 222.86 L115.29 188.27 L113.64 222.86 ZM132.92 230.51 L135.47 196.24 L132.92
							 230.51 ZM153.46 238.68 L156.98 204.68 L153.46 238.68 ZM61.45 215.66 L60.65 180.7 L61.45 215.66 ZM43.33
							 222.86 L41.69 188.27 L43.33 222.86 ZM24.07 230.51 L21.52 196.24 L24.07 230.51 ZM3.52 238.68 L0 204.68
							 L3.52 238.68 Z" class="st20"/>
				<path d="M100.95 289.22 L101.98 258.33M78.5 208.88 L78.5 173.53M95.54 215.66 L96.34 180.71M113.64 222.86 L115.29
							 188.27M132.92 230.51 L135.47 196.24M153.46 238.68 L156.98 204.68M61.45 215.66 L60.65 180.7M43.33 222.86
							 L41.69 188.27M24.07 230.51 L21.52 196.24M3.52 238.68 L0 204.68" class="st21"/>
			</g>
		</g>
	</g>
</svg>
