<?xml version="1.0" encoding="UTF-8" standalone="no"?>
<!DOCTYPE svg PUBLIC "-//W3C//DTD SVG 1.1//EN" "http://www.w3.org/Graphics/SVG/1.1/DTD/svg11.dtd">
<!-- 由 Microsoft Visio, SVG Export 生成 c3d8.svg 页-1 -->
<svg xmlns="http://www.w3.org/2000/svg" xmlns:xlink="http://www.w3.org/1999/xlink" xmlns:ev="http://www.w3.org/2001/xml-events"
		xmlns:v="http://schemas.microsoft.com/visio/2003/SVGExtensions/" width="7.13974in" height="3.2042in"
		viewBox="0 0 514.061 230.702" xml:space="preserve" color-interpolation-filters="sRGB" class="st22">
	<v:documentProperties v:langID="2052" v:metric="true" v:viewMarkup="false"/>

	<style type="text/css">
	<![CDATA[
		.st1 {stroke:#000000;stroke-dasharray:3.75845,1.87922;stroke-linecap:butt;stroke-width:0.469806}
		.st2 {marker-end:url(#mrkr4-15);stroke:#000000;stroke-linecap:round;stroke-linejoin:round;stroke-width:1}
		.st3 {fill:#000000;fill-opacity:1;stroke:#000000;stroke-opacity:1;stroke-width:0.28409090909091}
		.st4 {fill:#125494;stroke:#000000;stroke-linecap:butt;stroke-width:0.75}
		.st5 {fill:#1c7ddb;stroke:#000000;stroke-linecap:butt;stroke-width:0.75}
		.st6 {fill:#1c82e5;stroke:#000000;stroke-linecap:butt;stroke-width:0.5}
		.st7 {fill:none;stroke:none;stroke-linecap:butt;stroke-width:0.75}
		.st8 {fill:#203864;font-family:Calibri;font-size:0.940773em}
		.st9 {fill:#00b050;stroke:#00b050;stroke-linecap:butt;stroke-width:0.75}
		.st10 {fill:#c00000;stroke:#c00000;stroke-linecap:butt;stroke-width:0.75}
		.st11 {fill:#096bec;stroke:#0a6df3;stroke-linecap:butt;stroke-width:0.75}
		.st12 {fill:#000000;stroke:none;stroke-width:0.25}
		.st13 {fill:#deebf6;stroke:none;stroke-width:0.25}
		.st14 {fill:#203864;font-family:Calibri;font-size:1.00001em;font-weight:bold}
		.st15 {fill:none;stroke:none;stroke-width:0.25}
		.st16 {font-size:1em}
		.st17 {font-size:1em;font-style:italic}
		.st18 {fill:#000000;font-family:Calibri;font-size:1.5em;font-weight:bold}
		.st19 {stroke:#000000;stroke-linecap:butt;stroke-width:0.469806}
		.st20 {fill:none}
		.st21 {stroke:#ff7a00;stroke-linecap:butt;stroke-width:0.469806}
		.st22 {fill:none;fill-rule:evenodd;font-size:12px;overflow:visible;stroke-linecap:square;stroke-miterlimit:3}
	]]>
	</style>

	<defs id="Markers">
		<g id="lend4">
			<path d="M 2 1 L 0 0 L 2 -1 L 2 1 " style="stroke:none"/>
		</g>
		<marker id="mrkr4-15" class="st3" v:arrowType="4" v:arrowSize="2" v:setback="7.04" refX="-7.04" orient="auto"
				markerUnits="strokeWidth" overflow="visible">
			<use xlink:href="#lend4" transform="scale(-3.52,-3.52) "/>
		</marker>
	</defs>
	<g v:mID="0" v:index="1" v:groupContext="foregroundPage">
		<title>页-1</title>
		<v:pageProperties v:drawingScale="0.0393701" v:pageScale="0.0393701" v:drawingUnits="24" v:shadowOffsetX="9"
				v:shadowOffsetY="-9"/>
		<v:layer v:name="连接线" v:index="0"/>
		<g id="shape6058-1" v:mID="6058" v:groupContext="shape" transform="translate(188.697,124.484) rotate(-90.0933)">
			<title>工作表.6058</title>
			<path d="M0 230.7 L86.38 230.7" class="st1"/>
		</g>
		<g id="shape6057-4" v:mID="6057" v:groupContext="shape" transform="translate(532.835,-76.6783) rotate(29.4784)">
			<title>工作表.6057</title>
			<path d="M0 230.7 L85.5 230.7" class="st1"/>
		</g>
		<g id="shape6056-7" v:mID="6056" v:groupContext="shape" transform="translate(533.327,324.715) rotate(150.381)">
			<title>工作表.6056</title>
			<path d="M0 230.7 L85.23 230.7" class="st1"/>
		</g>
		<g id="shape6016-10" v:mID="6016" v:groupContext="shape" v:layerMember="0"
				transform="translate(330.913,321.047) rotate(-61.5574) scale(1,-1)">
			<title>直线-弧线连接线</title>
			<v:userDefs>
				<v:ud v:nameU="Scale" v:val="VT0(1):26"/>
				<v:ud v:nameU="AntiScale" v:val="VT0(1):26"/>
				<v:ud v:nameU="visVersion" v:val="VT0(15):26"/>
			</v:userDefs>
			<path d="M0 230.7 L7.21 230.7" class="st2"/>
		</g>
		<g id="shape5622-16" v:mID="5622" v:groupContext="shape" transform="translate(160.973,-14.513)">
			<title>工作表.5622</title>
			<path d="M0 230.7 L74.2 174.18 L86.91 80.35 L0 129.16 L0 230.7 Z" class="st4"/>
		</g>
		<g id="shape5623-18" v:mID="5623" v:groupContext="shape" transform="translate(74.0615,-14.513)">
			<title>工作表.5623</title>
			<path d="M86.91 129.16 L0 80.35 L12.71 174.18 L86.91 230.7 L86.91 129.16 Z" class="st5"/>
		</g>
		<g id="shape5624-20" v:mID="5624" v:groupContext="shape" transform="translate(74.0615,-116.222)">
			<title>工作表.5624</title>
			<path d="M86.91 230.7 L173.82 181.89 L86.91 147.36 L0 181.89 L86.91 230.7 Z" class="st6"/>
		</g>
		<g id="shape5605-22" v:mID="5605" v:groupContext="shape" transform="translate(275.56,-14.513)">
			<title>工作表.5605</title>
			<desc>X</desc>
			<v:textBlock v:margins="rect(0,0,0,0)" v:tabSpace="42.5197"/>
			<v:textRect cx="5.37951" cy="224.247" width="10.76" height="12.9108"/>
			<rect x="0" y="217.792" width="10.759" height="12.9108" class="st7"/>
			<text x="2.45" y="227.63" class="st8" v:langID="2057"><v:paragraph v:horizAlign="1"/><v:tabList/>X</text>		</g>
		<g id="shape5606-25" v:mID="5606" v:groupContext="shape" transform="translate(256.65,-47.4542)">
			<title>工作表.5606</title>
			<desc>Y</desc>
			<v:textBlock v:margins="rect(0,0,0,0)" v:tabSpace="42.5197"/>
			<v:textRect cx="5.37951" cy="224.247" width="10.76" height="12.9108"/>
			<rect x="0" y="217.792" width="10.759" height="12.9108" class="st7"/>
			<text x="2.63" y="227.63" class="st8" v:langID="2057"><v:paragraph v:horizAlign="1"/><v:tabList/>Y</text>		</g>
		<g id="shape5607-28" v:mID="5607" v:groupContext="shape" transform="translate(239.28,-14.513)">
			<title>工作表.5607</title>
			<desc>Z</desc>
			<v:textBlock v:margins="rect(0,0,0,0)" v:tabSpace="42.5197"/>
			<v:textRect cx="5.37951" cy="224.247" width="10.76" height="12.9108"/>
			<rect x="0" y="217.792" width="10.759" height="12.9108" class="st7"/>
			<text x="2.74" y="227.63" class="st8" v:langID="2057"><v:paragraph v:horizAlign="1"/><v:tabList/>Z</text>		</g>
		<g id="shape5683-31" v:mID="5683" v:groupContext="shape" transform="translate(259.174,-32.3157)">
			<title>工作表.5683</title>
			<path d="M3.91 230.7 L3.86 230.68 L3.86 223.69 L4.03 223.64 L4.42 223.52 L4.81 223.41 L4.91 223.29 L5.01 223.18 L5.11
						 223.07 L5.21 222.96 L4.96 222.21 L4.72 221.45 L4.81 221.34 L4.91 221.23 L4.72 221.45 L5.21 222.96 L5.42
						 222.74 L5.51 222.62 L5.61 222.51 L5.54 222.26 L5.51 222.13 L5.33 221.51 L5.02 221 L4.71 220.48 L4.38 219.96
						 L4.07 219.44 L3.76 218.93 L3.44 218.41 L3.12 217.9 L2.81 217.38 L1.4 219.69 L0 221.99 L0.13 222.49 L0.28
						 223 L1.52 223.71 L1.75 223.73 L1.75 230.68 L1.7 230.7 L3.91 230.7 ZM3.91 220.29 L3.81 220.4 L4.01 220.17
						 L3.91 220.29 Z" class="st9"/>
		</g>
		<g id="shape5688-33" v:mID="5688" v:groupContext="shape" transform="translate(262.975,-24.6562)">
			<title>工作表.5688</title>
			<path d="M0 225.41 L0.36 225.62 L4.27 227.88 L5.06 228.33 L4.98 228.7 L4.92 228.9 L4.88 229.11 L4.83 229.3 L5.61 229.46
						 L6.38 229.62 L4.83 229.3 L4.92 229.58 L5.12 230.16 L5.21 230.44 L6.21 230.7 L11.06 230.58 L7.16 230.49 L8.13
						 230.51 L11.06 230.58 L9.76 228.21 L9.11 227.03 L8.46 225.84 L8.21 225.78 L7.96 225.71 L7.46 225.58 L7.31
						 225.67 L7.15 225.76 L6.84 225.94 L6.68 226.03 L6.38 226.21 L6.21 226.29 L6.08 226.49 L5.49 226.15 L3.53
						 225.02 L1.57 223.89 L0.11 223.04 L0 223.04 L0 225.41 Z" class="st10"/>
		</g>
		<g id="shape5693-35" v:mID="5693" v:groupContext="shape" transform="translate(249.931,-24.6562)">
			<title>工作表.5693</title>
			<path d="M11.03 223.04 L10.95 223.04 L4.98 226.49 L4.84 226.29 L4.53 226.12 L4.21 225.94 L3.91 225.76 L3.6 225.58 L3.09
						 225.71 L2.59 225.84 L1.29 228.21 L0 230.58 L1.21 230.6 L3.63 230.68 L4.84 230.7 L5.34 230.58 L5.59 230.51
						 L5.85 230.44 L5.94 230.16 L6.13 229.58 L6.22 229.3 L6.13 228.9 L5.99 228.33 L11.03 225.43 L11.03 223.04
						 Z" class="st11"/>
		</g>
		<g id="shape5695-37" v:mID="5695" v:groupContext="shape" transform="translate(259.174,-28.5482)">
			<title>圆形.5695</title>
			<v:userDefs>
				<v:ud v:nameU="visVersion" v:val="VT0(15):26"/>
			</v:userDefs>
			<path d="M0 227.9 A2.8062 2.8062 0 0 1 5.61 227.9 A2.8062 2.8062 0 0 1 0 227.9 Z" class="st12"/>
		</g>
		<g id="shape6010-39" v:mID="6010" v:groupContext="shape" transform="translate(142.779,-153.564)">
			<title>工作表.6010</title>
			<desc>Top</desc>
			<v:textBlock v:margins="rect(4,4,4,4)" v:tabSpace="42.5197"/>
			<v:textRect cx="18.1938" cy="221.172" width="36.39" height="19.0605"/>
			<rect x="0" y="211.642" width="36.3875" height="19.0605" class="st13"/>
			<text x="8.78" y="224.77" class="st14" v:langID="2052"><v:paragraph v:horizAlign="1"/><v:tabList/>Top</text>		</g>
		<g id="shape6011-42" v:mID="6011" v:groupContext="shape" transform="translate(99.3234,-86.0273)">
			<title>工作表.6011</title>
			<desc>Left</desc>
			<v:textBlock v:margins="rect(4,4,4,4)" v:tabSpace="42.5197"/>
			<v:textRect cx="18.1938" cy="221.172" width="36.39" height="19.0605"/>
			<rect x="0" y="211.642" width="36.3875" height="19.0605" class="st13"/>
			<text x="8.66" y="224.77" class="st14" v:langID="2052"><v:paragraph v:horizAlign="1"/><v:tabList/>Left</text>		</g>
		<g id="shape6012-45" v:mID="6012" v:groupContext="shape" transform="translate(186.235,-86.0273)">
			<title>工作表.6012</title>
			<desc>Front</desc>
			<v:textBlock v:margins="rect(4,4,4,4)" v:tabSpace="42.5197"/>
			<v:textRect cx="18.1938" cy="221.172" width="36.39" height="19.0605"/>
			<rect x="0" y="211.642" width="36.3875" height="19.0605" class="st13"/>
			<text x="4.78" y="224.77" class="st14" v:langID="2052"><v:paragraph v:horizAlign="1"/><v:tabList/>Front</text>		</g>
		<g id="shape6013-48" v:mID="6013" v:groupContext="shape" transform="translate(266.078,-117.019)">
			<title>工作表.6013</title>
			<desc>Right</desc>
			<v:textBlock v:margins="rect(4,4,4,4)" v:tabSpace="42.5197"/>
			<v:textRect cx="18.1938" cy="221.172" width="36.39" height="19.0605"/>
			<rect x="0" y="211.642" width="36.3875" height="19.0605" class="st13"/>
			<text x="5.2" y="224.77" class="st14" v:langID="2052"><v:paragraph v:horizAlign="1"/><v:tabList/>Right</text>		</g>
		<g id="shape6014-51" v:mID="6014" v:groupContext="shape" transform="translate(103.94,-0.473139)">
			<title>工作表.6014</title>
			<desc>Bottom</desc>
			<v:textBlock v:margins="rect(4,4,4,4)" v:tabSpace="42.5197"/>
			<v:textRect cx="24.1176" cy="221.172" width="48.24" height="19.0605"/>
			<rect x="0" y="211.642" width="48.2353" height="19.0605" class="st13"/>
			<text x="5.26" y="224.77" class="st14" v:langID="2052"><v:paragraph v:horizAlign="1"/><v:tabList/>Bottom</text>		</g>
		<g id="shape6015-54" v:mID="6015" v:groupContext="shape" transform="translate(13.2781,-119.796)">
			<title>工作表.6015</title>
			<desc>Back</desc>
			<v:textBlock v:margins="rect(4,4,4,4)" v:tabSpace="42.5197"/>
			<v:textRect cx="18.1938" cy="221.172" width="36.39" height="19.0605"/>
			<rect x="0" y="211.642" width="36.3875" height="19.0605" class="st13"/>
			<text x="6.48" y="224.77" class="st14" v:langID="2052"><v:paragraph v:horizAlign="1"/><v:tabList/>Back</text>		</g>
		<g id="shape6017-57" v:mID="6017" v:groupContext="shape" v:layerMember="0"
				transform="translate(266.078,-126.55) scale(-1,1)">
			<title>直线-弧线连接线.6017</title>
			<v:userDefs>
				<v:ud v:nameU="Scale" v:val="VT0(1):26"/>
				<v:ud v:nameU="AntiScale" v:val="VT0(1):26"/>
				<v:ud v:nameU="visVersion" v:val="VT0(15):26"/>
			</v:userDefs>
			<path d="M0 230.7 L15.73 230.7" class="st2"/>
		</g>
		<g id="shape6018-62" v:mID="6018" v:groupContext="shape" v:layerMember="0" transform="translate(44.5393,-129.326)">
			<title>直线-弧线连接线.6018</title>
			<v:userDefs>
				<v:ud v:nameU="Scale" v:val="VT0(1):26"/>
				<v:ud v:nameU="AntiScale" v:val="VT0(1):26"/>
				<v:ud v:nameU="visVersion" v:val="VT0(15):26"/>
			</v:userDefs>
			<path d="M0 230.7 L15.73 230.7" class="st2"/>
		</g>
		<g id="shape6020-67" v:mID="6020" v:groupContext="shape" transform="translate(43.7013,-186.171)">
			<title>工作表.6020</title>
			<desc>Point0 (0, 0, 0)</desc>
			<v:textBlock v:margins="rect(4,4,4,4)" v:tabSpace="42.5197"/>
			<v:textRect cx="31.4533" cy="217.195" width="62.91" height="27.0148"/>
			<rect x="0" y="203.688" width="62.9066" height="27.0148" class="st15"/>
			<text x="15.22" y="213.59" class="st14" v:langID="2052"><v:paragraph v:horizAlign="1"/><v:tabList/>Point0<v:newlineChar/><tspan
						x="12.79" dy="1.2em" class="st16">(0, 0, 0)</tspan></text>		</g>
		<g id="shape6022-71" v:mID="6022" v:groupContext="shape" transform="translate(244.995,-162.251)">
			<title>圆形</title>
			<v:userDefs>
				<v:ud v:nameU="visVersion" v:val="VT0(15):26"/>
			</v:userDefs>
			<path d="M0 227.9 A2.8062 2.8062 0 0 1 5.61 227.9 A2.8062 2.8062 0 0 1 0 227.9 Z" class="st12"/>
		</g>
		<g id="shape6023-73" v:mID="6023" v:groupContext="shape" transform="translate(159.077,-196.873)">
			<title>圆形.6023</title>
			<v:userDefs>
				<v:ud v:nameU="visVersion" v:val="VT0(15):26"/>
			</v:userDefs>
			<path d="M0 227.9 A2.8062 2.8062 0 0 1 5.61 227.9 A2.8062 2.8062 0 0 1 0 227.9 Z" class="st12"/>
		</g>
		<g id="shape6024-75" v:mID="6024" v:groupContext="shape" transform="translate(71.2791,-162.251)">
			<title>圆形.6024</title>
			<v:userDefs>
				<v:ud v:nameU="visVersion" v:val="VT0(15):26"/>
			</v:userDefs>
			<path d="M0 227.9 A2.8062 2.8062 0 0 1 5.61 227.9 A2.8062 2.8062 0 0 1 0 227.9 Z" class="st12"/>
		</g>
		<g id="shape6025-77" v:mID="6025" v:groupContext="shape" transform="translate(157.936,-113.127)">
			<title>圆形.6025</title>
			<v:userDefs>
				<v:ud v:nameU="visVersion" v:val="VT0(15):26"/>
			</v:userDefs>
			<path d="M0 227.9 A2.8062 2.8062 0 0 1 5.61 227.9 A2.8062 2.8062 0 0 1 0 227.9 Z" class="st12"/>
		</g>
		<g id="shape6026-79" v:mID="6026" v:groupContext="shape" transform="translate(232.227,-68.1497)">
			<title>圆形.6026</title>
			<v:userDefs>
				<v:ud v:nameU="visVersion" v:val="VT0(15):26"/>
			</v:userDefs>
			<path d="M0 227.9 A2.8062 2.8062 0 0 1 5.61 227.9 A2.8062 2.8062 0 0 1 0 227.9 Z" class="st12"/>
		</g>
		<g id="shape6027-81" v:mID="6027" v:groupContext="shape" transform="translate(83.4358,-68.1497)">
			<title>圆形.6027</title>
			<v:userDefs>
				<v:ud v:nameU="visVersion" v:val="VT0(15):26"/>
			</v:userDefs>
			<path d="M0 227.9 A2.8062 2.8062 0 0 1 5.61 227.9 A2.8062 2.8062 0 0 1 0 227.9 Z" class="st12"/>
		</g>
		<g id="shape6028-83" v:mID="6028" v:groupContext="shape" transform="translate(158.113,-12.3833)">
			<title>圆形.6028</title>
			<v:userDefs>
				<v:ud v:nameU="visVersion" v:val="VT0(15):26"/>
			</v:userDefs>
			<path d="M0 227.9 A2.8062 2.8062 0 0 1 5.61 227.9 A2.8062 2.8062 0 0 1 0 227.9 Z" class="st12"/>
		</g>
		<g id="shape6029-85" v:mID="6029" v:groupContext="shape" transform="translate(250.943,-162.251)">
			<title>工作表.6029</title>
			<desc>(l, l, 0)</desc>
			<v:textBlock v:margins="rect(4,4,4,4)" v:tabSpace="42.5197"/>
			<v:textRect cx="22.3843" cy="221.172" width="44.77" height="19.0605"/>
			<rect x="0" y="211.642" width="44.7686" height="19.0605" class="st15"/>
			<text x="6.85" y="224.77" class="st14" v:langID="2052"><v:paragraph v:horizAlign="1"/><v:tabList/>(<tspan class="st17">l</tspan>, <tspan
						class="st17">l</tspan>, 0)</text>		</g>
		<g id="shape6030-90" v:mID="6030" v:groupContext="shape" transform="translate(240.331,-68.1497)">
			<title>工作表.6030</title>
			<desc>(l, 0, 0)</desc>
			<v:textBlock v:margins="rect(4,4,4,4)" v:tabSpace="42.5197"/>
			<v:textRect cx="22.3843" cy="221.172" width="44.77" height="19.0605"/>
			<rect x="0" y="211.642" width="44.7686" height="19.0605" class="st15"/>
			<text x="5.28" y="224.77" class="st14" v:langID="2052"><v:paragraph v:horizAlign="1"/><v:tabList/>(<tspan class="st17">l</tspan>, 0, 0)</text>		</g>
		<g id="shape6031-94" v:mID="6031" v:groupContext="shape" transform="translate(163.917,-199.574)">
			<title>工作表.6031</title>
			<desc>(0, l, 0)</desc>
			<v:textBlock v:margins="rect(4,4,4,4)" v:tabSpace="42.5197"/>
			<v:textRect cx="22.3843" cy="221.172" width="44.77" height="19.0605"/>
			<rect x="0" y="211.642" width="44.7686" height="19.0605" class="st15"/>
			<text x="5.28" y="224.77" class="st14" v:langID="2052"><v:paragraph v:horizAlign="1"/><v:tabList/>(0, <tspan
						class="st17">l</tspan>, 0)</text>		</g>
		<g id="shape6032-98" v:mID="6032" v:groupContext="shape" transform="translate(26.1416,-162.251)">
			<title>工作表.6032</title>
			<desc>(0, l, l)</desc>
			<v:textBlock v:margins="rect(4,4,4,4)" v:tabSpace="42.5197"/>
			<v:textRect cx="22.3843" cy="221.172" width="44.77" height="19.0605"/>
			<rect x="0" y="211.642" width="44.7686" height="19.0605" class="st15"/>
			<text x="6.85" y="224.77" class="st14" v:langID="2052"><v:paragraph v:horizAlign="1"/><v:tabList/>(0, <tspan
						class="st17">l</tspan>, <tspan class="st17">l</tspan>)</text>		</g>
		<g id="shape6033-103" v:mID="6033" v:groupContext="shape" transform="translate(35.0185,-58.9468)">
			<title>工作表.6033</title>
			<desc>(0, 0, l)</desc>
			<v:textBlock v:margins="rect(4,4,4,4)" v:tabSpace="42.5197"/>
			<v:textRect cx="22.3843" cy="221.172" width="44.77" height="19.0605"/>
			<rect x="0" y="211.642" width="44.7686" height="19.0605" class="st15"/>
			<text x="5.28" y="224.77" class="st14" v:langID="2052"><v:paragraph v:horizAlign="1"/><v:tabList/>(0, 0, <tspan
						class="st17">l</tspan>)</text>		</g>
		<g id="shape6034-107" v:mID="6034" v:groupContext="shape" transform="translate(139.499,-127.91)">
			<title>工作表.6034</title>
			<desc>(l, l, I)</desc>
			<v:textBlock v:margins="rect(4,4,4,4)" v:tabSpace="42.5197"/>
			<v:textRect cx="22.3843" cy="221.172" width="44.77" height="19.0605"/>
			<rect x="0" y="211.642" width="44.7686" height="19.0605" class="st15"/>
			<text x="8.29" y="224.77" class="st14" v:langID="2052"><v:paragraph v:horizAlign="1"/><v:tabList/>(<tspan class="st17">l</tspan>, <tspan
						class="st17">l</tspan>, <tspan class="st17">I</tspan>)</text>		</g>
		<g id="shape6035-113" v:mID="6035" v:groupContext="shape" transform="translate(167.391,-1.49944)">
			<title>工作表.6035</title>
			<desc>(l, 0, l)</desc>
			<v:textBlock v:margins="rect(4,4,4,4)" v:tabSpace="42.5197"/>
			<v:textRect cx="22.3843" cy="222.454" width="44.77" height="16.4963"/>
			<rect x="0" y="214.206" width="44.7686" height="16.4963" class="st15"/>
			<text x="6.85" y="226.05" class="st14" v:langID="2052"><v:paragraph v:horizAlign="1"/><v:tabList/>(<tspan class="st17">l</tspan>, 0, <tspan
						class="st17">l</tspan>)</text>		</g>
		<g id="shape6042-118" v:mID="6042" v:groupContext="shape" transform="translate(0.25,-211.654)">
			<title>工作表.6042</title>
			<desc>C3D8</desc>
			<v:textBlock v:margins="rect(4,4,4,4)" v:tabSpace="42.5197"/>
			<v:textRect cx="25.784" cy="222.454" width="51.57" height="16.4963"/>
			<rect x="0" y="214.206" width="51.568" height="16.4963" class="st15"/>
			<text x="6.22" y="227.85" class="st18" v:langID="2052"><v:paragraph v:horizAlign="1"/><v:tabList/>C3D8</text>		</g>
		<g id="shape6043-121" v:mID="6043" v:groupContext="shape" transform="translate(226.231,-191.47)">
			<title>工作表.6043</title>
			<desc>Element Size=l</desc>
			<v:textBlock v:margins="rect(4,4,4,4)" v:tabSpace="42.5197"/>
			<v:textRect cx="43.4557" cy="221.172" width="86.92" height="19.0605"/>
			<rect x="0" y="211.642" width="86.9114" height="19.0605" class="st13"/>
			<text x="7.3" y="224.77" class="st14" v:langID="2052"><v:paragraph v:horizAlign="1"/><v:tabList/>Element Size=<tspan
						class="st17">l</tspan></text>		</g>
		<g id="shape6045-125" v:mID="6045" v:groupContext="shape" transform="translate(116.513,197.17) rotate(-97.7102)">
			<title>工作表.6045</title>
			<path d="M0 230.7 L94.63 230.7" class="st19"/>
		</g>
		<g id="shape6046-128" v:mID="6046" v:groupContext="shape" transform="translate(279.54,406.268) rotate(-142.702)">
			<title>工作表.6046</title>
			<path d="M0 230.7 L93.28 230.7" class="st19"/>
		</g>
		<g id="shape6047-131" v:mID="6047" v:groupContext="shape" transform="translate(247.233,-142.01) rotate(-21.6709)">
			<title>工作表.6047</title>
			<path d="M0 230.7 L93.52 230.7" class="st19"/>
		</g>
		<g id="shape6048-134" v:mID="6048" v:groupContext="shape" transform="translate(264.919,135.268) rotate(-82.2898)">
			<title>工作表.6048</title>
			<path d="M0 230.7 L94.63 230.7" class="st19"/>
		</g>
		<g id="shape6049-137" v:mID="6049" v:groupContext="shape" transform="translate(279.529,39.2328) rotate(-37.3017)">
			<title>工作表.6049</title>
			<path d="M0 230.7 L93.28 230.7" class="st19"/>
		</g>
		<g id="shape6050-140" v:mID="6050" v:groupContext="shape" transform="translate(332.426,-7.95598)">
			<title>工作表.6050</title>
			<path d="M173.81 80.34 L86.9 45.81 L173.81 80.34 ZM86.91 129.16 L173.82 80.34 L86.91 129.16 ZM86.91 129.16 L86.91 230.7
						 L86.91 129.16 ZM0 80.34 L86.91 129.16 L0 80.34 Z" class="st20"/>
			<path d="M173.81 80.34 L86.9 45.81M86.91 129.16 L173.82 80.34M86.91 129.16 L86.91 230.7M0 80.34 L86.91 129.16"
					class="st19"/>
		</g>
		<g id="shape6051-143" v:mID="6051" v:groupContext="shape" transform="translate(218.029,121.746) rotate(-62.202)">
			<title>工作表.6051</title>
			<path d="M0 230.7 L2.42 230.7" class="st21"/>
		</g>
		<g id="shape6052-146" v:mID="6052" v:groupContext="shape" transform="translate(325.307,-0.469806)">
			<title>工作表.6052</title>
			<path d="M94.03 223.22 L97.94 227.67 L96.78 225.56 L94.03 223.22 ZM94.03 223.22 L96.77 225.55 L94.03 224.68 L91.28 225.55
						 L94.03 223.22 ZM94.03 223.22 L91.28 225.55 L90.12 227.66 L94.03 223.22 ZM94.03 223.22 L90.12 227.67 L91.25
						 229.81 L94.03 223.22 ZM94.03 223.22 L91.25 229.81 L94.03 230.7 L94.03 223.22 ZM94.03 223.22 L94.03 230.7
						 L96.81 229.81 L94.03 223.22 ZM80.04 217.01 L81.25 214.95 L80.04 217.01 ZM77.22 210.41 L81.25 214.96 L80.19
						 212.91 L77.22 210.41 ZM77.22 210.41 L80.2 212.91 L77.5 212.08 L74.73 212.91 L77.22 210.41 ZM77.22 210.41
						 L74.73 212.91 L73.48 214.96 L77.22 210.41 ZM77.22 210.41 L73.48 214.96 L74.51 217.02 L77.22 210.41 ZM77.22
						 210.41 L74.51 217.02 L77.24 217.88 L77.22 210.41 ZM77.22 210.41 L77.24 217.87 L80.04 217.01 L77.22 210.41
						 ZM64.36 205.05 L65.65 203.06 L64.36 205.05 ZM61.49 198.43 L65.65 203.06 L64.68 201.1 L61.49 198.43 ZM61.49
						 198.43 L64.69 201.1 L62.03 200.29 L59.23 201.1 L61.49 198.43 ZM61.49 198.43 L59.23 201.1 L57.91 203.06 L61.49
						 198.43 ZM61.49 198.43 L57.91 203.06 L58.86 205.05 L61.49 198.43 ZM61.49 198.43 L58.86 205.05 L61.54 205.89
						 L61.49 198.43 ZM61.49 198.43 L61.54 205.89 L64.36 205.05 L61.49 198.43 ZM49.66 193.85 L51.03 191.93 L49.66
						 193.85 ZM46.74 187.19 L51.03 191.93 L50.13 190.02 L46.74 187.19 ZM46.74 187.19 L50.13 190.03 L47.52 189.25
						 L44.69 190.03 L46.74 187.19 ZM46.74 187.19 L43.29 191.93 L44.16 193.85 L46.74 187.19 ZM46.74 187.19 L44.15
						 193.85 L46.8 194.66 L46.74 187.19 ZM46.74 187.19 L46.8 194.66 L49.66 193.85 L46.74 187.19 ZM35.85 183.34
						 L37.31 181.46 L35.85 183.34 ZM32.88 176.63 L37.31 181.46 L36.48 179.62 L32.88 176.63 ZM32.88 176.63 L36.47
						 179.62 L33.88 178.86 L32.88 176.63 ZM32.88 176.63 L33.88 178.86 L31.02 179.62 L32.88 176.63 ZM32.88 176.63
						 L31.03 179.62 L32.88 176.63 ZM32.88 176.63 L29.55 181.46 L30.34 183.34 L32.88 176.63 ZM32.88 176.63 L30.34
						 183.34 L32.96 184.12 L32.88 176.63 ZM32.88 176.63 L32.96 184.13 L35.85 183.35 L32.88 176.63 ZM22.85 173.45
						 L24.38 171.63 L22.85 173.45 ZM19.82 166.69 L24.38 171.63 L23.62 169.82 L19.82 166.69 ZM19.82 166.69 L23.62
						 169.82 L21.05 169.07 L19.82 166.69 ZM19.82 166.69 L21.05 169.08 L18.16 169.83 L19.82 166.69 ZM19.82 166.69
						 L18.16 169.82 L16.6 171.63 L19.82 166.69 ZM19.82 166.69 L16.6 171.63 L17.33 173.45 L19.82 166.69 ZM19.82
						 166.69 L17.33 173.45 L19.93 174.21 L19.82 166.69 ZM19.82 166.69 L19.93 174.21 L22.86 173.45 L19.82 166.69
						 ZM96.74 131.36 L97.84 129.8 L96.71 128.25 L96.74 131.36 ZM94.03 124.59 L96.71 128.25 L94.03 127.62 L91.35
						 128.25 L94.03 124.59 ZM94.03 124.59 L90.22 129.8 L91.32 131.36 L94.03 124.59 ZM94.03 124.59 L91.31 131.36
						 L94.03 132.02 L94.03 124.59 ZM94.03 124.59 L94.03 132.02 L96.74 131.36 L94.03 124.59 ZM80.74 132.13 L83.5
						 138.88 L84.67 137.27 L80.74 132.13 ZM80.74 132.13 L84.67 137.27 L83.6 135.69 L80.74 132.13 ZM80.74 132.13
						 L83.61 135.69 L80.96 135.03 L78.24 135.69 L80.74 132.13 ZM80.74 132.13 L78.24 135.69 L80.74 132.13 ZM80.74
						 132.13 L77.04 137.27 L78.07 138.88 L80.74 132.13 ZM80.74 132.13 L78.08 138.88 L80.76 139.55 L80.74 132.13
						 ZM80.74 132.13 L80.76 139.55 L83.5 138.88 L80.74 132.13 ZM69.55 146.81 L70.8 145.16 L69.55 146.81 ZM66.74
						 140.07 L70.8 145.16 L69.81 143.53 L66.74 140.07 ZM66.74 140.07 L69.81 143.53 L67.19 142.86 L66.74 140.07
						 ZM66.74 140.07 L67.18 142.85 L64.43 143.52 L66.74 140.07 ZM63.16 145.16 L66.74 140.07 L63.16 145.16 L64.12
						 146.81 L63.16 145.16 ZM66.74 140.07 L64.12 146.81 L66.77 147.5 L66.74 140.07 ZM66.74 140.07 L66.77 147.5
						 L69.55 146.81 L66.74 140.07 ZM54.84 155.19 L56.18 153.48 L54.84 155.19 ZM51.96 148.45 L56.18 153.48 L55.26
						 151.8 L51.96 148.45 ZM51.96 148.45 L55.25 151.81 L52.65 151.12 L51.96 148.45 ZM51.96 148.45 L52.65 151.11
						 L49.87 151.8 L51.96 148.45 ZM51.96 148.45 L49.87 151.81 L48.5 153.49 L51.96 148.45 ZM51.96 148.45 L48.5
						 153.48 L49.38 155.19 L51.96 148.45 ZM51.96 148.45 L49.39 155.19 L52.03 155.89 L51.96 148.45 ZM51.96 148.45
						 L52.03 155.89 L54.84 155.19 L51.96 148.45 ZM39.3 164.05 L40.72 162.3 L39.3 164.05 ZM36.36 157.31 L40.72
						 162.3 L39.89 160.56 L36.36 157.31 ZM36.36 157.31 L39.89 160.56 L37.3 159.84 L36.36 157.31 ZM36.36 157.31
						 L37.31 159.84 L34.47 160.56 L36.36 157.31 ZM36.36 157.31 L34.46 160.56 L33.01 162.3 L36.36 157.31 ZM36.36
						 157.31 L33.01 162.3 L33.82 164.05 L36.36 157.31 ZM36.36 157.31 L33.83 164.05 L36.44 164.79 L36.36 157.31
						 ZM36.36 157.31 L36.44 164.79 L39.3 164.05 L36.36 157.31 ZM170.72 173.45 L171.45 171.63 L170.72 173.45 ZM168.23
						 166.69 L171.45 171.63 L169.9 169.82 L168.23 166.69 ZM168.23 166.69 L169.9 169.82 L167 169.07 L164.44 169.82
						 L168.23 166.69 ZM168.23 166.69 L164.43 169.82 L163.66 171.63 L168.23 166.69 ZM168.23 166.69 L163.67 171.63
						 L165.2 173.45 L168.23 166.69 ZM168.23 166.69 L165.2 173.45 L168.13 174.21 L168.23 166.69 ZM168.23 166.69
						 L168.12 174.21 L170.72 173.45 L168.23 166.69 ZM154.23 164.05 L155.04 162.3 L154.23 164.05 ZM151.7 157.31
						 L155.04 162.3 L153.59 160.56 L151.7 157.31 ZM151.7 157.31 L153.59 160.56 L150.75 159.84 L151.7 157.31 ZM151.7
						 157.31 L150.75 159.84 L148.15 160.56 L151.7 157.31 ZM151.7 157.31 L148.16 160.56 L147.33 162.3 L151.7 157.31
						 ZM151.7 157.31 L147.33 162.3 L148.75 164.05 L151.7 157.31 ZM151.7 157.31 L148.75 164.05 L151.62 164.79 L151.7
						 157.31 ZM151.7 157.31 L151.62 164.79 L154.22 164.05 L151.7 157.31 ZM138.66 155.19 L139.54 153.48 L138.66
						 155.19 ZM136.08 148.45 L139.54 153.48 L138.18 151.8 L136.08 148.45 ZM136.08 148.45 L138.18 151.81 L135.4
						 151.12 L136.08 148.45 ZM136.08 148.45 L135.4 151.11 L132.79 151.8 L136.08 148.45 ZM136.08 148.45 L132.79
						 151.81 L131.87 153.49 L136.08 148.45 ZM136.08 148.45 L131.87 153.48 L133.2 155.19 L136.08 148.45 ZM136.08
						 148.45 L133.2 155.19 L136.02 155.89 L136.08 148.45 ZM136.08 148.45 L136.02 155.89 L138.66 155.19 L136.08
						 148.45 ZM123.93 146.81 L124.89 145.16 L123.93 146.81 ZM121.31 140.07 L124.89 145.16 L123.62 143.53 L121.31
						 140.07 ZM121.31 140.07 L123.62 143.53 L120.87 142.86 L121.31 140.07 ZM121.31 140.07 L120.87 142.85 L118.25
						 143.52 L121.31 140.07 ZM121.31 140.07 L118.24 143.53 L117.25 145.16 L121.31 140.07 ZM121.31 140.07 L117.25
						 145.16 L118.51 146.81 L121.31 140.07 ZM121.31 140.07 L118.5 146.81 L121.27 147.5 L121.31 140.07 ZM121.31
						 140.07 L121.28 147.5 L123.93 146.81 L121.31 140.07 ZM109.97 138.88 L111 137.27 L109.97 138.88 ZM107.31 132.13
						 L111.01 137.27 L109.81 135.69 L107.31 132.13 ZM107.31 132.13 L109.81 135.69 L107.09 135.03 L104.44 135.69
						 L107.31 132.13 ZM107.31 132.13 L104.44 135.69 L107.31 132.13 ZM107.31 132.13 L103.38 137.27 L104.56 138.88
						 L107.31 132.13 ZM107.31 132.13 L104.56 138.88 L107.29 139.55 L107.31 132.13 ZM107.31 132.13 L107.29 139.55
						 L109.97 138.88 L107.31 132.13 ZM157.71 183.34 L158.5 181.46 L157.71 183.34 ZM155.17 176.63 L158.5 181.46
						 L157.02 179.62 L155.17 176.63 ZM155.17 176.63 L157.02 179.62 L154.16 178.86 L151.57 179.62 L155.17 176.63
						 ZM155.17 176.63 L151.58 179.62 L150.75 181.46 L155.17 176.63 ZM155.17 176.63 L150.75 181.46 L152.2 183.34
						 L155.17 176.63 ZM155.17 176.63 L152.2 183.34 L155.09 184.12 L155.17 176.63 ZM155.17 176.63 L155.09 184.13
						 L157.71 183.35 L155.17 176.63 ZM143.9 193.85 L144.77 191.93 L143.37 190.02 L143.9 193.85 ZM141.31 187.19
						 L143.36 190.03 L140.53 189.25 L141.31 187.19 ZM141.31 187.19 L140.53 189.24 L137.92 190.02 L141.31 187.19
						 ZM141.31 187.19 L137.92 190.03 L137.02 191.94 L141.31 187.19 ZM141.31 187.19 L137.02 191.93 L138.39 193.85
						 L141.31 187.19 ZM141.31 187.19 L138.38 193.85 L141.24 194.66 L141.31 187.19 ZM141.31 187.19 L141.25 194.66
						 L143.9 193.85 L141.31 187.19 ZM129.2 205.05 L130.14 203.06 L129.2 205.05 ZM126.56 198.43 L130.14 203.06
						 L128.82 201.1 L126.56 198.43 ZM126.56 198.43 L128.82 201.1 L126.02 200.29 L123.37 201.1 L126.56 198.43 ZM126.56
						 198.43 L123.37 201.1 L122.39 203.06 L126.56 198.43 ZM126.56 198.43 L122.4 203.06 L123.69 205.05 L126.56
						 198.43 ZM126.56 198.43 L123.69 205.05 L126.51 205.89 L126.56 198.43 ZM126.56 198.43 L126.51 205.89 L129.19
						 205.05 L126.56 198.43 ZM113.54 217.01 L114.57 214.95 L113.54 217.01 ZM110.83 210.41 L114.57 214.96 L113.32
						 212.91 L110.83 210.41 ZM110.83 210.41 L113.32 212.91 L110.55 212.08 L107.85 212.91 L110.83 210.41 ZM110.83
						 210.41 L107.85 212.91 L106.79 214.96 L110.83 210.41 ZM110.83 210.41 L106.8 214.96 L108.01 217.02 L110.83
						 210.41 ZM110.83 210.41 L108.01 217.02 L110.81 217.88 L110.83 210.41 ZM110.83 210.41 L110.81 217.87 L113.54
						 217.01 L110.83 210.41 ZM19.08 161.96 L17.87 160.35 L19.08 161.96 ZM19.82 166.69 L17.87 160.35 L15.5 160.71
						 L19.82 166.69 ZM19.82 166.69 L15.49 160.71 L13.36 162.84 L19.82 166.69 ZM19.82 166.69 L13.36 162.85 L12.73
						 165.5 L19.82 166.69 L12.73 165.5 L13.98 167.08 L19.82 166.69 ZM19.82 166.69 L13.98 167.07 L16.34 166.68
						 L19.82 166.69 ZM19.82 166.69 L16.34 166.68 L18.44 164.56 L19.82 166.69 ZM19.82 166.69 L18.44 164.56 L19.08
						 161.96 L19.82 166.69 ZM16.87 145.69 L15.65 144.01 L16.87 145.69 ZM17.59 150.18 L15.65 144.01 L13.28 144.28
						 L17.59 150.18 ZM17.59 150.18 L13.28 144.28 L11.14 146.38 L17.59 150.18 ZM17.59 150.18 L11.14 146.37 L10.52
						 149.04 L17.59 150.18 ZM17.59 150.18 L10.52 149.05 L11.77 150.72 L17.59 150.18 ZM17.59 150.18 L11.77 150.72
						 L14.15 150.41 L17.59 150.18 ZM17.59 150.18 L14.15 150.41 L16.25 148.34 L17.59 150.18 ZM17.59 150.18 L16.25
						 148.34 L16.87 145.69 L17.59 150.18 ZM14.53 128.42 L13.3 126.64 L14.53 128.42 ZM15.21 132.66 L13.3 126.64
						 L10.9 126.82 L15.21 132.66 ZM15.21 132.66 L10.91 126.81 L8.77 128.87 L15.21 132.66 ZM15.21 132.66 L8.77
						 128.87 L8.15 131.59 L15.21 132.66 ZM15.21 132.66 L8.15 131.59 L9.41 133.35 L15.21 132.66 ZM15.21 132.66
						 L9.42 133.35 L11.81 133.13 L15.21 132.66 ZM15.21 132.66 L11.81 133.13 L13.91 131.1 L15.21 132.66 ZM15.21
						 132.66 L13.91 131.1 L14.53 128.42 L15.21 132.66 ZM12.04 110.03 L10.79 108.14 L12.04 110.03 ZM12.69 114 L10.79
						 108.14 L8.39 108.22 L12.69 114 ZM12.69 114 L8.38 108.22 L6.23 110.23 L12.69 114 ZM12.69 114 L6.23 110.23
						 L5.62 112.99 L12.69 114 ZM12.69 114 L5.62 112.99 L6.9 114.86 L12.69 114 ZM12.69 114 L6.9 114.86 L9.31 114.75
						 L12.69 114 ZM12.69 114 L9.31 114.75 L11.42 112.75 L12.69 114 ZM12.69 114 L11.42 112.74 L12.04 110.02 L12.69
						 114 ZM9.38 90.4 L8.11 88.4 L9.38 90.4 ZM10 94.11 L8.11 88.41 L5.68 88.38 L10 94.11 ZM10 94.11 L5.68 88.38
						 L3.51 90.36 L10 94.11 ZM10 94.11 L3.51 90.36 L2.9 93.18 L10 94.11 ZM10 94.11 L2.91 93.18 L4.22 95.16 L10
						 94.11 ZM10 94.11 L4.21 95.16 L6.63 95.15 L10 94.11 ZM10 94.11 L6.63 95.15 L8.77 93.19 L10 94.11 ZM10 94.11
						 L8.77 93.19 L9.38 90.41 L10 94.11 ZM6.54 69.43 L5.24 67.31 L6.54 69.43 ZM7.12 72.86 L5.25 67.31 L2.79 67.16
						 L7.12 72.86 ZM7.12 72.86 L2.79 67.16 L0.6 69.11 L7.12 72.86 ZM7.12 72.86 L0.6 69.11 L0 72 L7.12 72.86 ZM7.12
						 72.86 L0 71.99 L1.33 74.09 L7.12 72.86 ZM7.12 72.86 L1.33 74.1 L3.78 74.21 L7.12 72.86 ZM7.12 72.86 L3.78
						 74.21 L5.94 72.28 L7.12 72.86 ZM7.12 72.86 L5.93 72.28 L6.54 69.43 L7.12 72.86 ZM92.2 35.42 L91.39 33.12
						 L92.2 35.42 ZM94.03 38.32 L91.39 33.12 L89.41 32.79 L94.03 38.32 ZM94.03 38.32 L89.41 32.79 L87.44 34.65
						 L94.03 38.32 ZM94.03 38.32 L87.43 34.65 L86.63 37.59 L94.03 38.32 ZM94.03 38.32 L86.63 37.59 L87.49 39.88
						 L94.03 38.32 ZM94.03 38.32 L87.49 39.87 L89.46 40.16 L94.03 38.32 ZM94.03 38.32 L89.46 40.17 L91.4 38.32
						 L94.03 38.32 ZM94.03 38.32 L91.41 38.32 L92.21 35.42 L94.03 38.32 ZM77.14 41.41 L76.24 39.15 L77.14 41.41
						 ZM78.74 44.4 L76.24 39.16 L74.19 38.87 L78.74 44.4 Z" class="st20"/>
			<path d="M94.03 223.22 L97.94 227.67 L96.78 225.56M94.03 223.22 L96.77 225.55 L94.03 224.68 L91.28 225.55M94.03 223.22
						 L91.28 225.55 L90.12 227.66M94.03 223.22 L90.12 227.67 L91.25 229.81M94.03 223.22 L91.25 229.81 L94.03 230.7M94.03
						 223.22 L94.03 230.7 L96.81 229.81 L94.03 223.22M80.04 217.01 L81.25 214.95M77.22 210.41 L81.25 214.96 L80.19
						 212.91M77.22 210.41 L80.2 212.91 L77.5 212.08 L74.73 212.91M77.22 210.41 L74.73 212.91 L73.48 214.96M77.22
						 210.41 L73.48 214.96 L74.51 217.02M77.22 210.41 L74.51 217.02 L77.24 217.88M77.22 210.41 L77.24 217.87 L80.04
						 217.01 L77.22 210.41M64.36 205.05 L65.65 203.06M61.49 198.43 L65.65 203.06 L64.68 201.1M61.49 198.43 L64.69
						 201.1 L62.03 200.29 L59.23 201.1M61.49 198.43 L59.23 201.1 L57.91 203.06M61.49 198.43 L57.91 203.06 L58.86
						 205.05M61.49 198.43 L58.86 205.05 L61.54 205.89M61.49 198.43 L61.54 205.89 L64.36 205.05 L61.49 198.43M49.66
						 193.85 L51.03 191.93M46.74 187.19 L51.03 191.93 L50.13 190.02M46.74 187.19 L50.13 190.03 L47.52 189.25 L44.69
						 190.03M46.74 187.19 L43.29 191.93 L44.16 193.85M46.74 187.19 L44.15 193.85 L46.8 194.66M46.74 187.19 L46.8
						 194.66 L49.66 193.85 L46.74 187.19M35.85 183.34 L37.31 181.46M32.88 176.63 L37.31 181.46 L36.48 179.62M32.88
						 176.63 L36.47 179.62 L33.88 178.86M32.88 176.63 L33.88 178.86 L31.02 179.62M32.88 176.63 L31.03 179.62M32.88
						 176.63 L29.55 181.46 L30.34 183.34M32.88 176.63 L30.34 183.34 L32.96 184.12M32.88 176.63 L32.96 184.13 L35.85
						 183.35 L32.88 176.63M22.85 173.45 L24.38 171.63M19.82 166.69 L24.38 171.63 L23.62 169.82M19.82 166.69 L23.62
						 169.82 L21.05 169.07M19.82 166.69 L21.05 169.08 L18.16 169.83M19.82 166.69 L18.16 169.82 L16.6 171.63M19.82
						 166.69 L16.6 171.63 L17.33 173.45M19.82 166.69 L17.33 173.45 L19.93 174.21M19.82 166.69 L19.93 174.21 L22.86
						 173.45 L19.82 166.69M96.74 131.36 L97.84 129.8 L96.71 128.25M94.03 124.59 L96.71 128.25 L94.03 127.62 L91.35
						 128.25M94.03 124.59 L90.22 129.8 L91.32 131.36M94.03 124.59 L91.31 131.36 L94.03 132.02M94.03 124.59 L94.03
						 132.02 L96.74 131.36 L94.03 124.59M80.74 132.13 L83.5 138.88 L84.67 137.27M80.74 132.13 L84.67 137.27 L83.6
						 135.69M80.74 132.13 L83.61 135.69 L80.96 135.03 L78.24 135.69M80.74 132.13 L78.24 135.69M80.74 132.13 L77.04
						 137.27 L78.07 138.88M80.74 132.13 L78.08 138.88 L80.76 139.55M80.74 132.13 L80.76 139.55 L83.5 138.88 L80.74
						 132.13M69.55 146.81 L70.8 145.16M66.74 140.07 L70.8 145.16 L69.81 143.53M66.74 140.07 L69.81 143.53 L67.19
						 142.86M66.74 140.07 L67.18 142.85 L64.43 143.52M63.16 145.16 L66.74 140.07 L63.16 145.16 L64.12 146.81M66.74
						 140.07 L64.12 146.81 L66.77 147.5M66.74 140.07 L66.77 147.5 L69.55 146.81 L66.74 140.07M54.84 155.19 L56.18
						 153.48M51.96 148.45 L56.18 153.48 L55.26 151.8M51.96 148.45 L55.25 151.81 L52.65 151.12M51.96 148.45 L52.65
						 151.11 L49.87 151.8M51.96 148.45 L49.87 151.81 L48.5 153.49M51.96 148.45 L48.5 153.48 L49.38 155.19M51.96
						 148.45 L49.39 155.19 L52.03 155.89M51.96 148.45 L52.03 155.89 L54.84 155.19 L51.96 148.45M39.3 164.05 L40.72
						 162.3M36.36 157.31 L40.72 162.3 L39.89 160.56M36.36 157.31 L39.89 160.56 L37.3 159.84M36.36 157.31 L37.31
						 159.84 L34.47 160.56M36.36 157.31 L34.46 160.56 L33.01 162.3M36.36 157.31 L33.01 162.3 L33.82 164.05M36.36
						 157.31 L33.83 164.05 L36.44 164.79M36.36 157.31 L36.44 164.79 L39.3 164.05 L36.36 157.31M170.72 173.45 L171.45
						 171.63M168.23 166.69 L171.45 171.63 L169.9 169.82M168.23 166.69 L169.9 169.82 L167 169.07 L164.44 169.82M168.23
						 166.69 L164.43 169.82 L163.66 171.63M168.23 166.69 L163.67 171.63 L165.2 173.45M168.23 166.69 L165.2 173.45
						 L168.13 174.21M168.23 166.69 L168.12 174.21 L170.72 173.45 L168.23 166.69M154.23 164.05 L155.04 162.3M151.7
						 157.31 L155.04 162.3 L153.59 160.56M151.7 157.31 L153.59 160.56 L150.75 159.84M151.7 157.31 L150.75 159.84
						 L148.15 160.56M151.7 157.31 L148.16 160.56 L147.33 162.3M151.7 157.31 L147.33 162.3 L148.75 164.05M151.7
						 157.31 L148.75 164.05 L151.62 164.79M151.7 157.31 L151.62 164.79 L154.22 164.05 L151.7 157.31M138.66 155.19
						 L139.54 153.48M136.08 148.45 L139.54 153.48 L138.18 151.8M136.08 148.45 L138.18 151.81 L135.4 151.12M136.08
						 148.45 L135.4 151.11 L132.79 151.8M136.08 148.45 L132.79 151.81 L131.87 153.49M136.08 148.45 L131.87 153.48
						 L133.2 155.19M136.08 148.45 L133.2 155.19 L136.02 155.89M136.08 148.45 L136.02 155.89 L138.66 155.19 L136.08
						 148.45M123.93 146.81 L124.89 145.16M121.31 140.07 L124.89 145.16 L123.62 143.53M121.31 140.07 L123.62 143.53
						 L120.87 142.86M121.31 140.07 L120.87 142.85 L118.25 143.52M121.31 140.07 L118.24 143.53 L117.25 145.16M121.31
						 140.07 L117.25 145.16 L118.51 146.81M121.31 140.07 L118.5 146.81 L121.27 147.5M121.31 140.07 L121.28 147.5
						 L123.93 146.81 L121.31 140.07M109.97 138.88 L111 137.27M107.31 132.13 L111.01 137.27 L109.81 135.69M107.31
						 132.13 L109.81 135.69 L107.09 135.03 L104.44 135.69M107.31 132.13 L104.44 135.69M107.31 132.13 L103.38 137.27
						 L104.56 138.88M107.31 132.13 L104.56 138.88 L107.29 139.55M107.31 132.13 L107.29 139.55 L109.97 138.88 L107.31
						 132.13M157.71 183.34 L158.5 181.46M155.17 176.63 L158.5 181.46 L157.02 179.62M155.17 176.63 L157.02 179.62
						 L154.16 178.86 L151.57 179.62M155.17 176.63 L151.58 179.62 L150.75 181.46M155.17 176.63 L150.75 181.46 L152.2
						 183.34M155.17 176.63 L152.2 183.34 L155.09 184.12M155.17 176.63 L155.09 184.13 L157.71 183.35 L155.17 176.63M143.9
						 193.85 L144.77 191.93 L143.37 190.02M141.31 187.19 L143.36 190.03 L140.53 189.25M141.31 187.19 L140.53 189.24
						 L137.92 190.02M141.31 187.19 L137.92 190.03 L137.02 191.94M141.31 187.19 L137.02 191.93 L138.39 193.85M141.31
						 187.19 L138.38 193.85 L141.24 194.66M141.31 187.19 L141.25 194.66 L143.9 193.85 L141.31 187.19M129.2 205.05
						 L130.14 203.06M126.56 198.43 L130.14 203.06 L128.82 201.1M126.56 198.43 L128.82 201.1 L126.02 200.29 L123.37
						 201.1M126.56 198.43 L123.37 201.1 L122.39 203.06M126.56 198.43 L122.4 203.06 L123.69 205.05M126.56 198.43
						 L123.69 205.05 L126.51 205.89M126.56 198.43 L126.51 205.89 L129.19 205.05 L126.56 198.43M113.54 217.01 L114.57
						 214.95M110.83 210.41 L114.57 214.96 L113.32 212.91M110.83 210.41 L113.32 212.91 L110.55 212.08 L107.85 212.91M110.83
						 210.41 L107.85 212.91 L106.79 214.96M110.83 210.41 L106.8 214.96 L108.01 217.02M110.83 210.41 L108.01 217.02
						 L110.81 217.88M110.83 210.41 L110.81 217.87 L113.54 217.01 L110.83 210.41M19.08 161.96 L17.87 160.35M19.82
						 166.69 L17.87 160.35 L15.5 160.71M19.82 166.69 L15.49 160.71 L13.36 162.84M19.82 166.69 L13.36 162.85 L12.73
						 165.5 L19.82 166.69 L12.73 165.5 L13.98 167.08M19.82 166.69 L13.98 167.07 L16.34 166.68M19.82 166.69 L16.34
						 166.68 L18.44 164.56M19.82 166.69 L18.44 164.56 L19.08 161.96 L19.82 166.69M16.87 145.69 L15.65 144.01M17.59
						 150.18 L15.65 144.01 L13.28 144.28M17.59 150.18 L13.28 144.28 L11.14 146.38M17.59 150.18 L11.14 146.37 L10.52
						 149.04M17.59 150.18 L10.52 149.05 L11.77 150.72M17.59 150.18 L11.77 150.72 L14.15 150.41M17.59 150.18 L14.15
						 150.41 L16.25 148.34M17.59 150.18 L16.25 148.34 L16.87 145.69 L17.59 150.18M14.53 128.42 L13.3 126.64M15.21
						 132.66 L13.3 126.64 L10.9 126.82M15.21 132.66 L10.91 126.81 L8.77 128.87M15.21 132.66 L8.77 128.87 L8.15
						 131.59M15.21 132.66 L8.15 131.59 L9.41 133.35M15.21 132.66 L9.42 133.35 L11.81 133.13M15.21 132.66 L11.81
						 133.13 L13.91 131.1M15.21 132.66 L13.91 131.1 L14.53 128.42 L15.21 132.66M12.04 110.03 L10.79 108.14M12.69
						 114 L10.79 108.14 L8.39 108.22M12.69 114 L8.38 108.22 L6.23 110.23M12.69 114 L6.23 110.23 L5.62 112.99M12.69
						 114 L5.62 112.99 L6.9 114.86M12.69 114 L6.9 114.86 L9.31 114.75M12.69 114 L9.31 114.75 L11.42 112.75M12.69
						 114 L11.42 112.74 L12.04 110.02 L12.69 114M9.38 90.4 L8.11 88.4M10 94.11 L8.11 88.41 L5.68 88.38M10 94.11
						 L5.68 88.38 L3.51 90.36M10 94.11 L3.51 90.36 L2.9 93.18M10 94.11 L2.91 93.18 L4.22 95.16M10 94.11 L4.21
						 95.16 L6.63 95.15M10 94.11 L6.63 95.15 L8.77 93.19M10 94.11 L8.77 93.19 L9.38 90.41 L10 94.11M6.54 69.43
						 L5.24 67.31M7.12 72.86 L5.25 67.31 L2.79 67.16M7.12 72.86 L2.79 67.16 L0.6 69.11M7.12 72.86 L0.6 69.11 L0
						 72M7.12 72.86 L0 71.99 L1.33 74.09M7.12 72.86 L1.33 74.1 L3.78 74.21M7.12 72.86 L3.78 74.21 L5.94 72.28M7.12
						 72.86 L5.93 72.28 L6.54 69.43 L7.12 72.86M92.2 35.42 L91.39 33.12M94.03 38.32 L91.39 33.12 L89.41 32.79M94.03
						 38.32 L89.41 32.79 L87.44 34.65M94.03 38.32 L87.43 34.65 L86.63 37.59M94.03 38.32 L86.63 37.59 L87.49 39.88M94.03
						 38.32 L87.49 39.87 L89.46 40.16M94.03 38.32 L89.46 40.17 L91.4 38.32M94.03 38.32 L91.41 38.32 L92.21 35.42
						 L94.03 38.32M77.14 41.41 L76.24 39.15M78.74 44.4 L76.24 39.16 L74.19 38.87" class="st21"/>
		</g>
		<g id="shape6053-149" v:mID="6053" v:groupContext="shape" transform="translate(344.951,-64.0978)">
			<title>工作表.6053</title>
			<path d="M59.1 108.03 L54.55 102.49 L52.54 104.35 L59.1 108.03 ZM59.1 108.03 L52.55 104.35 L51.78 107.27 L59.1 108.03
						 ZM59.1 108.03 L51.78 107.27 L52.72 109.52 L59.1 108.03 ZM59.1 108.03 L52.71 109.52 L54.76 109.78 L59.1 108.03
						 ZM59.1 108.03 L54.76 109.78 L56.73 107.93 L59.1 108.03 ZM59.1 108.03 L56.73 107.93 L57.5 105.04 L59.1 108.03
						 ZM42.85 114.48 L40.51 109.18 L38.36 108.92 L42.85 114.48 ZM42.85 114.48 L38.37 108.92 L36.33 110.8 L42.85
						 114.48 ZM42.85 114.48 L36.33 110.8 L35.6 113.7 L42.85 114.48 ZM42.85 114.48 L35.6 113.71 L36.62 115.92 L42.85
						 114.48 ZM42.85 114.48 L36.62 115.92 L38.76 116.14 L42.85 114.48 ZM42.85 114.48 L38.76 116.14 L40.77 114.28
						 L42.85 114.48 ZM42.85 114.48 L40.77 114.28 L41.49 111.41 L42.85 114.48 ZM24.47 118.17 L23.39 115.98 L24.47
						 118.17 ZM25.58 121.34 L23.39 115.98 L21.15 115.76 L25.58 121.34 ZM25.58 121.34 L21.15 115.76 L19.07 117.65
						 L25.58 121.34 ZM25.58 121.34 L19.07 117.65 L18.39 120.54 L25.58 121.34 ZM25.58 121.34 L18.39 120.54 L19.49
						 122.72 L25.58 121.34 ZM25.58 121.34 L19.49 122.71 L21.72 122.9 L25.58 121.34 ZM25.58 121.34 L21.72 122.9
						 L23.78 121.02 L25.58 121.34 ZM25.58 121.34 L23.78 121.02 L24.47 118.17 L25.58 121.34 ZM6.3 125.37 L5.12
						 123.22 L6.3 125.37 ZM7.15 128.67 L5.12 123.22 L2.78 123.04 L7.15 128.67 ZM7.15 128.67 L2.78 123.04 L0.65
						 124.95 L7.15 128.67 ZM7.15 128.67 L0.65 124.95 L0 127.84 L7.15 128.67 ZM7.15 128.67 L0 127.83 L1.21 129.98
						 L7.15 128.67 ZM7.15 128.67 L1.22 129.98 L3.56 130.13 L7.15 128.67 ZM7.15 128.67 L3.56 130.13 L5.65 128.23
						 L7.15 128.67 ZM7.15 128.67 L5.65 128.23 L6.3 125.38 L7.15 128.67 ZM74.39 188.21 L71.8 182.37 L69.88 182.5
						 L74.39 188.21 ZM74.39 188.21 L69.88 182.5 L67.95 184.5 L74.39 188.21 ZM74.39 188.21 L67.95 184.51 L67.17
						 187.2 L74.39 188.21 ZM74.39 188.21 L67.17 187.19 L67.99 188.96 L74.39 188.21 ZM74.39 188.21 L67.99 188.97
						 L69.92 188.81 L74.39 188.21 ZM74.39 188.21 L69.92 188.8 L71.82 186.82 L74.39 188.21 ZM74.39 188.21 L71.82
						 186.82 L72.6 184.16 L74.39 188.21 ZM74.39 172.77 L71.8 167.06 L69.87 167.11 L74.39 172.77 ZM74.39 172.77
						 L69.87 167.11 L67.93 169.07 L74.39 172.77 ZM74.39 172.77 L67.94 169.07 L67.16 171.8 L74.39 172.77 ZM74.39
						 172.77 L67.16 171.8 L67.99 173.66 L74.39 172.77 ZM74.39 172.77 L67.99 173.66 L69.91 173.57 L74.39 172.77
						 ZM74.39 172.77 L69.92 173.57 L71.82 171.62 L74.39 172.77 ZM74.39 172.77 L71.82 171.62 L72.6 168.93 L74.39
						 172.77 ZM74.39 156.5 L71.8 150.91 L69.86 150.87 L74.39 156.5 ZM74.39 156.5 L69.86 150.87 L67.92 152.82 L74.39
						 156.5 ZM74.39 156.5 L67.92 152.82 L67.14 155.58 L74.39 156.5 ZM74.39 156.5 L67.14 155.58 L67.98 157.53 L74.39
						 156.5 ZM74.39 156.5 L67.97 157.53 L69.9 157.53 L74.39 156.5 ZM74.39 156.5 L69.9 157.53 L71.81 155.61 L74.39
						 156.5 ZM74.39 156.5 L71.81 155.61 L72.59 152.87 L74.39 156.5 ZM72.58 135.93 L71.78 133.87 L72.58 135.93
						 ZM74.39 139.32 L71.78 133.87 L69.83 133.74 L74.39 139.32 ZM74.39 139.32 L69.84 133.74 L67.9 135.65 L74.39
						 139.32 ZM74.39 139.32 L67.9 135.65 L67.11 138.47 L74.39 139.32 ZM74.39 139.32 L67.11 138.47 L67.94 140.52
						 L74.39 139.32 ZM74.39 139.32 L67.94 140.51 L69.89 140.6 L74.39 139.32 ZM74.39 139.32 L69.89 140.61 L71.8
						 138.72 L74.39 139.32 ZM74.39 139.32 L71.8 138.71 L72.58 135.93 L74.39 139.32 ZM72.58 118.02 L71.77 115.84
						 L72.58 118.02 ZM74.39 121.16 L71.77 115.84 L69.81 115.61 L74.39 121.16 ZM74.39 121.16 L69.81 115.61 L67.86
						 117.5 L74.39 121.16 ZM74.39 121.16 L67.85 117.5 L67.06 120.37 L74.39 121.16 ZM74.39 121.16 L67.06 120.37
						 L67.9 122.53 L74.39 121.16 ZM74.39 121.16 L67.9 122.52 L69.85 122.71 L74.39 121.16 ZM74.39 121.16 L69.86
						 122.71 L71.79 120.85 L74.39 121.16 ZM74.39 121.16 L71.79 120.85 L72.58 118.02 L74.39 121.16 ZM61.1 195.75
						 L58.63 189.85 L56.63 190.02 L61.1 195.75 ZM61.1 195.75 L56.63 190.02 L54.67 192.03 L61.1 195.75 ZM61.1 195.75
						 L54.67 192.03 L53.92 194.71 L61.1 195.75 ZM61.1 195.75 L53.92 194.71 L54.81 196.45 L56.81 196.24 L61.1 195.75
						 ZM61.1 195.75 L56.82 196.23 L58.75 194.23 L61.1 195.75 ZM61.1 195.75 L58.75 194.23 L59.5 191.59 L61.1 195.75
						 ZM45.7 199.42 L44.76 197.71 L45.7 199.42 ZM47.1 203.7 L44.76 197.71 L42.68 197.92 L47.1 203.7 ZM47.1 203.7
						 L42.68 197.92 L40.68 199.97 L47.1 203.7 ZM47.1 203.7 L40.68 199.96 L39.96 202.61 L47.1 203.7 ZM47.1 203.7
						 L39.96 202.61 L40.94 204.31 L43.02 204.06 L47.1 203.7 ZM47.1 203.7 L43.01 204.07 L44.97 202.04 L47.1 203.7
						 ZM47.1 203.7 L44.97 202.04 L45.7 199.42 L47.1 203.7 ZM31.13 207.66 L30.11 205.98 L31.13 207.66 ZM32.32 212.08
						 L30.11 205.99 L27.94 206.25 L32.32 212.08 ZM32.32 212.08 L27.94 206.25 L25.9 208.32 L32.32 212.08 ZM32.32
						 212.08 L25.9 208.32 L25.21 210.97 L32.32 212.08 ZM32.32 212.08 L25.21 210.97 L26.27 212.62 L32.32 212.08
						 ZM32.32 212.08 L26.27 212.63 L28.44 212.33 L32.32 212.08 ZM32.32 212.08 L28.43 212.33 L30.43 210.28 L32.32
						 212.08 ZM32.32 212.08 L30.44 210.28 L31.13 207.66 L32.32 212.08 ZM15.73 216.38 L14.62 214.74 L15.73 216.38
						 ZM16.71 220.94 L14.62 214.73 L12.36 215.05 L16.71 220.94 ZM16.71 220.94 L12.36 215.05 L10.28 217.15 L16.71
						 220.94 ZM16.71 220.94 L10.27 217.14 L9.62 219.78 L16.71 220.94 ZM16.71 220.94 L9.62 219.78 L10.77 221.41
						 L16.71 220.94 ZM16.71 220.94 L10.76 221.41 L13.02 221.06 L16.71 220.94 L13.02 221.06 L15.07 218.98 L16.71
						 220.94 ZM16.71 220.94 L15.07 218.98 L15.73 216.38 L16.71 220.94 ZM155.68 229.12 L155.05 226.48 L155.68 229.12
						 ZM148.58 230.32 L155.05 226.48 L152.92 224.35 L148.58 230.32 ZM148.58 230.32 L152.92 224.34 L150.55 223.98
						 L148.58 230.32 ZM148.58 230.32 L150.54 223.98 L149.33 225.58 L148.58 230.32 ZM148.58 230.32 L149.34 225.58
						 L149.97 228.19 L148.58 230.32 ZM148.58 230.32 L149.97 228.19 L152.06 230.31 L148.58 230.32 ZM148.58 230.32
						 L152.06 230.31 L154.43 230.7 L148.58 230.32 ZM148.58 230.32 L154.43 230.7 L155.68 229.12 L148.58 230.32
						 ZM139.15 219.78 L138.5 217.14 L139.15 219.78 ZM132.05 220.94 L138.49 217.14 L136.41 215.04 L132.05 220.94
						 ZM132.05 220.94 L136.41 215.05 L134.14 214.73 L132.05 220.94 ZM132.05 220.94 L134.14 214.73 L133.03 216.37
						 L132.05 220.94 ZM132.05 220.94 L133.03 216.37 L133.69 218.98 L132.05 220.94 ZM132.05 220.94 L133.69 218.98
						 L135.74 221.06 L132.05 220.94 ZM132.05 220.94 L135.75 221.06 L132.05 220.94 ZM132.05 220.94 L138.01 221.41
						 L139.15 219.78 L132.05 220.94 ZM123.55 210.97 L122.86 208.32 L123.55 210.97 ZM116.43 212.08 L122.85 208.32
						 L120.82 206.24 L116.43 212.08 ZM116.43 212.08 L120.82 206.25 L118.65 205.99 L116.43 212.08 ZM116.43 212.08
						 L118.66 205.99 L117.64 207.67 L116.43 212.08 ZM116.43 212.08 L117.63 207.66 L118.32 210.28 L116.43 212.08
						 ZM116.43 212.08 L118.33 210.28 L120.33 212.33 L122.5 212.63 L116.43 212.08 ZM116.43 212.08 L122.5 212.63
						 L123.55 210.98 L116.43 212.08 ZM108.81 202.61 L108.09 199.96 L108.81 202.61 ZM101.67 203.7 L108.09 199.96
						 L106.09 197.92 L101.67 203.7 ZM101.67 203.7 L106.09 197.92 L104.01 197.71 L101.67 203.7 ZM101.67 203.7 L104.01
						 197.71 L103.07 199.42 L101.67 203.7 ZM101.67 203.7 L103.07 199.42 L103.79 202.04 L101.67 203.7 ZM101.67
						 203.7 L103.79 202.04 L105.76 204.07 L101.67 203.7 ZM101.67 203.7 L107.84 204.32 L108.81 202.62 L101.67 203.7
						 ZM94.85 194.71 L94.09 192.03 L94.85 194.71 ZM87.66 195.75 L94.08 192.03 L92.13 190.02 L87.66 195.75 ZM87.66
						 195.75 L92.13 190.02 L90.13 189.85 L87.66 195.75 ZM87.66 195.75 L90.13 189.85 L89.26 191.59 L87.66 195.75
						 ZM87.66 195.75 L89.26 191.59 L90.01 194.23 L87.66 195.75 ZM87.66 195.75 L90.01 194.23 L91.94 196.23 L87.66
						 195.75 ZM87.66 195.75 L91.94 196.23 L87.66 195.75 ZM87.66 195.75 L93.94 196.44 L94.84 194.7 L87.66 195.75
						 ZM81.6 187.19 L80.82 184.5 L81.6 187.19 ZM74.39 188.21 L80.82 184.51 L78.9 182.51 L74.39 188.21 ZM74.39
						 188.21 L78.9 182.5 L76.97 182.37 L76.17 184.16 L74.39 188.21 ZM74.39 188.21 L76.16 184.16 L76.94 186.82
						 L74.39 188.21 ZM74.39 188.21 L76.94 186.82 L78.84 188.8 L74.39 188.21 ZM74.39 188.21 L78.84 188.8 L80.77
						 188.96 L74.39 188.21 ZM74.39 188.21 L80.78 188.97 L81.6 187.2 L74.39 188.21 ZM81.61 171.81 L80.83 169.08
						 L81.61 171.81 ZM74.39 172.77 L80.83 169.07 L78.9 167.11 L74.39 172.77 ZM74.39 172.77 L78.9 167.11 L76.96
						 167.06 L74.39 172.77 ZM74.39 172.77 L76.97 167.06 L76.17 168.93 L74.39 172.77 ZM74.39 172.77 L76.17 168.93
						 L76.95 171.62 L74.39 172.77 ZM74.39 172.77 L76.95 171.62 L78.85 173.57 L74.39 172.77 ZM74.39 172.77 L78.85
						 173.57 L74.39 172.77 ZM74.39 172.77 L80.78 173.66 L81.61 171.8 L74.39 172.77 ZM81.62 155.58 L80.84 152.82
						 L74.38 156.5 L80.84 152.82 L78.91 150.87 L81.62 155.58 ZM74.39 156.5 L78.91 150.87 L76.98 150.91 L74.39
						 156.5 ZM74.39 156.5 L76.98 150.91 L76.18 152.87 L74.39 156.5 ZM74.39 156.5 L76.17 152.87 L76.95 155.61 L74.39
						 156.5 ZM74.39 156.5 L76.95 155.61 L78.86 157.53 L74.39 156.5 ZM74.39 156.5 L78.86 157.53 L80.8 157.53 L74.39
						 156.5 ZM74.39 156.5 L80.8 157.53 L81.63 155.58 L74.39 156.5 ZM81.66 138.47 L80.87 135.65 L81.66 138.47 ZM74.39
						 139.32 L80.88 135.65 L78.93 133.74 L74.39 139.32 ZM74.39 139.32 L78.93 133.74 L76.99 133.87 L74.39 139.32
						 ZM74.39 139.32 L76.99 133.87 L76.18 135.93 L74.39 139.32 ZM74.39 139.32 L76.18 135.93 L76.97 138.71 L74.39
						 139.32 ZM74.39 139.32 L76.97 138.71 L78.89 140.6 L74.39 139.32 ZM74.39 139.32 L78.88 140.61 L80.82 140.52
						 L74.39 139.32 ZM74.39 139.32 L80.82 140.51 L81.66 138.46 L74.39 139.32 ZM81.71 120.37 L80.92 117.5 L81.71
						 120.37 ZM74.39 121.16 L80.91 117.5 L78.96 115.61 L74.39 121.16 ZM74.39 121.16 L78.96 115.61 L77 115.84 L74.39
						 121.16 ZM74.39 121.16 L77 115.84 L76.19 118.02 L74.39 121.16 ZM74.39 121.16 L76.19 118.01 L76.98 120.84
						 L78.91 122.7 L74.39 121.16 ZM74.39 121.16 L78.91 122.71 L80.87 122.52 L74.39 121.16 ZM74.39 121.16 L80.87
						 122.52 L81.71 120.36 L74.39 121.16 ZM81.77 101.22 L80.98 98.28 L81.77 101.22 ZM74.39 101.95 L80.98 98.27
						 L79 96.42 L74.39 101.95 ZM74.39 101.95 L79 96.42 L77.03 96.75 L74.39 101.95 ZM74.39 101.95 L77.02 96.75
						 L76.21 99.04 L74.39 101.95 ZM74.39 101.95 L76.21 99.04 L77 101.95 L74.39 101.95 ZM74.39 101.95 L77 101.95
						 L78.95 103.8 L74.39 101.95 ZM74.39 101.95 L78.95 103.8 L80.92 103.51 L74.39 101.95 ZM74.39 101.95 L80.92
						 103.5 L81.77 101.21 L74.39 101.95 ZM96.99 107.27 L96.23 104.35 L96.99 107.27 ZM89.67 108.03 L96.23 104.35
						 L94.22 102.49 L89.67 108.03 ZM89.67 108.03 L94.23 102.49 L92.17 102.78 L89.67 108.03 ZM89.67 108.03 L92.17
						 102.79 L91.28 105.05 L89.67 108.03 ZM89.67 108.03 L91.27 105.04 L92.03 107.93 L89.67 108.03 ZM89.67 108.03
						 L92.03 107.93 L94 109.78 L89.67 108.03 ZM89.67 108.03 L94.01 109.78 L96.07 109.52 L89.67 108.03 ZM89.67
						 108.03 L96.07 109.52 L97 107.27 L89.67 108.03 ZM113.16 113.7 L112.44 110.8 L113.16 113.7 ZM105.9 114.48
						 L112.43 110.8 L110.38 108.92 L105.9 114.48 ZM105.9 114.48 L110.39 108.92 L108.25 109.18 L107.26 111.4 L105.9
						 114.48 ZM105.9 114.48 L107.26 111.41 L107.99 114.28 L105.9 114.48 ZM105.9 114.48 L107.99 114.28 L110 116.14
						 L105.9 114.48 ZM105.9 114.48 L110.01 116.14 L112.14 115.92 L105.9 114.48 ZM105.9 114.48 L112.14 115.92 L113.15
						 113.71 L105.9 114.48 ZM130.38 120.54 L129.69 117.65 L130.38 120.54 ZM123.19 121.34 L129.69 117.65 L127.61
						 115.76 L123.19 121.34 ZM123.19 121.34 L127.61 115.76 L125.37 115.98 L123.19 121.34 ZM123.19 121.34 L125.37
						 115.98 L124.3 118.17 L123.19 121.34 ZM123.19 121.34 L124.3 118.17 L124.99 121.02 L123.19 121.34 ZM123.19
						 121.34 L124.99 121.02 L127.04 122.9 L123.19 121.34 ZM123.19 121.34 L127.04 122.9 L129.27 122.71 L123.19
						 121.34 ZM123.19 121.34 L129.27 122.71 L130.38 120.53 L123.19 121.34 Z" class="st20"/>
			<path d="M59.1 108.03 L54.55 102.49 L52.54 104.35M59.1 108.03 L52.55 104.35 L51.78 107.27M59.1 108.03 L51.78 107.27 L52.72
						 109.52M59.1 108.03 L52.71 109.52 L54.76 109.78M59.1 108.03 L54.76 109.78 L56.73 107.93M59.1 108.03 L56.73
						 107.93 L57.5 105.04 L59.1 108.03M42.85 114.48 L40.51 109.18 L38.36 108.92M42.85 114.48 L38.37 108.92 L36.33
						 110.8M42.85 114.48 L36.33 110.8 L35.6 113.7M42.85 114.48 L35.6 113.71 L36.62 115.92M42.85 114.48 L36.62
						 115.92 L38.76 116.14M42.85 114.48 L38.76 116.14 L40.77 114.28M42.85 114.48 L40.77 114.28 L41.49 111.41 L42.85
						 114.48M24.47 118.17 L23.39 115.98M25.58 121.34 L23.39 115.98 L21.15 115.76M25.58 121.34 L21.15 115.76 L19.07
						 117.65M25.58 121.34 L19.07 117.65 L18.39 120.54M25.58 121.34 L18.39 120.54 L19.49 122.72M25.58 121.34 L19.49
						 122.71 L21.72 122.9M25.58 121.34 L21.72 122.9 L23.78 121.02M25.58 121.34 L23.78 121.02 L24.47 118.17 L25.58
						 121.34M6.3 125.37 L5.12 123.22M7.15 128.67 L5.12 123.22 L2.78 123.04M7.15 128.67 L2.78 123.04 L0.65 124.95M7.15
						 128.67 L0.65 124.95 L0 127.84M7.15 128.67 L0 127.83 L1.21 129.98M7.15 128.67 L1.22 129.98 L3.56 130.13M7.15
						 128.67 L3.56 130.13 L5.65 128.23M7.15 128.67 L5.65 128.23 L6.3 125.38 L7.15 128.67M74.39 188.21 L71.8 182.37
						 L69.88 182.5M74.39 188.21 L69.88 182.5 L67.95 184.5M74.39 188.21 L67.95 184.51 L67.17 187.2M74.39 188.21
						 L67.17 187.19 L67.99 188.96M74.39 188.21 L67.99 188.97 L69.92 188.81M74.39 188.21 L69.92 188.8 L71.82 186.82M74.39
						 188.21 L71.82 186.82 L72.6 184.16 L74.39 188.21M74.39 172.77 L71.8 167.06 L69.87 167.11M74.39 172.77 L69.87
						 167.11 L67.93 169.07M74.39 172.77 L67.94 169.07 L67.16 171.8M74.39 172.77 L67.16 171.8 L67.99 173.66M74.39
						 172.77 L67.99 173.66 L69.91 173.57M74.39 172.77 L69.92 173.57 L71.82 171.62M74.39 172.77 L71.82 171.62 L72.6
						 168.93 L74.39 172.77M74.39 156.5 L71.8 150.91 L69.86 150.87M74.39 156.5 L69.86 150.87 L67.92 152.82M74.39
						 156.5 L67.92 152.82 L67.14 155.58M74.39 156.5 L67.14 155.58 L67.98 157.53M74.39 156.5 L67.97 157.53 L69.9
						 157.53M74.39 156.5 L69.9 157.53 L71.81 155.61M74.39 156.5 L71.81 155.61 L72.59 152.87 L74.39 156.5M72.58
						 135.93 L71.78 133.87M74.39 139.32 L71.78 133.87 L69.83 133.74M74.39 139.32 L69.84 133.74 L67.9 135.65M74.39
						 139.32 L67.9 135.65 L67.11 138.47M74.39 139.32 L67.11 138.47 L67.94 140.52M74.39 139.32 L67.94 140.51 L69.89
						 140.6M74.39 139.32 L69.89 140.61 L71.8 138.72M74.39 139.32 L71.8 138.71 L72.58 135.93 L74.39 139.32M72.58
						 118.02 L71.77 115.84M74.39 121.16 L71.77 115.84 L69.81 115.61M74.39 121.16 L69.81 115.61 L67.86 117.5M74.39
						 121.16 L67.85 117.5 L67.06 120.37M74.39 121.16 L67.06 120.37 L67.9 122.53M74.39 121.16 L67.9 122.52 L69.85
						 122.71M74.39 121.16 L69.86 122.71 L71.79 120.85M74.39 121.16 L71.79 120.85 L72.58 118.02 L74.39 121.16M61.1
						 195.75 L58.63 189.85 L56.63 190.02M61.1 195.75 L56.63 190.02 L54.67 192.03M61.1 195.75 L54.67 192.03 L53.92
						 194.71M61.1 195.75 L53.92 194.71 L54.81 196.45 L56.81 196.24M61.1 195.75 L56.82 196.23 L58.75 194.23M61.1
						 195.75 L58.75 194.23 L59.5 191.59 L61.1 195.75M45.7 199.42 L44.76 197.71M47.1 203.7 L44.76 197.71 L42.68
						 197.92M47.1 203.7 L42.68 197.92 L40.68 199.97M47.1 203.7 L40.68 199.96 L39.96 202.61M47.1 203.7 L39.96 202.61
						 L40.94 204.31 L43.02 204.06M47.1 203.7 L43.01 204.07 L44.97 202.04M47.1 203.7 L44.97 202.04 L45.7 199.42
						 L47.1 203.7M31.13 207.66 L30.11 205.98M32.32 212.08 L30.11 205.99 L27.94 206.25M32.32 212.08 L27.94 206.25
						 L25.9 208.32M32.32 212.08 L25.9 208.32 L25.21 210.97M32.32 212.08 L25.21 210.97 L26.27 212.62M32.32 212.08
						 L26.27 212.63 L28.44 212.33M32.32 212.08 L28.43 212.33 L30.43 210.28M32.32 212.08 L30.44 210.28 L31.13 207.66
						 L32.32 212.08M15.73 216.38 L14.62 214.74M16.71 220.94 L14.62 214.73 L12.36 215.05M16.71 220.94 L12.36 215.05
						 L10.28 217.15M16.71 220.94 L10.27 217.14 L9.62 219.78M16.71 220.94 L9.62 219.78 L10.77 221.41M16.71 220.94
						 L10.76 221.41 L13.02 221.06 L16.71 220.94 L13.02 221.06 L15.07 218.98M16.71 220.94 L15.07 218.98 L15.73
						 216.38 L16.71 220.94M155.68 229.12 L155.05 226.48M148.58 230.32 L155.05 226.48 L152.92 224.35M148.58 230.32
						 L152.92 224.34 L150.55 223.98M148.58 230.32 L150.54 223.98 L149.33 225.58M148.58 230.32 L149.34 225.58 L149.97
						 228.19M148.58 230.32 L149.97 228.19 L152.06 230.31M148.58 230.32 L152.06 230.31 L154.43 230.7M148.58 230.32
						 L154.43 230.7 L155.68 229.12 L148.58 230.32M139.15 219.78 L138.5 217.14M132.05 220.94 L138.49 217.14 L136.41
						 215.04M132.05 220.94 L136.41 215.05 L134.14 214.73M132.05 220.94 L134.14 214.73 L133.03 216.37M132.05 220.94
						 L133.03 216.37 L133.69 218.98M132.05 220.94 L133.69 218.98 L135.74 221.06M132.05 220.94 L135.75 221.06M132.05
						 220.94 L138.01 221.41 L139.15 219.78 L132.05 220.94M123.55 210.97 L122.86 208.32M116.43 212.08 L122.85 208.32
						 L120.82 206.24M116.43 212.08 L120.82 206.25 L118.65 205.99M116.43 212.08 L118.66 205.99 L117.64 207.67M116.43
						 212.08 L117.63 207.66 L118.32 210.28M116.43 212.08 L118.33 210.28 L120.33 212.33 L122.5 212.63M116.43 212.08
						 L122.5 212.63 L123.55 210.98 L116.43 212.08M108.81 202.61 L108.09 199.96M101.67 203.7 L108.09 199.96 L106.09
						 197.92M101.67 203.7 L106.09 197.92 L104.01 197.71M101.67 203.7 L104.01 197.71 L103.07 199.42M101.67 203.7
						 L103.07 199.42 L103.79 202.04M101.67 203.7 L103.79 202.04 L105.76 204.07M101.67 203.7 L107.84 204.32 L108.81
						 202.62 L101.67 203.7M94.85 194.71 L94.09 192.03M87.66 195.75 L94.08 192.03 L92.13 190.02M87.66 195.75 L92.13
						 190.02 L90.13 189.85M87.66 195.75 L90.13 189.85 L89.26 191.59M87.66 195.75 L89.26 191.59 L90.01 194.23M87.66
						 195.75 L90.01 194.23 L91.94 196.23M87.66 195.75 L91.94 196.23M87.66 195.75 L93.94 196.44 L94.84 194.7 L87.66
						 195.75M81.6 187.19 L80.82 184.5M74.39 188.21 L80.82 184.51 L78.9 182.51M74.39 188.21 L78.9 182.5 L76.97
						 182.37 L76.17 184.16M74.39 188.21 L76.16 184.16 L76.94 186.82M74.39 188.21 L76.94 186.82 L78.84 188.8M74.39
						 188.21 L78.84 188.8 L80.77 188.96M74.39 188.21 L80.78 188.97 L81.6 187.2 L74.39 188.21M81.61 171.81 L80.83
						 169.08M74.39 172.77 L80.83 169.07 L78.9 167.11M74.39 172.77 L78.9 167.11 L76.96 167.06M74.39 172.77 L76.97
						 167.06 L76.17 168.93M74.39 172.77 L76.17 168.93 L76.95 171.62M74.39 172.77 L76.95 171.62 L78.85 173.57M74.39
						 172.77 L78.85 173.57M74.39 172.77 L80.78 173.66 L81.61 171.8 L74.39 172.77M81.62 155.58 L80.84 152.82 L74.38
						 156.5 L80.84 152.82 L78.91 150.87M74.39 156.5 L78.91 150.87 L76.98 150.91M74.39 156.5 L76.98 150.91 L76.18
						 152.87M74.39 156.5 L76.17 152.87 L76.95 155.61M74.39 156.5 L76.95 155.61 L78.86 157.53M74.39 156.5 L78.86
						 157.53 L80.8 157.53M74.39 156.5 L80.8 157.53 L81.63 155.58 L74.39 156.5M81.66 138.47 L80.87 135.65M74.39
						 139.32 L80.88 135.65 L78.93 133.74M74.39 139.32 L78.93 133.74 L76.99 133.87M74.39 139.32 L76.99 133.87 L76.18
						 135.93M74.39 139.32 L76.18 135.93 L76.97 138.71M74.39 139.32 L76.97 138.71 L78.89 140.6M74.39 139.32 L78.88
						 140.61 L80.82 140.52M74.39 139.32 L80.82 140.51 L81.66 138.46 L74.39 139.32M81.71 120.37 L80.92 117.5M74.39
						 121.16 L80.91 117.5 L78.96 115.61M74.39 121.16 L78.96 115.61 L77 115.84M74.39 121.16 L77 115.84 L76.19 118.02M74.39
						 121.16 L76.19 118.01 L76.98 120.84 L78.91 122.7M74.39 121.16 L78.91 122.71 L80.87 122.52M74.39 121.16 L80.87
						 122.52 L81.71 120.36 L74.39 121.16M81.77 101.22 L80.98 98.28M74.39 101.95 L80.98 98.27 L79 96.42M74.39 101.95
						 L79 96.42 L77.03 96.75M74.39 101.95 L77.02 96.75 L76.21 99.04M74.39 101.95 L76.21 99.04 L77 101.95M74.39
						 101.95 L77 101.95 L78.95 103.8M74.39 101.95 L78.95 103.8 L80.92 103.51M74.39 101.95 L80.92 103.5 L81.77
						 101.21 L74.39 101.95M96.99 107.27 L96.23 104.35M89.67 108.03 L96.23 104.35 L94.22 102.49M89.67 108.03 L94.23
						 102.49 L92.17 102.78M89.67 108.03 L92.17 102.79 L91.28 105.05M89.67 108.03 L91.27 105.04 L92.03 107.93M89.67
						 108.03 L92.03 107.93 L94 109.78M89.67 108.03 L94.01 109.78 L96.07 109.52M89.67 108.03 L96.07 109.52 L97
						 107.27 L89.67 108.03M113.16 113.7 L112.44 110.8M105.9 114.48 L112.43 110.8 L110.38 108.92M105.9 114.48 L110.39
						 108.92 L108.25 109.18 L107.26 111.4M105.9 114.48 L107.26 111.41 L107.99 114.28M105.9 114.48 L107.99 114.28
						 L110 116.14M105.9 114.48 L110.01 116.14 L112.14 115.92M105.9 114.48 L112.14 115.92 L113.15 113.71 L105.9
						 114.48M130.38 120.54 L129.69 117.65M123.19 121.34 L129.69 117.65 L127.61 115.76M123.19 121.34 L127.61 115.76
						 L125.37 115.98M123.19 121.34 L125.37 115.98 L124.3 118.17M123.19 121.34 L124.3 118.17 L124.99 121.02M123.19
						 121.34 L124.99 121.02 L127.04 122.9M123.19 121.34 L127.04 122.9 L129.27 122.71M123.19 121.34 L129.27 122.71
						 L130.38 120.53 L123.19 121.34" class="st21"/>
		</g>
		<g id="shape6054-152" v:mID="6054" v:groupContext="shape" transform="translate(325.074,-80.4509)">
			<title>工作表.6054</title>
			<path d="M168.63 144.19 L167.99 141.3 L168.63 144.19 ZM161.49 145.02 L168 141.31 L165.86 139.39 L161.49 145.02 ZM161.49
						 145.02 L165.86 139.39 L163.52 139.58 L161.49 145.02 ZM161.49 145.02 L163.52 139.58 L162.34 141.73 L161.49
						 145.02 ZM161.49 145.02 L162.34 141.73 L162.99 144.58 L161.49 145.02 ZM161.49 145.02 L162.99 144.58 L165.08
						 146.48 L161.49 145.02 ZM161.49 145.02 L165.08 146.48 L167.42 146.33 L161.49 145.02 ZM161.49 145.02 L167.42
						 146.33 L168.63 144.19 L161.49 145.02 ZM188.29 151.98 L187.68 149.09 L188.29 151.98 ZM181.17 152.84 L187.68
						 149.09 L185.5 147.14 L181.17 152.84 ZM181.17 152.84 L185.5 147.14 L183.03 147.29 L181.17 152.84 ZM181.17
						 152.84 L183.03 147.29 L181.73 149.41 L182.34 152.26 L181.17 152.84 ZM181.17 152.84 L182.35 152.26 L184.5
						 154.19 L181.17 152.84 ZM181.17 152.84 L184.5 154.19 L186.96 154.08 L181.17 152.84 ZM181.17 152.84 L186.96
						 154.08 L188.28 151.98 L181.17 152.84 ZM185.37 173.15 L184.76 170.33 L185.37 173.15 ZM178.3 174.09 L184.77
						 170.34 L182.6 168.37 L178.3 174.09 ZM178.3 174.09 L182.61 168.37 L180.18 168.39 L178.3 174.09 ZM178.3 174.09
						 L180.17 168.39 L178.91 170.39 L178.3 174.09 ZM178.3 174.09 L178.91 170.39 L179.52 173.17 L178.3 174.09 ZM178.3
						 174.09 L179.52 173.17 L181.65 175.13 L178.3 174.09 ZM178.3 174.09 L181.65 175.13 L184.07 175.14 L178.3 174.09
						 ZM178.3 174.09 L184.07 175.14 L185.38 173.16 L178.3 174.09 ZM182.66 192.98 L182.05 190.21 L182.66 192.98
						 ZM175.6 193.98 L182.05 190.21 L179.9 188.2 L175.6 193.98 ZM175.6 193.98 L179.9 188.2 L177.5 188.12 L175.6
						 193.98 ZM175.6 193.98 L177.49 188.12 L176.24 190 L175.6 193.98 ZM175.6 193.98 L176.24 190 L176.86 192.72
						 L175.6 193.98 ZM175.6 193.98 L176.86 192.72 L178.98 194.72 L175.6 193.98 ZM175.6 193.98 L178.98 194.73 L181.38
						 194.84 L175.6 193.98 ZM175.6 193.98 L181.38 194.84 L182.66 192.98 L175.6 193.98 ZM180.13 211.57 L179.52
						 208.85 L180.13 211.57 ZM173.07 212.64 L179.52 208.85 L177.37 206.79 L173.07 212.64 L177.37 206.79 L174.98
						 206.61 L173.07 212.64 ZM173.07 212.64 L174.99 206.62 L173.75 208.4 L173.07 212.64 ZM173.07 212.64 L173.75
						 208.4 L174.37 211.08 L173.07 212.64 ZM173.07 212.64 L174.37 211.08 L176.48 213.11 L178.86 213.33 L173.07
						 212.64 ZM173.07 212.64 L178.86 213.33 L180.13 211.57 L173.07 212.64 ZM177.77 229.03 L177.15 226.36 L177.77
						 229.03 ZM170.69 230.16 L177.15 226.35 L175.01 224.26 L170.69 230.16 ZM170.69 230.16 L175.01 224.27 L172.63
						 224 L170.69 230.16 ZM170.69 230.16 L172.63 223.99 L171.41 225.67 L170.69 230.16 ZM170.69 230.16 L171.41
						 225.67 L172.04 228.32 L170.69 230.16 ZM170.69 230.16 L172.04 228.32 L174.14 230.39 L176.51 230.7 L170.69
						 230.16 ZM170.69 230.16 L176.51 230.7 L177.77 229.03 L170.69 230.16 ZM6.52 130.17 L8.23 128.95 L6.52 130.17
						 ZM3.25 122.54 L8.23 128.95 L7.52 127.74 L3.25 122.54 ZM3.25 122.54 L7.52 127.74 L4.84 127.25 L3.25 122.54
						 ZM3.25 122.54 L4.84 127.24 L1.74 127.73 L3.25 122.54 ZM3.25 122.54 L1.74 127.74 L0 128.95 L3.25 122.54 ZM3.25
						 122.54 L0 128.95 L0.66 130.17 L3.25 122.54 ZM3.25 122.54 L0.67 130.17 L3.38 130.68 L3.25 122.54 ZM3.25 122.54
						 L3.38 130.68 L6.52 130.17 L3.25 122.54 ZM22.08 139.12 L23.69 137.86 L22.08 139.12 ZM18.89 131.6 L23.68 137.86
						 L22.89 136.61 L18.89 131.6 ZM18.89 131.6 L22.89 136.61 L20.2 136.1 L18.89 131.6 ZM18.89 131.6 L20.2 136.1
						 L17.16 136.61 L15.53 137.86 L18.89 131.6 ZM18.89 131.6 L15.53 137.86 L16.28 139.12 L18.89 131.6 ZM18.89
						 131.6 L16.28 139.12 L19 139.65 L18.89 131.6 ZM18.89 131.6 L19 139.65 L22.07 139.12 L18.89 131.6 ZM38.77
						 148.68 L40.26 147.37 L38.77 148.68 ZM35.68 141.25 L40.27 147.37 L39.4 146.08 L35.68 141.25 ZM35.68 141.25
						 L39.39 146.08 L36.69 145.55 L35.68 141.25 ZM35.68 141.25 L36.69 145.55 L33.71 146.08 L35.68 141.25 ZM35.68
						 141.25 L33.72 146.08 L32.2 147.37 L35.68 141.25 ZM35.68 141.25 L32.2 147.37 L33.04 148.68 L35.68 141.25
						 ZM35.68 141.25 L33.03 148.68 L35.76 149.22 L35.68 141.25 ZM35.68 141.25 L35.76 149.22 L38.78 148.68 L35.68
						 141.25 ZM56.73 158.92 L58.11 157.56 L53.73 151.58 L56.73 158.92 ZM58.11 157.56 L57.15 156.23 L58.11 157.56
						 ZM53.73 151.58 L57.15 156.23 L54.43 155.68 L53.73 151.58 ZM53.73 151.58 L54.42 155.67 L51.51 156.22 L53.73
						 151.58 ZM53.73 151.58 L51.51 156.23 L50.09 157.56 L53.73 151.58 ZM53.73 151.58 L50.1 157.56 L51.03 158.92
						 L53.73 151.58 ZM53.73 151.58 L51.02 158.92 L53.78 159.48 L53.73 151.58 ZM53.73 151.58 L53.78 159.48 L56.73
						 158.92 L53.73 151.58 ZM76.11 169.9 L77.38 168.49 L76.11 169.9 ZM73.19 162.65 L77.38 168.5 L76.31 167.1 L73.19
						 162.65 ZM73.19 162.65 L76.31 167.1 L73.55 166.53 L70.7 167.1 L73.19 162.65 ZM73.19 162.65 L70.7 167.1 L69.39
						 168.5 L73.19 162.65 ZM73.19 162.65 L69.39 168.5 L70.43 169.91 L73.19 162.65 ZM73.19 162.65 L70.43 169.91
						 L73.22 170.5 L73.19 162.65 ZM73.19 162.65 L73.22 170.49 L76.11 169.9 L73.19 162.65 ZM97.09 181.73 L98.24
						 180.26 L97.09 181.73 ZM94.26 174.53 L98.24 180.26 L97.06 178.81 L94.26 174.53 ZM94.26 174.53 L97.06 178.8
						 L94.26 178.2 L91.46 178.8 L94.26 174.53 ZM94.26 174.53 L91.46 178.8 L90.27 180.25 L94.26 174.53 ZM94.26
						 174.53 L90.27 180.26 L91.42 181.73 L94.26 174.53 ZM94.26 174.53 L91.43 181.73 L94.26 182.35 L97.09 181.73
						 L94.26 174.53 ZM187.85 130.17 L188.52 128.95 L187.85 130.17 ZM185.27 122.54 L188.52 128.95 L186.78 127.74
						 L185.27 122.54 ZM185.27 122.54 L186.78 127.74 L183.68 127.25 L185.27 122.54 ZM185.27 122.54 L183.68 127.24
						 L181 127.73 L185.27 122.54 ZM185.27 122.54 L181 127.74 L185.27 122.54 ZM185.27 122.54 L180.29 128.95 L182
						 130.17 L185.27 122.54 ZM185.27 122.54 L182 130.17 L185.14 130.68 L185.27 122.54 ZM185.27 122.54 L185.14
						 130.68 L187.84 130.17 L185.27 122.54 ZM172.24 139.12 L172.99 137.86 L172.24 139.12 ZM169.62 131.6 L172.98
						 137.86 L171.35 136.61 L168.31 136.1 L169.62 131.6 ZM169.62 131.6 L168.31 136.1 L165.62 136.61 L169.62 131.6
						 ZM169.62 131.6 L165.62 136.61 L164.83 137.86 L169.62 131.6 ZM169.62 131.6 L164.83 137.86 L166.44 139.12
						 L169.62 131.6 ZM169.62 131.6 L166.44 139.12 L169.51 139.65 L169.62 131.6 ZM169.62 131.6 L169.51 139.65 L172.23
						 139.12 L169.62 131.6 ZM155.49 148.68 L156.33 147.37 L155.49 148.68 ZM152.84 141.25 L156.33 147.37 L154.81
						 146.08 L152.84 141.25 ZM152.84 141.25 L154.81 146.08 L151.83 145.55 L152.84 141.25 ZM152.84 141.25 L151.84
						 145.55 L149.13 146.08 L152.84 141.25 ZM152.84 141.25 L149.13 146.08 L148.26 147.37 L152.84 141.25 ZM152.84
						 141.25 L148.25 147.37 L149.75 148.68 L152.84 141.25 ZM152.84 141.25 L149.75 148.68 L152.76 149.22 L152.84
						 141.25 ZM152.84 141.25 L152.76 149.22 L155.5 148.68 L152.84 141.25 ZM137.49 158.92 L138.43 157.56 L137.49
						 158.92 ZM134.79 151.58 L138.42 157.56 L137 156.23 L134.79 151.58 ZM134.79 151.58 L137.01 156.23 L134.1 155.68
						 L134.79 151.58 ZM134.79 151.58 L134.1 155.67 L131.37 156.22 L134.79 151.58 ZM134.79 151.58 L130.39 157.56
						 L131.78 158.92 L134.79 151.58 ZM134.79 151.58 L131.78 158.92 L134.73 159.48 L134.79 151.58 ZM134.79 151.58
						 L134.73 159.48 L137.49 158.92 L134.79 151.58 ZM118.08 169.9 L119.12 168.49 L118.08 169.9 ZM115.32 162.65
						 L119.12 168.5 L117.82 167.1 L115.32 162.65 ZM115.32 162.65 L117.82 167.1 L114.96 166.53 L112.2 167.1 L115.32
						 162.65 ZM115.32 162.65 L112.2 167.1 L115.32 162.65 ZM115.32 162.65 L111.14 168.5 L112.41 169.91 L115.32
						 162.65 ZM115.32 162.65 L112.4 169.91 L115.29 170.5 L115.32 162.65 ZM115.32 162.65 L115.3 170.49 L118.08
						 169.9 L115.32 162.65 ZM97.16 94.31 L98.34 93.3 L97.16 94.31 ZM94.26 86.6 L98.34 93.3 L97.13 92.3 L94.26
						 86.6 ZM94.26 86.6 L97.13 92.3 L94.26 91.89 L91.39 92.3 L94.26 86.6 ZM94.26 86.6 L91.39 92.3 L90.18 93.3
						 L94.26 86.6 ZM94.26 86.6 L90.18 93.3 L91.36 94.31 L94.26 86.6 ZM94.26 86.6 L91.36 94.31 L94.26 94.73 L97.17
						 94.31 L94.26 86.6 ZM113.1 100.7 L114.18 99.66 L113.1 100.7 ZM110.26 93.04 L114.18 99.66 L112.88 98.63 L110.26
						 93.04 ZM110.26 93.04 L112.88 98.63 L109.98 98.2 L107.16 98.63 L110.26 93.04 ZM110.26 93.04 L107.16 98.63
						 L106.03 99.66 L110.26 93.04 ZM110.26 93.04 L106.03 99.66 L107.31 100.7 L110.26 93.04 ZM110.26 93.04 L107.31
						 100.7 L110.24 101.14 L110.26 93.04 L110.24 101.14 L113.1 100.7 L110.26 93.04 ZM130.03 107.45 L131.01 106.37
						 L130.03 107.45 ZM127.26 99.82 L131.01 106.38 L129.61 105.31 L127.26 99.82 ZM127.26 99.82 L129.62 105.31
						 L126.68 104.87 L127.26 99.82 ZM127.26 99.82 L126.68 104.87 L123.89 105.31 L127.26 99.82 ZM127.26 99.82 L123.89
						 105.31 L122.87 106.38 L127.26 99.82 ZM127.26 99.82 L122.87 106.38 L124.23 107.46 L127.26 99.82 ZM127.26
						 99.82 L124.23 107.46 L127.2 107.91 L127.26 99.82 ZM127.26 99.82 L127.21 107.91 L130.03 107.46 L127.26 99.82
						 ZM148.05 114.59 L148.93 113.47 L148.05 114.59 ZM145.34 106.97 L148.93 113.47 L147.43 112.36 L145.34 106.97
						 ZM145.34 106.97 L147.44 112.36 L144.45 111.9 L145.34 106.97 ZM145.34 106.97 L144.45 111.9 L141.71 112.36
						 L145.34 106.97 ZM145.34 106.97 L141.71 112.36 L140.78 113.47 L145.34 106.97 ZM145.34 106.97 L140.78 113.47
						 L142.25 114.59 L145.34 106.97 ZM145.34 106.97 L142.25 114.59 L145.27 115.06 L145.34 106.97 ZM145.34 106.97
						 L145.27 115.06 L148.05 114.59 L145.34 106.97 ZM167.28 122.15 L168.06 120.98 L167.28 122.15 ZM164.64 114.54
						 L168.06 120.98 L166.45 119.83 L163.41 119.35 L164.64 114.54 ZM164.64 114.54 L163.41 119.35 L160.71 119.83
						 L164.64 114.54 ZM164.64 114.54 L160.71 119.83 L164.64 114.54 ZM164.64 114.54 L159.89 120.98 L161.47 122.15
						 L164.64 114.54 ZM164.64 114.54 L161.47 122.15 L164.53 122.64 L164.64 114.54 ZM164.64 114.54 L164.53 122.64
						 L167.28 122.15 L164.64 114.54 ZM81.21 100.7 L82.48 99.66 L81.21 100.7 ZM78.26 93.04 L82.48 99.66 L81.36
						 98.63 L78.26 93.04 ZM78.26 93.04 L81.36 98.63 L78.54 98.2 L78.26 93.04 ZM78.26 93.04 L78.54 98.2 L75.63
						 98.63 L78.26 93.04 ZM78.26 93.04 L75.63 98.63 L74.33 99.66 L78.26 93.04 ZM78.26 93.04 L74.34 99.66 L75.43
						 100.7 L78.26 93.04 ZM78.26 93.04 L75.43 100.7 L78.29 101.14 L78.26 93.04 ZM78.26 93.04 L78.28 101.14 L81.21
						 100.7 L78.26 93.04 ZM64.28 107.45 L65.65 106.37 L64.28 107.45 ZM61.26 99.82 L65.65 106.38 L64.62 105.31
						 L61.26 99.82 ZM61.26 99.82 L64.62 105.31 L61.83 104.87 L61.26 99.82 ZM61.26 99.82 L61.83 104.87 L58.89 105.31
						 L61.26 99.82 ZM61.26 99.82 L58.89 105.31 L57.5 106.38 L61.26 99.82 ZM61.26 99.82 L57.5 106.38 L58.49 107.46
						 L61.26 99.82 ZM61.26 99.82 L58.49 107.46 L61.31 107.91 L61.26 99.82 ZM61.26 99.82 L61.31 107.91 L64.27 107.46
						 L61.26 99.82 ZM46.26 114.59 L47.72 113.47 L46.26 114.59 ZM43.18 106.97 L47.73 113.47 L46.81 112.36 L43.18
						 106.97 ZM43.18 106.97 L46.81 112.36 L44.07 111.9 L43.18 106.97 ZM43.18 106.97 L44.07 111.9 L41.08 112.36
						 L43.18 106.97 ZM43.18 106.97 L41.08 112.36 L39.58 113.47 L43.18 106.97 ZM43.18 106.97 L39.59 113.47 L40.48
						 114.59 L43.18 106.97 ZM43.18 106.97 L40.47 114.59 L43.25 115.06 L43.18 106.97 ZM43.18 106.97 L43.25 115.06
						 L46.27 114.59 L43.18 106.97 ZM27.05 122.15 L28.63 120.98 L27.05 122.15 ZM23.88 114.54 L28.63 120.98 L27.81
						 119.83 L23.88 114.54 ZM23.88 114.54 L27.81 119.83 L25.09 119.35 L23.88 114.54 ZM23.88 114.54 L25.09 119.35
						 L22.06 119.83 L20.45 120.98 L23.88 114.54 ZM23.88 114.54 L20.46 120.98 L21.24 122.15 L23.88 114.54 L21.24
						 122.15 L23.98 122.64 L23.88 114.54 ZM23.88 114.54 L23.98 122.64 L27.05 122.15 L23.88 114.54 ZM7.35 152.84
						 L3.25 122.54 L7.35 152.84 ZM22.26 161.22 L18.89 131.6 L22.26 161.22 ZM38.27 170.21 L35.67 141.25 L38.27
						 170.21 ZM55.51 179.89 L53.73 151.58 L55.51 179.89 ZM74.12 190.34 L73.19 162.65 L74.12 190.34 ZM94.26 201.65
						 L94.26 174.53 L94.26 201.65 ZM181.17 152.84 L185.27 122.54 L181.17 152.84 ZM166.26 161.22 L169.63 131.6
						 L166.26 161.22 ZM150.24 170.21 L152.84 141.25 L150.24 170.21 ZM133.01 179.89 L134.8 151.58 L133.01 179.89
						 Z" class="st20"/>
			<path d="M168.63 144.19 L167.99 141.3M161.49 145.02 L168 141.31 L165.86 139.39M161.49 145.02 L165.86 139.39 L163.52 139.58M161.49
						 145.02 L163.52 139.58 L162.34 141.73M161.49 145.02 L162.34 141.73 L162.99 144.58M161.49 145.02 L162.99 144.58
						 L165.08 146.48M161.49 145.02 L165.08 146.48 L167.42 146.33M161.49 145.02 L167.42 146.33 L168.63 144.19 L161.49
						 145.02M188.29 151.98 L187.68 149.09M181.17 152.84 L187.68 149.09 L185.5 147.14M181.17 152.84 L185.5 147.14
						 L183.03 147.29M181.17 152.84 L183.03 147.29 L181.73 149.41 L182.34 152.26M181.17 152.84 L182.35 152.26 L184.5
						 154.19M181.17 152.84 L184.5 154.19 L186.96 154.08M181.17 152.84 L186.96 154.08 L188.28 151.98 L181.17 152.84M185.37
						 173.15 L184.76 170.33M178.3 174.09 L184.77 170.34 L182.6 168.37M178.3 174.09 L182.61 168.37 L180.18 168.39M178.3
						 174.09 L180.17 168.39 L178.91 170.39M178.3 174.09 L178.91 170.39 L179.52 173.17M178.3 174.09 L179.52 173.17
						 L181.65 175.13M178.3 174.09 L181.65 175.13 L184.07 175.14M178.3 174.09 L184.07 175.14 L185.38 173.16 L178.3
						 174.09M182.66 192.98 L182.05 190.21M175.6 193.98 L182.05 190.21 L179.9 188.2M175.6 193.98 L179.9 188.2 L177.5
						 188.12M175.6 193.98 L177.49 188.12 L176.24 190M175.6 193.98 L176.24 190 L176.86 192.72M175.6 193.98 L176.86
						 192.72 L178.98 194.72M175.6 193.98 L178.98 194.73 L181.38 194.84M175.6 193.98 L181.38 194.84 L182.66 192.98
						 L175.6 193.98M180.13 211.57 L179.52 208.85M173.07 212.64 L179.52 208.85 L177.37 206.79 L173.07 212.64 L177.37
						 206.79 L174.98 206.61M173.07 212.64 L174.99 206.62 L173.75 208.4M173.07 212.64 L173.75 208.4 L174.37 211.08M173.07
						 212.64 L174.37 211.08 L176.48 213.11 L178.86 213.33M173.07 212.64 L178.86 213.33 L180.13 211.57 L173.07
						 212.64M177.77 229.03 L177.15 226.36M170.69 230.16 L177.15 226.35 L175.01 224.26M170.69 230.16 L175.01 224.27
						 L172.63 224M170.69 230.16 L172.63 223.99 L171.41 225.67M170.69 230.16 L171.41 225.67 L172.04 228.32M170.69
						 230.16 L172.04 228.32 L174.14 230.39 L176.51 230.7M170.69 230.16 L176.51 230.7 L177.77 229.03 L170.69 230.16M6.52
						 130.17 L8.23 128.95M3.25 122.54 L8.23 128.95 L7.52 127.74M3.25 122.54 L7.52 127.74 L4.84 127.25M3.25 122.54
						 L4.84 127.24 L1.74 127.73M3.25 122.54 L1.74 127.74 L0 128.95M3.25 122.54 L0 128.95 L0.66 130.17M3.25 122.54
						 L0.67 130.17 L3.38 130.68M3.25 122.54 L3.38 130.68 L6.52 130.17 L3.25 122.54M22.08 139.12 L23.69 137.86M18.89
						 131.6 L23.68 137.86 L22.89 136.61M18.89 131.6 L22.89 136.61 L20.2 136.1M18.89 131.6 L20.2 136.1 L17.16 136.61
						 L15.53 137.86M18.89 131.6 L15.53 137.86 L16.28 139.12M18.89 131.6 L16.28 139.12 L19 139.65M18.89 131.6 L19
						 139.65 L22.07 139.12 L18.89 131.6M38.77 148.68 L40.26 147.37M35.68 141.25 L40.27 147.37 L39.4 146.08M35.68
						 141.25 L39.39 146.08 L36.69 145.55M35.68 141.25 L36.69 145.55 L33.71 146.08M35.68 141.25 L33.72 146.08 L32.2
						 147.37M35.68 141.25 L32.2 147.37 L33.04 148.68M35.68 141.25 L33.03 148.68 L35.76 149.22M35.68 141.25 L35.76
						 149.22 L38.78 148.68 L35.68 141.25M56.73 158.92 L58.11 157.56 L53.73 151.58M58.11 157.56 L57.15 156.23M53.73
						 151.58 L57.15 156.23 L54.43 155.68M53.73 151.58 L54.42 155.67 L51.51 156.22M53.73 151.58 L51.51 156.23 L50.09
						 157.56M53.73 151.58 L50.1 157.56 L51.03 158.92M53.73 151.58 L51.02 158.92 L53.78 159.48M53.73 151.58 L53.78
						 159.48 L56.73 158.92 L53.73 151.58M76.11 169.9 L77.38 168.49M73.19 162.65 L77.38 168.5 L76.31 167.1M73.19
						 162.65 L76.31 167.1 L73.55 166.53 L70.7 167.1M73.19 162.65 L70.7 167.1 L69.39 168.5M73.19 162.65 L69.39
						 168.5 L70.43 169.91M73.19 162.65 L70.43 169.91 L73.22 170.5M73.19 162.65 L73.22 170.49 L76.11 169.9 L73.19
						 162.65M97.09 181.73 L98.24 180.26M94.26 174.53 L98.24 180.26 L97.06 178.81M94.26 174.53 L97.06 178.8 L94.26
						 178.2 L91.46 178.8M94.26 174.53 L91.46 178.8 L90.27 180.25M94.26 174.53 L90.27 180.26 L91.42 181.73M94.26
						 174.53 L91.43 181.73 L94.26 182.35 L97.09 181.73 L94.26 174.53M187.85 130.17 L188.52 128.95M185.27 122.54
						 L188.52 128.95 L186.78 127.74M185.27 122.54 L186.78 127.74 L183.68 127.25M185.27 122.54 L183.68 127.24 L181
						 127.73M185.27 122.54 L181 127.74M185.27 122.54 L180.29 128.95 L182 130.17M185.27 122.54 L182 130.17 L185.14
						 130.68M185.27 122.54 L185.14 130.68 L187.84 130.17 L185.27 122.54M172.24 139.12 L172.99 137.86M169.62 131.6
						 L172.98 137.86 L171.35 136.61 L168.31 136.1M169.62 131.6 L168.31 136.1 L165.62 136.61M169.62 131.6 L165.62
						 136.61 L164.83 137.86M169.62 131.6 L164.83 137.86 L166.44 139.12M169.62 131.6 L166.44 139.12 L169.51 139.65M169.62
						 131.6 L169.51 139.65 L172.23 139.12 L169.62 131.6M155.49 148.68 L156.33 147.37M152.84 141.25 L156.33 147.37
						 L154.81 146.08M152.84 141.25 L154.81 146.08 L151.83 145.55M152.84 141.25 L151.84 145.55 L149.13 146.08M152.84
						 141.25 L149.13 146.08 L148.26 147.37M152.84 141.25 L148.25 147.37 L149.75 148.68M152.84 141.25 L149.75 148.68
						 L152.76 149.22M152.84 141.25 L152.76 149.22 L155.5 148.68 L152.84 141.25M137.49 158.92 L138.43 157.56M134.79
						 151.58 L138.42 157.56 L137 156.23M134.79 151.58 L137.01 156.23 L134.1 155.68M134.79 151.58 L134.1 155.67
						 L131.37 156.22M134.79 151.58 L130.39 157.56 L131.78 158.92M134.79 151.58 L131.78 158.92 L134.73 159.48M134.79
						 151.58 L134.73 159.48 L137.49 158.92 L134.79 151.58M118.08 169.9 L119.12 168.49M115.32 162.65 L119.12 168.5
						 L117.82 167.1M115.32 162.65 L117.82 167.1 L114.96 166.53 L112.2 167.1M115.32 162.65 L112.2 167.1M115.32
						 162.65 L111.14 168.5 L112.41 169.91M115.32 162.65 L112.4 169.91 L115.29 170.5M115.32 162.65 L115.3 170.49
						 L118.08 169.9 L115.32 162.65M97.16 94.31 L98.34 93.3M94.26 86.6 L98.34 93.3 L97.13 92.3M94.26 86.6 L97.13
						 92.3 L94.26 91.89 L91.39 92.3M94.26 86.6 L91.39 92.3 L90.18 93.3M94.26 86.6 L90.18 93.3 L91.36 94.31M94.26
						 86.6 L91.36 94.31 L94.26 94.73 L97.17 94.31 L94.26 86.6M113.1 100.7 L114.18 99.66M110.26 93.04 L114.18 99.66
						 L112.88 98.63M110.26 93.04 L112.88 98.63 L109.98 98.2 L107.16 98.63M110.26 93.04 L107.16 98.63 L106.03 99.66M110.26
						 93.04 L106.03 99.66 L107.31 100.7M110.26 93.04 L107.31 100.7 L110.24 101.14 L110.26 93.04 L110.24 101.14
						 L113.1 100.7 L110.26 93.04M130.03 107.45 L131.01 106.37M127.26 99.82 L131.01 106.38 L129.61 105.31M127.26
						 99.82 L129.62 105.31 L126.68 104.87M127.26 99.82 L126.68 104.87 L123.89 105.31M127.26 99.82 L123.89 105.31
						 L122.87 106.38M127.26 99.82 L122.87 106.38 L124.23 107.46M127.26 99.82 L124.23 107.46 L127.2 107.91M127.26
						 99.82 L127.21 107.91 L130.03 107.46 L127.26 99.82M148.05 114.59 L148.93 113.47M145.34 106.97 L148.93 113.47
						 L147.43 112.36M145.34 106.97 L147.44 112.36 L144.45 111.9M145.34 106.97 L144.45 111.9 L141.71 112.36M145.34
						 106.97 L141.71 112.36 L140.78 113.47M145.34 106.97 L140.78 113.47 L142.25 114.59M145.34 106.97 L142.25 114.59
						 L145.27 115.06M145.34 106.97 L145.27 115.06 L148.05 114.59 L145.34 106.97M167.28 122.15 L168.06 120.98M164.64
						 114.54 L168.06 120.98 L166.45 119.83 L163.41 119.35M164.64 114.54 L163.41 119.35 L160.71 119.83M164.64 114.54
						 L160.71 119.83M164.64 114.54 L159.89 120.98 L161.47 122.15M164.64 114.54 L161.47 122.15 L164.53 122.64M164.64
						 114.54 L164.53 122.64 L167.28 122.15 L164.64 114.54M81.21 100.7 L82.48 99.66M78.26 93.04 L82.48 99.66 L81.36
						 98.63M78.26 93.04 L81.36 98.63 L78.54 98.2M78.26 93.04 L78.54 98.2 L75.63 98.63M78.26 93.04 L75.63 98.63
						 L74.33 99.66M78.26 93.04 L74.34 99.66 L75.43 100.7M78.26 93.04 L75.43 100.7 L78.29 101.14M78.26 93.04 L78.28
						 101.14 L81.21 100.7 L78.26 93.04M64.28 107.45 L65.65 106.37M61.26 99.82 L65.65 106.38 L64.62 105.31M61.26
						 99.82 L64.62 105.31 L61.83 104.87M61.26 99.82 L61.83 104.87 L58.89 105.31M61.26 99.82 L58.89 105.31 L57.5
						 106.38M61.26 99.82 L57.5 106.38 L58.49 107.46M61.26 99.82 L58.49 107.46 L61.31 107.91M61.26 99.82 L61.31
						 107.91 L64.27 107.46 L61.26 99.82M46.26 114.59 L47.72 113.47M43.18 106.97 L47.73 113.47 L46.81 112.36M43.18
						 106.97 L46.81 112.36 L44.07 111.9M43.18 106.97 L44.07 111.9 L41.08 112.36M43.18 106.97 L41.08 112.36 L39.58
						 113.47M43.18 106.97 L39.59 113.47 L40.48 114.59M43.18 106.97 L40.47 114.59 L43.25 115.06M43.18 106.97 L43.25
						 115.06 L46.27 114.59 L43.18 106.97M27.05 122.15 L28.63 120.98M23.88 114.54 L28.63 120.98 L27.81 119.83M23.88
						 114.54 L27.81 119.83 L25.09 119.35M23.88 114.54 L25.09 119.35 L22.06 119.83 L20.45 120.98M23.88 114.54 L20.46
						 120.98 L21.24 122.15 L23.88 114.54 L21.24 122.15 L23.98 122.64M23.88 114.54 L23.98 122.64 L27.05 122.15
						 L23.88 114.54M7.35 152.84 L3.25 122.54M22.26 161.22 L18.89 131.6M38.27 170.21 L35.67 141.25M55.51 179.89
						 L53.73 151.58M74.12 190.34 L73.19 162.65M94.26 201.65 L94.26 174.53M181.17 152.84 L185.27 122.54M166.26
						 161.22 L169.63 131.6M150.24 170.21 L152.84 141.25M133.01 179.89 L134.8 151.58" class="st21"/>
		</g>
		<g id="shape6055-155" v:mID="6055" v:groupContext="shape" transform="translate(348.949,-120.813)">
			<title>工作表.6055</title>
			<path d="M90.52 230.7 L91.45 203.01 L90.52 230.7 ZM70.39 158.66 L70.39 126.96 L70.39 158.66 ZM85.67 164.74 L86.39 133.41
						 L85.67 164.74 ZM101.9 171.2 L103.38 140.19 L101.9 171.2 ZM119.19 178.06 L121.47 147.33 L119.19 178.06 ZM137.61
						 185.38 L140.77 154.9 L137.61 185.38 ZM55.1 164.74 L54.38 133.4 L55.1 164.74 ZM38.86 171.2 L37.39 140.19
						 L38.86 171.2 ZM21.58 178.06 L19.29 147.33 L21.58 178.06 ZM3.16 185.38 L0 154.9 L3.16 185.38 Z"
					class="st20"/>
			<path d="M90.52 230.7 L91.45 203.01M70.39 158.66 L70.39 126.96M85.67 164.74 L86.39 133.41M101.9 171.2 L103.38 140.19M119.19
						 178.06 L121.47 147.33M137.61 185.38 L140.77 154.9M55.1 164.74 L54.38 133.4M38.86 171.2 L37.39 140.19M21.58
						 178.06 L19.29 147.33M3.16 185.38 L0 154.9" class="st21"/>
		</g>
	</g>
</svg>
