<?xml version="1.0" encoding="UTF-8" standalone="no"?>
<!DOCTYPE svg PUBLIC "-//W3C//DTD SVG 1.1//EN" "http://www.w3.org/Graphics/SVG/1.1/DTD/svg11.dtd">
<!-- 由 Microsoft Visio, SVG Export 生成 OneElem.svg C3D8 -->
<svg xmlns="http://www.w3.org/2000/svg" xmlns:xlink="http://www.w3.org/1999/xlink" xmlns:ev="http://www.w3.org/2001/xml-events"
		xmlns:v="http://schemas.microsoft.com/visio/2003/SVGExtensions/" width="7.30315in" height="3.26638in"
		viewBox="0 0 525.827 235.179" xml:space="preserve" color-interpolation-filters="sRGB" class="st22">
	<v:documentProperties v:langID="2052" v:metric="true" v:viewMarkup="false">
		<v:userDefs>
			<v:ud v:nameU="msvSubprocessMaster" v:prompt="" v:val="VT4(Rectangle)"/>
			<v:ud v:nameU="msvNoAutoConnect" v:val="VT0(1):26"/>
		</v:userDefs>
	</v:documentProperties>

	<style type="text/css">
	<![CDATA[
		.st1 {fill:url(#grad3-4);stroke:none;stroke-width:0.25}
		.st2 {stroke:#000000;stroke-dasharray:3.75845,1.87922;stroke-linecap:butt;stroke-width:0.469806}
		.st3 {marker-end:url(#mrkr4-19);stroke:#000000;stroke-linecap:round;stroke-linejoin:round;stroke-width:1}
		.st4 {fill:#000000;fill-opacity:1;stroke:#000000;stroke-opacity:1;stroke-width:0.28409090909091}
		.st5 {fill:#125494;stroke:#000000;stroke-linecap:butt;stroke-width:0.75}
		.st6 {fill:#1c7ddb;stroke:#000000;stroke-linecap:butt;stroke-width:0.75}
		.st7 {fill:#1c82e5;stroke:#000000;stroke-linecap:butt;stroke-width:0.5}
		.st8 {fill:none;stroke:none;stroke-linecap:butt;stroke-width:0.75}
		.st9 {fill:#203864;font-family:Calibri;font-size:0.940773em}
		.st10 {fill:#00b050;stroke:#00b050;stroke-linecap:butt;stroke-width:0.75}
		.st11 {fill:#c00000;stroke:#c00000;stroke-linecap:butt;stroke-width:0.75}
		.st12 {fill:#096bec;stroke:#0a6df3;stroke-linecap:butt;stroke-width:0.75}
		.st13 {fill:#000000;stroke:none;stroke-width:0.25}
		.st14 {fill:none;stroke:none;stroke-width:0.25}
		.st15 {fill:#203864;font-family:Calibri;font-size:1.00001em;font-weight:bold}
		.st16 {font-size:1em}
		.st17 {font-size:1em;font-style:italic}
		.st18 {fill:#000000;font-family:Calibri;font-size:1.5em;font-weight:bold}
		.st19 {stroke:#000000;stroke-linecap:butt;stroke-width:0.469806}
		.st20 {fill:none}
		.st21 {stroke:#ff7a00;stroke-linecap:butt;stroke-width:0.469806}
		.st22 {fill:none;fill-rule:evenodd;font-size:12px;overflow:visible;stroke-linecap:square;stroke-miterlimit:3}
	]]>
	</style>

	<defs id="Patterns_And_Gradients">
		<radialGradient id="grad3-4" cx="0.5" cy="0.5" r="0.73">
			<stop offset="0" stop-color="#c7d5ed" stop-opacity="1"/>
			<stop offset="1" stop-color="#96afde" stop-opacity="1"/>
		</radialGradient>
	</defs>
	<defs id="Markers">
		<g id="lend4">
			<path d="M 2 1 L 0 0 L 2 -1 L 2 1 " style="stroke:none"/>
		</g>
		<marker id="mrkr4-19" class="st4" v:arrowType="4" v:arrowSize="2" v:setback="7.04" refX="-7.04" orient="auto"
				markerUnits="strokeWidth" overflow="visible">
			<use xlink:href="#lend4" transform="scale(-3.52,-3.52) "/>
		</marker>
	</defs>
	<g v:mID="6" v:index="2" v:groupContext="backgroundPage">
		<v:userDefs>
			<v:ud v:nameU="msvThemeOrder" v:val="VT0(0):26"/>
			<v:ud v:nameU="msvVisioCreated" v:prompt="" v:val="VT0(0):26"/>
		</v:userDefs>
		<title>背景-1</title>
		<v:pageProperties width="7.30315" height="3.26638" v:drawingScale="0.0393701" v:pageScale="0.0393701" v:drawingUnits="24"
				v:shadowOffsetX="9" v:shadowOffsetY="-9"/>
		<g id="shape1-1" v:mID="1" v:groupContext="shape">
			<title>中心渐变</title>
			<v:userDefs>
				<v:ud v:nameU="Background" v:val="VT0(0):26"/>
				<v:ud v:nameU="visVersion" v:val="VT0(15):26"/>
				<v:ud v:nameU="msvShapeCategories" v:prompt="" v:val="VT4(DoNotContain)"/>
				<v:ud v:nameU="msvVisioCreated" v:prompt="" v:val="VT0(0):26"/>
			</v:userDefs>
			<rect x="0" y="0" width="525.827" height="235.179" class="st1"/>
		</g>
	</g>
	<g v:mID="0" v:index="1" v:groupContext="backgroundPage">
		<v:userDefs>
			<v:ud v:nameU="msvThemeOrder" v:val="VT0(0):26"/>
		</v:userDefs>
		<title>C3D8</title>
		<v:pageProperties v:drawingScale="0.0393701" v:pageScale="0.0393701" v:drawingUnits="24" v:shadowOffsetX="9"
				v:shadowOffsetY="-9"/>
		<v:layer v:name="连接线" v:index="0"/>
		<g id="shape6058-5" v:mID="6058" v:groupContext="shape" transform="translate(191.635,127.633) rotate(-90.0933)">
			<title>工作表.6058</title>
			<path d="M0 235.18 L86.38 235.18" class="st2"/>
		</g>
		<g id="shape6057-8" v:mID="6057" v:groupContext="shape" transform="translate(542.453,-77.4339) rotate(29.4784)">
			<title>工作表.6057</title>
			<path d="M0 235.18 L85.5 235.18" class="st2"/>
		</g>
		<g id="shape6056-11" v:mID="6056" v:groupContext="shape" transform="translate(542.954,331.749) rotate(150.381)">
			<title>工作表.6056</title>
			<path d="M0 235.18 L85.23 235.18" class="st2"/>
		</g>
		<g id="shape6016-14" v:mID="6016" v:groupContext="shape" v:layerMember="0"
				transform="translate(-92.9195,217.821) rotate(-90)">
			<title>直线-弧线连接线</title>
			<v:userDefs>
				<v:ud v:nameU="Scale" v:val="VT0(1):26"/>
				<v:ud v:nameU="AntiScale" v:val="VT0(1):26"/>
				<v:ud v:nameU="visVersion" v:val="VT0(15):26"/>
			</v:userDefs>
			<path d="M0 235.18 L9 235.18" class="st3"/>
		</g>
		<g id="shape5622-20" v:mID="5622" v:groupContext="shape" transform="translate(168.388,-15.8482)">
			<title>工作表.5622</title>
			<path d="M0 235.18 L74.2 178.66 L86.91 84.83 L0 133.64 L0 235.18 Z" class="st5"/>
		</g>
		<g id="shape5623-22" v:mID="5623" v:groupContext="shape" transform="translate(81.4763,-15.8482)">
			<title>工作表.5623</title>
			<path d="M86.91 133.64 L0 84.83 L12.71 178.66 L86.91 235.18 L86.91 133.64 Z" class="st6"/>
		</g>
		<g id="shape5624-24" v:mID="5624" v:groupContext="shape" transform="translate(81.4763,-117.557)">
			<title>工作表.5624</title>
			<path d="M86.91 235.18 L173.82 186.37 L86.91 151.84 L0 186.37 L86.91 235.18 Z" class="st7"/>
		</g>
		<g id="shape5605-26" v:mID="5605" v:groupContext="shape" transform="translate(282.975,-15.8482)">
			<title>工作表.5605</title>
			<desc>X</desc>
			<v:textBlock v:margins="rect(0,0,0,0)" v:tabSpace="42.5197"/>
			<v:textRect cx="5.37951" cy="228.724" width="10.76" height="12.9108"/>
			<rect x="0" y="222.268" width="10.759" height="12.9108" class="st8"/>
			<text x="2.45" y="232.11" class="st9" v:langID="2057"><v:paragraph v:horizAlign="1"/><v:tabList/>X</text>		</g>
		<g id="shape5606-29" v:mID="5606" v:groupContext="shape" transform="translate(264.065,-48.7894)">
			<title>工作表.5606</title>
			<desc>Y</desc>
			<v:textBlock v:margins="rect(0,0,0,0)" v:tabSpace="42.5197"/>
			<v:textRect cx="5.37951" cy="228.724" width="10.76" height="12.9108"/>
			<rect x="0" y="222.268" width="10.759" height="12.9108" class="st8"/>
			<text x="2.63" y="232.11" class="st9" v:langID="2057"><v:paragraph v:horizAlign="1"/><v:tabList/>Y</text>		</g>
		<g id="shape5607-32" v:mID="5607" v:groupContext="shape" transform="translate(246.694,-15.8482)">
			<title>工作表.5607</title>
			<desc>Z</desc>
			<v:textBlock v:margins="rect(0,0,0,0)" v:tabSpace="42.5197"/>
			<v:textRect cx="5.37951" cy="228.724" width="10.76" height="12.9108"/>
			<rect x="0" y="222.268" width="10.759" height="12.9108" class="st8"/>
			<text x="2.74" y="232.11" class="st9" v:langID="2057"><v:paragraph v:horizAlign="1"/><v:tabList/>Z</text>		</g>
		<g id="shape5683-35" v:mID="5683" v:groupContext="shape" transform="translate(266.589,-33.6509)">
			<title>工作表.5683</title>
			<path d="M3.91 235.18 L3.86 235.15 L3.86 228.17 L4.03 228.12 L4.42 228 L4.81 227.88 L4.91 227.77 L5.01 227.66 L5.11 227.54
						 L5.21 227.44 L4.96 226.68 L4.72 225.93 L4.81 225.81 L4.91 225.71 L4.72 225.93 L5.21 227.44 L5.42 227.21
						 L5.51 227.1 L5.61 226.99 L5.54 226.74 L5.51 226.61 L5.33 225.98 L5.02 225.47 L4.71 224.95 L4.38 224.44 L4.07
						 223.92 L3.76 223.41 L3.44 222.89 L3.12 222.38 L2.81 221.86 L1.4 224.16 L0 226.47 L0.13 226.97 L0.28 227.47
						 L1.52 228.19 L1.75 228.21 L1.75 235.15 L1.7 235.18 L3.91 235.18 ZM3.91 224.76 L3.81 224.87 L4.01 224.65
						 L3.91 224.76 Z" class="st10"/>
		</g>
		<g id="shape5688-37" v:mID="5688" v:groupContext="shape" transform="translate(270.39,-25.9914)">
			<title>工作表.5688</title>
			<path d="M0 229.89 L0.36 230.1 L4.27 232.36 L5.06 232.81 L4.98 233.18 L4.92 233.38 L4.88 233.58 L4.83 233.78 L5.61 233.93
						 L6.38 234.09 L4.83 233.78 L4.92 234.06 L5.12 234.63 L5.21 234.92 L6.21 235.18 L11.06 235.05 L7.16 234.96
						 L8.13 234.98 L11.06 235.05 L9.76 232.69 L9.11 231.5 L8.46 230.32 L8.21 230.26 L7.96 230.19 L7.46 230.06
						 L7.31 230.15 L7.15 230.24 L6.84 230.42 L6.68 230.51 L6.38 230.69 L6.21 230.77 L6.08 230.96 L5.49 230.62
						 L3.53 229.5 L1.57 228.37 L0.11 227.52 L0 227.52 L0 229.89 Z" class="st11"/>
		</g>
		<g id="shape5693-39" v:mID="5693" v:groupContext="shape" transform="translate(257.346,-25.9914)">
			<title>工作表.5693</title>
			<path d="M11.03 227.52 L10.95 227.52 L4.98 230.96 L4.84 230.77 L4.53 230.6 L4.21 230.42 L3.91 230.24 L3.6 230.06 L3.09
						 230.19 L2.59 230.32 L1.29 232.69 L0 235.05 L1.21 235.08 L3.63 235.15 L4.84 235.18 L5.34 235.05 L5.59 234.98
						 L5.85 234.92 L5.94 234.63 L6.13 234.06 L6.22 233.78 L6.13 233.38 L5.99 232.81 L11.03 229.9 L11.03 227.52
						 Z" class="st12"/>
		</g>
		<g id="shape5695-41" v:mID="5695" v:groupContext="shape" transform="translate(266.589,-29.8834)">
			<title>圆形.5695</title>
			<v:userDefs>
				<v:ud v:nameU="visVersion" v:val="VT0(15):26"/>
			</v:userDefs>
			<path d="M0 232.37 A2.8062 2.8062 0 0 1 5.61 232.37 A2.8062 2.8062 0 0 1 0 232.37 Z" class="st13"/>
		</g>
		<g id="shape6010-43" v:mID="6010" v:groupContext="shape" transform="translate(150.194,-154.9)">
			<title>工作表.6010</title>
			<desc>Top</desc>
			<v:textBlock v:margins="rect(4,4,4,4)" v:tabSpace="42.5197"/>
			<v:textRect cx="18.1938" cy="225.649" width="36.39" height="19.0605"/>
			<rect x="0" y="216.119" width="36.3875" height="19.0605" class="st14"/>
			<text x="8.78" y="229.25" class="st15" v:langID="2052"><v:paragraph v:horizAlign="1"/><v:tabList/>Top</text>		</g>
		<g id="shape6011-46" v:mID="6011" v:groupContext="shape" transform="translate(106.738,-87.3625)">
			<title>工作表.6011</title>
			<desc>Left</desc>
			<v:textBlock v:margins="rect(4,4,4,4)" v:tabSpace="42.5197"/>
			<v:textRect cx="18.1938" cy="225.649" width="36.39" height="19.0605"/>
			<rect x="0" y="216.119" width="36.3875" height="19.0605" class="st14"/>
			<text x="8.66" y="229.25" class="st15" v:langID="2052"><v:paragraph v:horizAlign="1"/><v:tabList/>Left</text>		</g>
		<g id="shape6012-49" v:mID="6012" v:groupContext="shape" transform="translate(193.65,-87.3625)">
			<title>工作表.6012</title>
			<desc>Front</desc>
			<v:textBlock v:margins="rect(4,4,4,4)" v:tabSpace="42.5197"/>
			<v:textRect cx="18.1938" cy="225.649" width="36.39" height="19.0605"/>
			<rect x="0" y="216.119" width="36.3875" height="19.0605" class="st14"/>
			<text x="4.78" y="229.25" class="st15" v:langID="2052"><v:paragraph v:horizAlign="1"/><v:tabList/>Front</text>		</g>
		<g id="shape6013-52" v:mID="6013" v:groupContext="shape" transform="translate(273.493,-118.355)">
			<title>工作表.6013</title>
			<desc>Right</desc>
			<v:textBlock v:margins="rect(4,4,4,4)" v:tabSpace="42.5197"/>
			<v:textRect cx="18.1938" cy="225.649" width="36.39" height="19.0605"/>
			<rect x="0" y="216.119" width="36.3875" height="19.0605" class="st14"/>
			<text x="5.2" y="229.25" class="st15" v:langID="2052"><v:paragraph v:horizAlign="1"/><v:tabList/>Right</text>		</g>
		<g id="shape6014-55" v:mID="6014" v:groupContext="shape" transform="translate(117.136,-1.70079)">
			<title>工作表.6014</title>
			<desc>Bottom</desc>
			<v:textBlock v:margins="rect(4,4,4,4)" v:tabSpace="42.5197"/>
			<v:textRect cx="25.1238" cy="227.35" width="50.25" height="15.6576"/>
			<rect x="0" y="219.522" width="50.2476" height="15.6576" class="st14"/>
			<text x="6.27" y="230.95" class="st15" v:langID="2052"><v:paragraph v:horizAlign="1"/><v:tabList/>Bottom</text>		</g>
		<g id="shape6015-58" v:mID="6015" v:groupContext="shape" transform="translate(20.6929,-121.131)">
			<title>工作表.6015</title>
			<desc>Back</desc>
			<v:textBlock v:margins="rect(4,4,4,4)" v:tabSpace="42.5197"/>
			<v:textRect cx="18.1938" cy="225.649" width="36.39" height="19.0605"/>
			<rect x="0" y="216.119" width="36.3875" height="19.0605" class="st14"/>
			<text x="6.48" y="229.25" class="st15" v:langID="2052"><v:paragraph v:horizAlign="1"/><v:tabList/>Back</text>		</g>
		<g id="shape6017-61" v:mID="6017" v:groupContext="shape" v:layerMember="0"
				transform="translate(273.493,-127.885) scale(-1,1)">
			<title>直线-弧线连接线.6017</title>
			<v:userDefs>
				<v:ud v:nameU="Scale" v:val="VT0(1):26"/>
				<v:ud v:nameU="AntiScale" v:val="VT0(1):26"/>
				<v:ud v:nameU="visVersion" v:val="VT0(15):26"/>
			</v:userDefs>
			<path d="M0 235.18 L15.73 235.18" class="st3"/>
		</g>
		<g id="shape6018-66" v:mID="6018" v:groupContext="shape" v:layerMember="0" transform="translate(51.9541,-130.661)">
			<title>直线-弧线连接线.6018</title>
			<v:userDefs>
				<v:ud v:nameU="Scale" v:val="VT0(1):26"/>
				<v:ud v:nameU="AntiScale" v:val="VT0(1):26"/>
				<v:ud v:nameU="visVersion" v:val="VT0(15):26"/>
			</v:userDefs>
			<path d="M0 235.18 L15.73 235.18" class="st3"/>
		</g>
		<g id="shape6020-71" v:mID="6020" v:groupContext="shape" transform="translate(51.1161,-187.507)">
			<title>工作表.6020</title>
			<desc>Point0 (0, 0, 0)</desc>
			<v:textBlock v:margins="rect(4,4,4,4)" v:tabSpace="42.5197"/>
			<v:textRect cx="31.4533" cy="221.672" width="62.91" height="27.0148"/>
			<rect x="0" y="208.164" width="62.9066" height="27.0148" class="st14"/>
			<text x="15.22" y="218.07" class="st15" v:langID="2052"><v:paragraph v:horizAlign="1"/><v:tabList/>Point0<v:newlineChar/><tspan
						x="12.79" dy="1.2em" class="st16">(0, 0, 0)</tspan></text>		</g>
		<g id="shape6022-75" v:mID="6022" v:groupContext="shape" transform="translate(252.41,-163.586)">
			<title>圆形</title>
			<v:userDefs>
				<v:ud v:nameU="visVersion" v:val="VT0(15):26"/>
			</v:userDefs>
			<path d="M0 232.37 A2.8062 2.8062 0 0 1 5.61 232.37 A2.8062 2.8062 0 0 1 0 232.37 Z" class="st13"/>
		</g>
		<g id="shape6023-77" v:mID="6023" v:groupContext="shape" transform="translate(166.492,-198.208)">
			<title>圆形.6023</title>
			<v:userDefs>
				<v:ud v:nameU="visVersion" v:val="VT0(15):26"/>
			</v:userDefs>
			<path d="M0 232.37 A2.8062 2.8062 0 0 1 5.61 232.37 A2.8062 2.8062 0 0 1 0 232.37 Z" class="st13"/>
		</g>
		<g id="shape6024-79" v:mID="6024" v:groupContext="shape" transform="translate(78.694,-163.586)">
			<title>圆形.6024</title>
			<v:userDefs>
				<v:ud v:nameU="visVersion" v:val="VT0(15):26"/>
			</v:userDefs>
			<path d="M0 232.37 A2.8062 2.8062 0 0 1 5.61 232.37 A2.8062 2.8062 0 0 1 0 232.37 Z" class="st13"/>
		</g>
		<g id="shape6025-81" v:mID="6025" v:groupContext="shape" transform="translate(165.351,-114.462)">
			<title>圆形.6025</title>
			<v:userDefs>
				<v:ud v:nameU="visVersion" v:val="VT0(15):26"/>
			</v:userDefs>
			<path d="M0 232.37 A2.8062 2.8062 0 0 1 5.61 232.37 A2.8062 2.8062 0 0 1 0 232.37 Z" class="st13"/>
		</g>
		<g id="shape6026-83" v:mID="6026" v:groupContext="shape" transform="translate(239.642,-69.4849)">
			<title>圆形.6026</title>
			<v:userDefs>
				<v:ud v:nameU="visVersion" v:val="VT0(15):26"/>
			</v:userDefs>
			<path d="M0 232.37 A2.8062 2.8062 0 0 1 5.61 232.37 A2.8062 2.8062 0 0 1 0 232.37 Z" class="st13"/>
		</g>
		<g id="shape6027-85" v:mID="6027" v:groupContext="shape" transform="translate(90.8506,-69.4849)">
			<title>圆形.6027</title>
			<v:userDefs>
				<v:ud v:nameU="visVersion" v:val="VT0(15):26"/>
			</v:userDefs>
			<path d="M0 232.37 A2.8062 2.8062 0 0 1 5.61 232.37 A2.8062 2.8062 0 0 1 0 232.37 Z" class="st13"/>
		</g>
		<g id="shape6028-87" v:mID="6028" v:groupContext="shape" transform="translate(165.527,-13.7185)">
			<title>圆形.6028</title>
			<v:userDefs>
				<v:ud v:nameU="visVersion" v:val="VT0(15):26"/>
			</v:userDefs>
			<path d="M0 232.37 A2.8062 2.8062 0 0 1 5.61 232.37 A2.8062 2.8062 0 0 1 0 232.37 Z" class="st13"/>
		</g>
		<g id="shape6029-89" v:mID="6029" v:groupContext="shape" transform="translate(258.358,-163.586)">
			<title>工作表.6029</title>
			<desc>(l, l, 0)</desc>
			<v:textBlock v:margins="rect(4,4,4,4)" v:tabSpace="42.5197"/>
			<v:textRect cx="22.3843" cy="225.649" width="44.77" height="19.0605"/>
			<rect x="0" y="216.119" width="44.7686" height="19.0605" class="st14"/>
			<text x="6.85" y="229.25" class="st15" v:langID="2052"><v:paragraph v:horizAlign="1"/><v:tabList/>(<tspan class="st17">l</tspan>, <tspan
						class="st17">l</tspan>, 0)</text>		</g>
		<g id="shape6030-94" v:mID="6030" v:groupContext="shape" transform="translate(247.746,-69.4849)">
			<title>工作表.6030</title>
			<desc>(l, 0, 0)</desc>
			<v:textBlock v:margins="rect(4,4,4,4)" v:tabSpace="42.5197"/>
			<v:textRect cx="22.3843" cy="225.649" width="44.77" height="19.0605"/>
			<rect x="0" y="216.119" width="44.7686" height="19.0605" class="st14"/>
			<text x="5.28" y="229.25" class="st15" v:langID="2052"><v:paragraph v:horizAlign="1"/><v:tabList/>(<tspan class="st17">l</tspan>, 0, 0)</text>		</g>
		<g id="shape6031-98" v:mID="6031" v:groupContext="shape" transform="translate(171.332,-200.909)">
			<title>工作表.6031</title>
			<desc>(0, l, 0)</desc>
			<v:textBlock v:margins="rect(4,4,4,4)" v:tabSpace="42.5197"/>
			<v:textRect cx="22.3843" cy="225.649" width="44.77" height="19.0605"/>
			<rect x="0" y="216.119" width="44.7686" height="19.0605" class="st14"/>
			<text x="5.28" y="229.25" class="st15" v:langID="2052"><v:paragraph v:horizAlign="1"/><v:tabList/>(0, <tspan
						class="st17">l</tspan>, 0)</text>		</g>
		<g id="shape6032-102" v:mID="6032" v:groupContext="shape" transform="translate(33.5565,-163.586)">
			<title>工作表.6032</title>
			<desc>(0, l, l)</desc>
			<v:textBlock v:margins="rect(4,4,4,4)" v:tabSpace="42.5197"/>
			<v:textRect cx="22.3843" cy="225.649" width="44.77" height="19.0605"/>
			<rect x="0" y="216.119" width="44.7686" height="19.0605" class="st14"/>
			<text x="6.85" y="229.25" class="st15" v:langID="2052"><v:paragraph v:horizAlign="1"/><v:tabList/>(0, <tspan
						class="st17">l</tspan>, <tspan class="st17">l</tspan>)</text>		</g>
		<g id="shape6033-107" v:mID="6033" v:groupContext="shape" transform="translate(42.4333,-60.282)">
			<title>工作表.6033</title>
			<desc>(0, 0, l)</desc>
			<v:textBlock v:margins="rect(4,4,4,4)" v:tabSpace="42.5197"/>
			<v:textRect cx="22.3843" cy="225.649" width="44.77" height="19.0605"/>
			<rect x="0" y="216.119" width="44.7686" height="19.0605" class="st14"/>
			<text x="5.28" y="229.25" class="st15" v:langID="2052"><v:paragraph v:horizAlign="1"/><v:tabList/>(0, 0, <tspan
						class="st17">l</tspan>)</text>		</g>
		<g id="shape6034-111" v:mID="6034" v:groupContext="shape" transform="translate(146.914,-129.245)">
			<title>工作表.6034</title>
			<desc>(l, l, I)</desc>
			<v:textBlock v:margins="rect(4,4,4,4)" v:tabSpace="42.5197"/>
			<v:textRect cx="22.3843" cy="225.649" width="44.77" height="19.0605"/>
			<rect x="0" y="216.119" width="44.7686" height="19.0605" class="st14"/>
			<text x="8.29" y="229.25" class="st15" v:langID="2052"><v:paragraph v:horizAlign="1"/><v:tabList/>(<tspan class="st17">l</tspan>, <tspan
						class="st17">l</tspan>, <tspan class="st17">I</tspan>)</text>		</g>
		<g id="shape6035-117" v:mID="6035" v:groupContext="shape" transform="translate(174.806,-2.83465)">
			<title>工作表.6035</title>
			<desc>(l, 0, l)</desc>
			<v:textBlock v:margins="rect(4,4,4,4)" v:tabSpace="42.5197"/>
			<v:textRect cx="22.3843" cy="226.931" width="44.77" height="16.4963"/>
			<rect x="0" y="218.683" width="44.7686" height="16.4963" class="st14"/>
			<text x="6.85" y="230.53" class="st15" v:langID="2052"><v:paragraph v:horizAlign="1"/><v:tabList/>(<tspan class="st17">l</tspan>, 0, <tspan
						class="st17">l</tspan>)</text>		</g>
		<g id="shape6042-122" v:mID="6042" v:groupContext="shape" transform="translate(7.66484,-212.989)">
			<title>工作表.6042</title>
			<desc>C3D8</desc>
			<v:textBlock v:margins="rect(4,4,4,4)" v:tabSpace="42.5197"/>
			<v:textRect cx="25.784" cy="226.931" width="51.57" height="16.4963"/>
			<rect x="0" y="218.683" width="51.568" height="16.4963" class="st14"/>
			<text x="6.22" y="232.33" class="st18" v:langID="2052"><v:paragraph v:horizAlign="1"/><v:tabList/>C3D8</text>		</g>
		<g id="shape6043-125" v:mID="6043" v:groupContext="shape" transform="translate(255.258,-192.805)">
			<title>工作表.6043</title>
			<desc>MeshSize=l</desc>
			<v:textBlock v:margins="rect(4,4,4,4)" v:tabSpace="42.5197"/>
			<v:textRect cx="32.65" cy="225.649" width="65.3" height="19.0605"/>
			<rect x="0" y="216.119" width="65.2999" height="19.0605" class="st14"/>
			<text x="4.6" y="229.25" class="st15" v:langID="2052"><v:paragraph v:horizAlign="1"/><v:tabList/>MeshSize=<tspan
						class="st17">l</tspan></text>		</g>
		<g id="shape6045-129" v:mID="6045" v:groupContext="shape" transform="translate(119.492,200.913) rotate(-97.7102)">
			<title>工作表.6045</title>
			<path d="M0 235.18 L94.63 235.18" class="st19"/>
		</g>
		<g id="shape6046-132" v:mID="6046" v:groupContext="shape" transform="translate(284.242,412.971) rotate(-142.702)">
			<title>工作表.6046</title>
			<path d="M0 235.18 L93.28 235.18" class="st19"/>
		</g>
		<g id="shape6047-135" v:mID="6047" v:groupContext="shape" transform="translate(252.995,-143.029) rotate(-21.6709)">
			<title>工作表.6047</title>
			<path d="M0 235.18 L93.52 235.18" class="st19"/>
		</g>
		<g id="shape6048-138" v:mID="6048" v:groupContext="shape" transform="translate(267.897,137.809) rotate(-82.2898)">
			<title>工作表.6048</title>
			<path d="M0 235.18 L94.63 235.18" class="st19"/>
		</g>
		<g id="shape6049-141" v:mID="6049" v:groupContext="shape" transform="translate(284.231,38.8133) rotate(-37.3017)">
			<title>工作表.6049</title>
			<path d="M0 235.18 L93.28 235.18" class="st19"/>
		</g>
		<g id="shape6050-144" v:mID="6050" v:groupContext="shape" transform="translate(339.841,-9.29119)">
			<title>工作表.6050</title>
			<path d="M173.81 84.82 L86.9 50.28 L173.81 84.82 ZM86.91 133.64 L173.82 84.82 L86.91 133.64 ZM86.91 133.64 L86.91 235.18
						 L86.91 133.64 ZM0 84.82 L86.91 133.64 L0 84.82 Z" class="st20"/>
			<path d="M173.81 84.82 L86.9 50.28M86.91 133.64 L173.82 84.82M86.91 133.64 L86.91 235.18M0 84.82 L86.91 133.64"
					class="st19"/>
		</g>
		<g id="shape6051-147" v:mID="6051" v:groupContext="shape" transform="translate(221.484,122.8) rotate(-62.202)">
			<title>工作表.6051</title>
			<path d="M0 235.18 L2.42 235.18" class="st21"/>
		</g>
		<g id="shape6052-150" v:mID="6052" v:groupContext="shape" transform="translate(332.722,-1.80501)">
			<title>工作表.6052</title>
			<path d="M94.03 227.69 L97.94 232.15 L96.78 230.03 L94.03 227.69 ZM94.03 227.69 L96.77 230.02 L94.03 229.15 L91.28 230.02
						 L94.03 227.69 ZM94.03 227.69 L91.28 230.02 L90.12 232.14 L94.03 227.69 ZM94.03 227.69 L90.12 232.15 L91.25
						 234.29 L94.03 227.69 ZM94.03 227.69 L91.25 234.28 L94.03 235.18 L94.03 227.69 ZM94.03 227.69 L94.03 235.18
						 L96.81 234.28 L94.03 227.69 ZM80.04 221.49 L81.25 219.43 L80.04 221.49 ZM77.22 214.89 L81.25 219.44 L80.19
						 217.39 L77.22 214.89 ZM77.22 214.89 L80.2 217.39 L77.5 216.56 L74.73 217.39 L77.22 214.89 ZM77.22 214.89
						 L74.73 217.39 L73.48 219.44 L77.22 214.89 ZM77.22 214.89 L73.48 219.44 L74.51 221.5 L77.22 214.89 ZM77.22
						 214.89 L74.51 221.5 L77.24 222.36 L77.22 214.89 ZM77.22 214.89 L77.24 222.35 L80.04 221.49 L77.22 214.89
						 ZM64.36 209.53 L65.65 207.54 L64.36 209.53 ZM61.49 202.9 L65.65 207.54 L64.68 205.58 L61.49 202.9 ZM61.49
						 202.9 L64.69 205.58 L62.03 204.77 L59.23 205.58 L61.49 202.9 ZM61.49 202.9 L59.23 205.58 L57.91 207.54 L61.49
						 202.9 ZM61.49 202.9 L57.91 207.54 L58.86 209.53 L61.49 202.9 ZM61.49 202.9 L58.86 209.53 L61.54 210.36 L61.49
						 202.9 ZM61.49 202.9 L61.54 210.36 L64.36 209.53 L61.49 202.9 ZM49.66 198.33 L51.03 196.4 L49.66 198.33 ZM46.74
						 191.67 L51.03 196.4 L50.13 194.49 L46.74 191.67 ZM46.74 191.67 L50.13 194.5 L47.52 193.72 L44.69 194.5 L46.74
						 191.67 ZM46.74 191.67 L43.29 196.4 L44.16 198.33 L46.74 191.67 ZM46.74 191.67 L44.15 198.33 L46.8 199.14
						 L46.74 191.67 ZM46.74 191.67 L46.8 199.14 L49.66 198.33 L46.74 191.67 ZM35.85 187.81 L37.31 185.94 L35.85
						 187.81 ZM32.88 181.11 L37.31 185.94 L36.48 184.09 L32.88 181.11 ZM32.88 181.11 L36.47 184.09 L33.88 183.33
						 L32.88 181.11 ZM32.88 181.11 L33.88 183.33 L31.02 184.09 L32.88 181.11 ZM32.88 181.11 L31.03 184.09 L32.88
						 181.11 ZM32.88 181.11 L29.55 185.94 L30.34 187.81 L32.88 181.11 ZM32.88 181.11 L30.34 187.81 L32.96 188.59
						 L32.88 181.11 ZM32.88 181.11 L32.96 188.6 L35.85 187.82 L32.88 181.11 ZM22.85 177.93 L24.38 176.11 L22.85
						 177.93 ZM19.82 171.17 L24.38 176.11 L23.62 174.29 L19.82 171.17 ZM19.82 171.17 L23.62 174.29 L21.05 173.55
						 L19.82 171.17 ZM19.82 171.17 L21.05 173.56 L18.16 174.3 L19.82 171.17 ZM19.82 171.17 L18.16 174.29 L16.6
						 176.11 L19.82 171.17 ZM19.82 171.17 L16.6 176.11 L17.33 177.93 L19.82 171.17 ZM19.82 171.17 L17.33 177.93
						 L19.93 178.69 L19.82 171.17 ZM19.82 171.17 L19.93 178.69 L22.86 177.93 L19.82 171.17 ZM96.74 135.84 L97.84
						 134.28 L96.71 132.73 L96.74 135.84 ZM94.03 129.06 L96.71 132.73 L94.03 132.09 L91.35 132.73 L94.03 129.06
						 ZM94.03 129.06 L90.22 134.28 L91.32 135.84 L94.03 129.06 ZM94.03 129.06 L91.31 135.84 L94.03 136.5 L94.03
						 129.06 ZM94.03 129.06 L94.03 136.5 L96.74 135.84 L94.03 129.06 ZM80.74 136.6 L83.5 143.35 L84.67 141.75
						 L80.74 136.6 ZM80.74 136.6 L84.67 141.75 L83.6 140.16 L80.74 136.6 ZM80.74 136.6 L83.61 140.16 L80.96 139.51
						 L78.24 140.16 L80.74 136.6 ZM80.74 136.6 L78.24 140.16 L80.74 136.6 ZM80.74 136.6 L77.04 141.75 L78.07 143.35
						 L80.74 136.6 ZM80.74 136.6 L78.08 143.35 L80.76 144.03 L80.74 136.6 ZM80.74 136.6 L80.76 144.03 L83.5 143.35
						 L80.74 136.6 ZM69.55 151.29 L70.8 149.64 L69.55 151.29 ZM66.74 144.55 L70.8 149.64 L69.81 148.01 L66.74
						 144.55 ZM66.74 144.55 L69.81 148.01 L67.19 147.34 L66.74 144.55 ZM66.74 144.55 L67.18 147.33 L64.43 148
						 L66.74 144.55 ZM63.16 149.64 L66.74 144.55 L63.16 149.64 L64.12 151.29 L63.16 149.64 ZM66.74 144.55 L64.12
						 151.29 L66.77 151.98 L66.74 144.55 ZM66.74 144.55 L66.77 151.98 L69.55 151.29 L66.74 144.55 ZM54.84 159.66
						 L56.18 157.96 L54.84 159.66 ZM51.96 152.93 L56.18 157.96 L55.26 156.27 L51.96 152.93 ZM51.96 152.93 L55.25
						 156.28 L52.65 155.59 L51.96 152.93 ZM51.96 152.93 L52.65 155.58 L49.87 156.27 L51.96 152.93 ZM51.96 152.93
						 L49.87 156.28 L48.5 157.97 L51.96 152.93 ZM51.96 152.93 L48.5 157.96 L49.38 159.66 L51.96 152.93 ZM51.96
						 152.93 L49.39 159.66 L52.03 160.37 L51.96 152.93 ZM51.96 152.93 L52.03 160.37 L54.84 159.66 L51.96 152.93
						 ZM39.3 168.53 L40.72 166.77 L39.3 168.53 ZM36.36 161.79 L40.72 166.77 L39.89 165.03 L36.36 161.79 ZM36.36
						 161.79 L39.89 165.03 L37.3 164.32 L36.36 161.79 ZM36.36 161.79 L37.31 164.32 L34.47 165.03 L36.36 161.79
						 ZM36.36 161.79 L34.46 165.03 L33.01 166.77 L36.36 161.79 ZM36.36 161.79 L33.01 166.77 L33.82 168.53 L36.36
						 161.79 ZM36.36 161.79 L33.83 168.53 L36.44 169.27 L36.36 161.79 ZM36.36 161.79 L36.44 169.27 L39.3 168.53
						 L36.36 161.79 ZM170.72 177.93 L171.45 176.11 L170.72 177.93 ZM168.23 171.17 L171.45 176.11 L169.9 174.29
						 L168.23 171.17 ZM168.23 171.17 L169.9 174.29 L167 173.55 L164.44 174.29 L168.23 171.17 ZM168.23 171.17 L164.43
						 174.29 L163.66 176.11 L168.23 171.17 ZM168.23 171.17 L163.67 176.11 L165.2 177.93 L168.23 171.17 ZM168.23
						 171.17 L165.2 177.93 L168.13 178.69 L168.23 171.17 ZM168.23 171.17 L168.12 178.69 L170.72 177.93 L168.23
						 171.17 ZM154.23 168.53 L155.04 166.77 L154.23 168.53 ZM151.7 161.79 L155.04 166.77 L153.59 165.03 L151.7
						 161.79 ZM151.7 161.79 L153.59 165.03 L150.75 164.32 L151.7 161.79 ZM151.7 161.79 L150.75 164.32 L148.15
						 165.03 L151.7 161.79 ZM151.7 161.79 L148.16 165.03 L147.33 166.77 L151.7 161.79 ZM151.7 161.79 L147.33 166.77
						 L148.75 168.53 L151.7 161.79 ZM151.7 161.79 L148.75 168.53 L151.62 169.27 L151.7 161.79 ZM151.7 161.79 L151.62
						 169.27 L154.22 168.53 L151.7 161.79 ZM138.66 159.66 L139.54 157.96 L138.66 159.66 ZM136.08 152.93 L139.54
						 157.96 L138.18 156.27 L136.08 152.93 ZM136.08 152.93 L138.18 156.28 L135.4 155.59 L136.08 152.93 ZM136.08
						 152.93 L135.4 155.58 L132.79 156.27 L136.08 152.93 ZM136.08 152.93 L132.79 156.28 L131.87 157.97 L136.08
						 152.93 ZM136.08 152.93 L131.87 157.96 L133.2 159.66 L136.08 152.93 ZM136.08 152.93 L133.2 159.66 L136.02
						 160.37 L136.08 152.93 ZM136.08 152.93 L136.02 160.37 L138.66 159.66 L136.08 152.93 ZM123.93 151.29 L124.89
						 149.64 L123.93 151.29 ZM121.31 144.55 L124.89 149.64 L123.62 148.01 L121.31 144.55 ZM121.31 144.55 L123.62
						 148.01 L120.87 147.34 L121.31 144.55 ZM121.31 144.55 L120.87 147.33 L118.25 148 L121.31 144.55 ZM121.31
						 144.55 L118.24 148.01 L117.25 149.64 L121.31 144.55 ZM121.31 144.55 L117.25 149.64 L118.51 151.29 L121.31
						 144.55 ZM121.31 144.55 L118.5 151.29 L121.27 151.98 L121.31 144.55 ZM121.31 144.55 L121.28 151.98 L123.93
						 151.29 L121.31 144.55 ZM109.97 143.35 L111 141.75 L109.97 143.35 ZM107.31 136.6 L111.01 141.75 L109.81 140.16
						 L107.31 136.6 ZM107.31 136.6 L109.81 140.16 L107.09 139.51 L104.44 140.16 L107.31 136.6 ZM107.31 136.6 L104.44
						 140.16 L107.31 136.6 ZM107.31 136.6 L103.38 141.75 L104.56 143.35 L107.31 136.6 ZM107.31 136.6 L104.56 143.35
						 L107.29 144.03 L107.31 136.6 ZM107.31 136.6 L107.29 144.03 L109.97 143.35 L107.31 136.6 ZM157.71 187.81
						 L158.5 185.94 L157.71 187.81 ZM155.17 181.11 L158.5 185.94 L157.02 184.09 L155.17 181.11 ZM155.17 181.11
						 L157.02 184.09 L154.16 183.33 L151.57 184.09 L155.17 181.11 ZM155.17 181.11 L151.58 184.09 L150.75 185.94
						 L155.17 181.11 ZM155.17 181.11 L150.75 185.94 L152.2 187.81 L155.17 181.11 ZM155.17 181.11 L152.2 187.81
						 L155.09 188.59 L155.17 181.11 ZM155.17 181.11 L155.09 188.6 L157.71 187.82 L155.17 181.11 ZM143.9 198.33
						 L144.77 196.4 L143.37 194.49 L143.9 198.33 ZM141.31 191.67 L143.36 194.5 L140.53 193.72 L141.31 191.67 ZM141.31
						 191.67 L140.53 193.71 L137.92 194.49 L141.31 191.67 ZM141.31 191.67 L137.92 194.5 L137.02 196.41 L141.31
						 191.67 ZM141.31 191.67 L137.02 196.4 L138.39 198.33 L141.31 191.67 ZM141.31 191.67 L138.38 198.33 L141.24
						 199.14 L141.31 191.67 ZM141.31 191.67 L141.25 199.14 L143.9 198.33 L141.31 191.67 ZM129.2 209.53 L130.14
						 207.54 L129.2 209.53 ZM126.56 202.9 L130.14 207.54 L128.82 205.58 L126.56 202.9 ZM126.56 202.9 L128.82 205.58
						 L126.02 204.77 L123.37 205.58 L126.56 202.9 ZM126.56 202.9 L123.37 205.58 L122.39 207.54 L126.56 202.9 ZM126.56
						 202.9 L122.4 207.54 L123.69 209.53 L126.56 202.9 ZM126.56 202.9 L123.69 209.53 L126.51 210.36 L126.56 202.9
						 ZM126.56 202.9 L126.51 210.36 L129.19 209.53 L126.56 202.9 ZM113.54 221.49 L114.57 219.43 L113.54 221.49
						 ZM110.83 214.89 L114.57 219.44 L113.32 217.39 L110.83 214.89 ZM110.83 214.89 L113.32 217.39 L110.55 216.56
						 L107.85 217.39 L110.83 214.89 ZM110.83 214.89 L107.85 217.39 L106.79 219.44 L110.83 214.89 ZM110.83 214.89
						 L106.8 219.44 L108.01 221.5 L110.83 214.89 ZM110.83 214.89 L108.01 221.5 L110.81 222.36 L110.83 214.89 ZM110.83
						 214.89 L110.81 222.35 L113.54 221.49 L110.83 214.89 ZM19.08 166.43 L17.87 164.83 L19.08 166.43 ZM19.82 171.17
						 L17.87 164.83 L15.5 165.19 L19.82 171.17 ZM19.82 171.17 L15.49 165.19 L13.36 167.32 L19.82 171.17 ZM19.82
						 171.17 L13.36 167.33 L12.73 169.97 L19.82 171.17 L12.73 169.97 L13.98 171.56 L19.82 171.17 ZM19.82 171.17
						 L13.98 171.55 L16.34 171.16 L19.82 171.17 ZM19.82 171.17 L16.34 171.16 L18.44 169.04 L19.82 171.17 ZM19.82
						 171.17 L18.44 169.04 L19.08 166.43 L19.82 171.17 ZM16.87 150.17 L15.65 148.48 L16.87 150.17 ZM17.59 154.66
						 L15.65 148.48 L13.28 148.75 L17.59 154.66 ZM17.59 154.66 L13.28 148.76 L11.14 150.86 L17.59 154.66 ZM17.59
						 154.66 L11.14 150.85 L10.52 153.52 L17.59 154.66 ZM17.59 154.66 L10.52 153.53 L11.77 155.2 L17.59 154.66
						 ZM17.59 154.66 L11.77 155.2 L14.15 154.88 L17.59 154.66 ZM17.59 154.66 L14.15 154.88 L16.25 152.81 L17.59
						 154.66 ZM17.59 154.66 L16.25 152.81 L16.87 150.17 L17.59 154.66 ZM14.53 132.89 L13.3 131.12 L14.53 132.89
						 ZM15.21 137.13 L13.3 131.12 L10.9 131.3 L15.21 137.13 ZM15.21 137.13 L10.91 131.29 L8.77 133.35 L15.21 137.13
						 ZM15.21 137.13 L8.77 133.35 L8.15 136.07 L15.21 137.13 ZM15.21 137.13 L8.15 136.07 L9.41 137.82 L15.21 137.13
						 ZM15.21 137.13 L9.42 137.82 L11.81 137.61 L15.21 137.13 ZM15.21 137.13 L11.81 137.61 L13.91 135.57 L15.21
						 137.13 ZM15.21 137.13 L13.91 135.57 L14.53 132.89 L15.21 137.13 ZM12.04 114.5 L10.79 112.62 L12.04 114.5
						 ZM12.69 118.48 L10.79 112.61 L8.39 112.69 L12.69 118.48 ZM12.69 118.48 L8.38 112.69 L6.23 114.71 L12.69
						 118.48 ZM12.69 118.48 L6.23 114.71 L5.62 117.47 L12.69 118.48 ZM12.69 118.48 L5.62 117.47 L6.9 119.34 L12.69
						 118.48 ZM12.69 118.48 L6.9 119.34 L9.31 119.23 L12.69 118.48 ZM12.69 118.48 L9.31 119.23 L11.42 117.23 L12.69
						 118.48 ZM12.69 118.48 L11.42 117.22 L12.04 114.49 L12.69 118.48 ZM9.38 94.88 L8.11 92.88 L9.38 94.88 ZM10
						 98.59 L8.11 92.89 L5.68 92.86 L10 98.59 ZM10 98.59 L5.68 92.86 L3.51 94.83 L10 98.59 ZM10 98.59 L3.51 94.83
						 L2.9 97.66 L10 98.59 ZM10 98.59 L2.91 97.66 L4.22 99.64 L10 98.59 ZM10 98.59 L4.21 99.64 L6.63 99.63 L10
						 98.59 ZM10 98.59 L6.63 99.63 L8.77 97.67 L10 98.59 ZM10 98.59 L8.77 97.67 L9.38 94.89 L10 98.59 ZM6.54 73.91
						 L5.24 71.78 L6.54 73.91 ZM7.12 77.33 L5.25 71.78 L2.79 71.64 L7.12 77.33 ZM7.12 77.33 L2.79 71.64 L0.6 73.59
						 L7.12 77.33 ZM7.12 77.33 L0.6 73.59 L0 76.47 L7.12 77.33 ZM7.12 77.33 L0 76.46 L1.33 78.57 L7.12 77.33 ZM7.12
						 77.33 L1.33 78.58 L3.78 78.69 L7.12 77.33 ZM7.12 77.33 L3.78 78.69 L5.94 76.76 L7.12 77.33 ZM7.12 77.33
						 L5.93 76.76 L6.54 73.91 L7.12 77.33 ZM92.2 39.89 L91.39 37.6 L92.2 39.89 ZM94.03 42.8 L91.39 37.6 L89.41
						 37.27 L94.03 42.8 ZM94.03 42.8 L89.41 37.27 L87.44 39.12 L94.03 42.8 ZM94.03 42.8 L87.43 39.12 L86.63 42.06
						 L94.03 42.8 ZM94.03 42.8 L86.63 42.07 L87.49 44.36 L94.03 42.8 ZM94.03 42.8 L87.49 44.35 L89.46 44.64 L94.03
						 42.8 ZM94.03 42.8 L89.46 44.64 L91.4 42.8 L94.03 42.8 ZM94.03 42.8 L91.41 42.8 L92.21 39.89 L94.03 42.8
						 ZM77.14 45.89 L76.24 43.63 L77.14 45.89 ZM78.74 48.88 L76.24 43.64 L74.19 43.34 L78.74 48.88 Z"
					class="st20"/>
			<path d="M94.03 227.69 L97.94 232.15 L96.78 230.03M94.03 227.69 L96.77 230.02 L94.03 229.15 L91.28 230.02M94.03 227.69
						 L91.28 230.02 L90.12 232.14M94.03 227.69 L90.12 232.15 L91.25 234.29M94.03 227.69 L91.25 234.28 L94.03 235.18M94.03
						 227.69 L94.03 235.18 L96.81 234.28 L94.03 227.69M80.04 221.49 L81.25 219.43M77.22 214.89 L81.25 219.44 L80.19
						 217.39M77.22 214.89 L80.2 217.39 L77.5 216.56 L74.73 217.39M77.22 214.89 L74.73 217.39 L73.48 219.44M77.22
						 214.89 L73.48 219.44 L74.51 221.5M77.22 214.89 L74.51 221.5 L77.24 222.36M77.22 214.89 L77.24 222.35 L80.04
						 221.49 L77.22 214.89M64.36 209.53 L65.65 207.54M61.49 202.9 L65.65 207.54 L64.68 205.58M61.49 202.9 L64.69
						 205.58 L62.03 204.77 L59.23 205.58M61.49 202.9 L59.23 205.58 L57.91 207.54M61.49 202.9 L57.91 207.54 L58.86
						 209.53M61.49 202.9 L58.86 209.53 L61.54 210.36M61.49 202.9 L61.54 210.36 L64.36 209.53 L61.49 202.9M49.66
						 198.33 L51.03 196.4M46.74 191.67 L51.03 196.4 L50.13 194.49M46.74 191.67 L50.13 194.5 L47.52 193.72 L44.69
						 194.5M46.74 191.67 L43.29 196.4 L44.16 198.33M46.74 191.67 L44.15 198.33 L46.8 199.14M46.74 191.67 L46.8
						 199.14 L49.66 198.33 L46.74 191.67M35.85 187.81 L37.31 185.94M32.88 181.11 L37.31 185.94 L36.48 184.09M32.88
						 181.11 L36.47 184.09 L33.88 183.33M32.88 181.11 L33.88 183.33 L31.02 184.09M32.88 181.11 L31.03 184.09M32.88
						 181.11 L29.55 185.94 L30.34 187.81M32.88 181.11 L30.34 187.81 L32.96 188.59M32.88 181.11 L32.96 188.6 L35.85
						 187.82 L32.88 181.11M22.85 177.93 L24.38 176.11M19.82 171.17 L24.38 176.11 L23.62 174.29M19.82 171.17 L23.62
						 174.29 L21.05 173.55M19.82 171.17 L21.05 173.56 L18.16 174.3M19.82 171.17 L18.16 174.29 L16.6 176.11M19.82
						 171.17 L16.6 176.11 L17.33 177.93M19.82 171.17 L17.33 177.93 L19.93 178.69M19.82 171.17 L19.93 178.69 L22.86
						 177.93 L19.82 171.17M96.74 135.84 L97.84 134.28 L96.71 132.73M94.03 129.06 L96.71 132.73 L94.03 132.09 L91.35
						 132.73M94.03 129.06 L90.22 134.28 L91.32 135.84M94.03 129.06 L91.31 135.84 L94.03 136.5M94.03 129.06 L94.03
						 136.5 L96.74 135.84 L94.03 129.06M80.74 136.6 L83.5 143.35 L84.67 141.75M80.74 136.6 L84.67 141.75 L83.6
						 140.16M80.74 136.6 L83.61 140.16 L80.96 139.51 L78.24 140.16M80.74 136.6 L78.24 140.16M80.74 136.6 L77.04
						 141.75 L78.07 143.35M80.74 136.6 L78.08 143.35 L80.76 144.03M80.74 136.6 L80.76 144.03 L83.5 143.35 L80.74
						 136.6M69.55 151.29 L70.8 149.64M66.74 144.55 L70.8 149.64 L69.81 148.01M66.74 144.55 L69.81 148.01 L67.19
						 147.34M66.74 144.55 L67.18 147.33 L64.43 148M63.16 149.64 L66.74 144.55 L63.16 149.64 L64.12 151.29M66.74
						 144.55 L64.12 151.29 L66.77 151.98M66.74 144.55 L66.77 151.98 L69.55 151.29 L66.74 144.55M54.84 159.66 L56.18
						 157.96M51.96 152.93 L56.18 157.96 L55.26 156.27M51.96 152.93 L55.25 156.28 L52.65 155.59M51.96 152.93 L52.65
						 155.58 L49.87 156.27M51.96 152.93 L49.87 156.28 L48.5 157.97M51.96 152.93 L48.5 157.96 L49.38 159.66M51.96
						 152.93 L49.39 159.66 L52.03 160.37M51.96 152.93 L52.03 160.37 L54.84 159.66 L51.96 152.93M39.3 168.53 L40.72
						 166.77M36.36 161.79 L40.72 166.77 L39.89 165.03M36.36 161.79 L39.89 165.03 L37.3 164.32M36.36 161.79 L37.31
						 164.32 L34.47 165.03M36.36 161.79 L34.46 165.03 L33.01 166.77M36.36 161.79 L33.01 166.77 L33.82 168.53M36.36
						 161.79 L33.83 168.53 L36.44 169.27M36.36 161.79 L36.44 169.27 L39.3 168.53 L36.36 161.79M170.72 177.93 L171.45
						 176.11M168.23 171.17 L171.45 176.11 L169.9 174.29M168.23 171.17 L169.9 174.29 L167 173.55 L164.44 174.29M168.23
						 171.17 L164.43 174.29 L163.66 176.11M168.23 171.17 L163.67 176.11 L165.2 177.93M168.23 171.17 L165.2 177.93
						 L168.13 178.69M168.23 171.17 L168.12 178.69 L170.72 177.93 L168.23 171.17M154.23 168.53 L155.04 166.77M151.7
						 161.79 L155.04 166.77 L153.59 165.03M151.7 161.79 L153.59 165.03 L150.75 164.32M151.7 161.79 L150.75 164.32
						 L148.15 165.03M151.7 161.79 L148.16 165.03 L147.33 166.77M151.7 161.79 L147.33 166.77 L148.75 168.53M151.7
						 161.79 L148.75 168.53 L151.62 169.27M151.7 161.79 L151.62 169.27 L154.22 168.53 L151.7 161.79M138.66 159.66
						 L139.54 157.96M136.08 152.93 L139.54 157.96 L138.18 156.27M136.08 152.93 L138.18 156.28 L135.4 155.59M136.08
						 152.93 L135.4 155.58 L132.79 156.27M136.08 152.93 L132.79 156.28 L131.87 157.97M136.08 152.93 L131.87 157.96
						 L133.2 159.66M136.08 152.93 L133.2 159.66 L136.02 160.37M136.08 152.93 L136.02 160.37 L138.66 159.66 L136.08
						 152.93M123.93 151.29 L124.89 149.64M121.31 144.55 L124.89 149.64 L123.62 148.01M121.31 144.55 L123.62 148.01
						 L120.87 147.34M121.31 144.55 L120.87 147.33 L118.25 148M121.31 144.55 L118.24 148.01 L117.25 149.64M121.31
						 144.55 L117.25 149.64 L118.51 151.29M121.31 144.55 L118.5 151.29 L121.27 151.98M121.31 144.55 L121.28 151.98
						 L123.93 151.29 L121.31 144.55M109.97 143.35 L111 141.75M107.31 136.6 L111.01 141.75 L109.81 140.16M107.31
						 136.6 L109.81 140.16 L107.09 139.51 L104.44 140.16M107.31 136.6 L104.44 140.16M107.31 136.6 L103.38 141.75
						 L104.56 143.35M107.31 136.6 L104.56 143.35 L107.29 144.03M107.31 136.6 L107.29 144.03 L109.97 143.35 L107.31
						 136.6M157.71 187.81 L158.5 185.94M155.17 181.11 L158.5 185.94 L157.02 184.09M155.17 181.11 L157.02 184.09
						 L154.16 183.33 L151.57 184.09M155.17 181.11 L151.58 184.09 L150.75 185.94M155.17 181.11 L150.75 185.94 L152.2
						 187.81M155.17 181.11 L152.2 187.81 L155.09 188.59M155.17 181.11 L155.09 188.6 L157.71 187.82 L155.17 181.11M143.9
						 198.33 L144.77 196.4 L143.37 194.49M141.31 191.67 L143.36 194.5 L140.53 193.72M141.31 191.67 L140.53 193.71
						 L137.92 194.49M141.31 191.67 L137.92 194.5 L137.02 196.41M141.31 191.67 L137.02 196.4 L138.39 198.33M141.31
						 191.67 L138.38 198.33 L141.24 199.14M141.31 191.67 L141.25 199.14 L143.9 198.33 L141.31 191.67M129.2 209.53
						 L130.14 207.54M126.56 202.9 L130.14 207.54 L128.82 205.58M126.56 202.9 L128.82 205.58 L126.02 204.77 L123.37
						 205.58M126.56 202.9 L123.37 205.58 L122.39 207.54M126.56 202.9 L122.4 207.54 L123.69 209.53M126.56 202.9
						 L123.69 209.53 L126.51 210.36M126.56 202.9 L126.51 210.36 L129.19 209.53 L126.56 202.9M113.54 221.49 L114.57
						 219.43M110.83 214.89 L114.57 219.44 L113.32 217.39M110.83 214.89 L113.32 217.39 L110.55 216.56 L107.85 217.39M110.83
						 214.89 L107.85 217.39 L106.79 219.44M110.83 214.89 L106.8 219.44 L108.01 221.5M110.83 214.89 L108.01 221.5
						 L110.81 222.36M110.83 214.89 L110.81 222.35 L113.54 221.49 L110.83 214.89M19.08 166.43 L17.87 164.83M19.82
						 171.17 L17.87 164.83 L15.5 165.19M19.82 171.17 L15.49 165.19 L13.36 167.32M19.82 171.17 L13.36 167.33 L12.73
						 169.97 L19.82 171.17 L12.73 169.97 L13.98 171.56M19.82 171.17 L13.98 171.55 L16.34 171.16M19.82 171.17 L16.34
						 171.16 L18.44 169.04M19.82 171.17 L18.44 169.04 L19.08 166.43 L19.82 171.17M16.87 150.17 L15.65 148.48M17.59
						 154.66 L15.65 148.48 L13.28 148.75M17.59 154.66 L13.28 148.76 L11.14 150.86M17.59 154.66 L11.14 150.85 L10.52
						 153.52M17.59 154.66 L10.52 153.53 L11.77 155.2M17.59 154.66 L11.77 155.2 L14.15 154.88M17.59 154.66 L14.15
						 154.88 L16.25 152.81M17.59 154.66 L16.25 152.81 L16.87 150.17 L17.59 154.66M14.53 132.89 L13.3 131.12M15.21
						 137.13 L13.3 131.12 L10.9 131.3M15.21 137.13 L10.91 131.29 L8.77 133.35M15.21 137.13 L8.77 133.35 L8.15
						 136.07M15.21 137.13 L8.15 136.07 L9.41 137.82M15.21 137.13 L9.42 137.82 L11.81 137.61M15.21 137.13 L11.81
						 137.61 L13.91 135.57M15.21 137.13 L13.91 135.57 L14.53 132.89 L15.21 137.13M12.04 114.5 L10.79 112.62M12.69
						 118.48 L10.79 112.61 L8.39 112.69M12.69 118.48 L8.38 112.69 L6.23 114.71M12.69 118.48 L6.23 114.71 L5.62
						 117.47M12.69 118.48 L5.62 117.47 L6.9 119.34M12.69 118.48 L6.9 119.34 L9.31 119.23M12.69 118.48 L9.31 119.23
						 L11.42 117.23M12.69 118.48 L11.42 117.22 L12.04 114.49 L12.69 118.48M9.38 94.88 L8.11 92.88M10 98.59 L8.11
						 92.89 L5.68 92.86M10 98.59 L5.68 92.86 L3.51 94.83M10 98.59 L3.51 94.83 L2.9 97.66M10 98.59 L2.91 97.66
						 L4.22 99.64M10 98.59 L4.21 99.64 L6.63 99.63M10 98.59 L6.63 99.63 L8.77 97.67M10 98.59 L8.77 97.67 L9.38
						 94.89 L10 98.59M6.54 73.91 L5.24 71.78M7.12 77.33 L5.25 71.78 L2.79 71.64M7.12 77.33 L2.79 71.64 L0.6 73.59M7.12
						 77.33 L0.6 73.59 L0 76.47M7.12 77.33 L0 76.46 L1.33 78.57M7.12 77.33 L1.33 78.58 L3.78 78.69M7.12 77.33
						 L3.78 78.69 L5.94 76.76M7.12 77.33 L5.93 76.76 L6.54 73.91 L7.12 77.33M92.2 39.89 L91.39 37.6M94.03 42.8
						 L91.39 37.6 L89.41 37.27M94.03 42.8 L89.41 37.27 L87.44 39.12M94.03 42.8 L87.43 39.12 L86.63 42.06M94.03
						 42.8 L86.63 42.07 L87.49 44.36M94.03 42.8 L87.49 44.35 L89.46 44.64M94.03 42.8 L89.46 44.64 L91.4 42.8M94.03
						 42.8 L91.41 42.8 L92.21 39.89 L94.03 42.8M77.14 45.89 L76.24 43.63M78.74 48.88 L76.24 43.64 L74.19 43.34"
					class="st21"/>
		</g>
		<g id="shape6053-153" v:mID="6053" v:groupContext="shape" transform="translate(352.365,-65.433)">
			<title>工作表.6053</title>
			<path d="M59.1 112.5 L54.55 106.96 L52.54 108.83 L59.1 112.5 ZM59.1 112.5 L52.55 108.83 L51.78 111.75 L59.1 112.5 ZM59.1
						 112.5 L51.78 111.75 L52.72 114 L59.1 112.5 ZM59.1 112.5 L52.71 114 L54.76 114.26 L59.1 112.5 ZM59.1 112.5
						 L54.76 114.25 L56.73 112.41 L59.1 112.5 ZM59.1 112.5 L56.73 112.41 L57.5 109.52 L59.1 112.5 ZM42.85 118.96
						 L40.51 113.66 L38.36 113.4 L42.85 118.96 ZM42.85 118.96 L38.37 113.4 L36.33 115.27 L42.85 118.96 ZM42.85
						 118.96 L36.33 115.27 L35.6 118.18 L42.85 118.96 ZM42.85 118.96 L35.6 118.19 L36.62 120.39 L42.85 118.96
						 ZM42.85 118.96 L36.62 120.39 L38.76 120.62 L42.85 118.96 ZM42.85 118.96 L38.76 120.62 L40.77 118.75 L42.85
						 118.96 ZM42.85 118.96 L40.77 118.75 L41.49 115.88 L42.85 118.96 ZM24.47 122.64 L23.39 120.46 L24.47 122.64
						 ZM25.58 125.82 L23.39 120.46 L21.15 120.23 L25.58 125.82 ZM25.58 125.82 L21.15 120.23 L19.07 122.12 L25.58
						 125.82 ZM25.58 125.82 L19.07 122.12 L18.39 125.02 L25.58 125.82 ZM25.58 125.82 L18.39 125.02 L19.49 127.2
						 L25.58 125.82 ZM25.58 125.82 L19.49 127.19 L21.72 127.38 L25.58 125.82 ZM25.58 125.82 L21.72 127.38 L23.78
						 125.5 L25.58 125.82 ZM25.58 125.82 L23.78 125.5 L24.47 122.64 L25.58 125.82 ZM6.3 129.84 L5.12 127.69 L6.3
						 129.84 ZM7.15 133.14 L5.12 127.7 L2.78 127.51 L7.15 133.14 ZM7.15 133.14 L2.78 127.51 L0.65 129.43 L7.15
						 133.14 ZM7.15 133.14 L0.65 129.43 L0 132.32 L7.15 133.14 ZM7.15 133.14 L0 132.31 L1.21 134.45 L7.15 133.14
						 ZM7.15 133.14 L1.22 134.45 L3.56 134.6 L7.15 133.14 ZM7.15 133.14 L3.56 134.6 L5.65 132.7 L7.15 133.14 ZM7.15
						 133.14 L5.65 132.7 L6.3 129.85 L7.15 133.14 ZM74.39 192.69 L71.8 186.85 L69.88 186.98 L74.39 192.69 ZM74.39
						 192.69 L69.88 186.98 L67.95 188.98 L74.39 192.69 ZM74.39 192.69 L67.95 188.99 L67.17 191.68 L74.39 192.69
						 ZM74.39 192.69 L67.17 191.67 L67.99 193.44 L74.39 192.69 ZM74.39 192.69 L67.99 193.44 L69.92 193.28 L74.39
						 192.69 ZM74.39 192.69 L69.92 193.27 L71.82 191.29 L74.39 192.69 ZM74.39 192.69 L71.82 191.29 L72.6 188.64
						 L74.39 192.69 ZM74.39 177.24 L71.8 171.53 L69.87 171.59 L74.39 177.24 ZM74.39 177.24 L69.87 171.59 L67.93
						 173.55 L74.39 177.24 ZM74.39 177.24 L67.94 173.55 L67.16 176.28 L74.39 177.24 ZM74.39 177.24 L67.16 176.28
						 L67.99 178.13 L74.39 177.24 ZM74.39 177.24 L67.99 178.13 L69.91 178.04 L74.39 177.24 ZM74.39 177.24 L69.92
						 178.05 L71.82 176.1 L74.39 177.24 ZM74.39 177.24 L71.82 176.1 L72.6 173.41 L74.39 177.24 ZM74.39 160.97
						 L71.8 155.39 L69.86 155.35 L74.39 160.97 ZM74.39 160.97 L69.86 155.35 L67.92 157.3 L74.39 160.97 ZM74.39
						 160.97 L67.92 157.3 L67.14 160.06 L74.39 160.97 ZM74.39 160.97 L67.14 160.06 L67.98 162 L74.39 160.97 ZM74.39
						 160.97 L67.97 162 L69.9 162 L74.39 160.97 ZM74.39 160.97 L69.9 162 L71.81 160.08 L74.39 160.97 ZM74.39 160.97
						 L71.81 160.08 L72.59 157.35 L74.39 160.97 ZM72.58 140.41 L71.78 138.34 L72.58 140.41 ZM74.39 143.79 L71.78
						 138.34 L69.83 138.22 L74.39 143.79 ZM74.39 143.79 L69.84 138.22 L67.9 140.13 L74.39 143.79 ZM74.39 143.79
						 L67.9 140.13 L67.11 142.94 L74.39 143.79 ZM74.39 143.79 L67.11 142.94 L67.94 145 L74.39 143.79 ZM74.39 143.79
						 L67.94 144.99 L69.89 145.08 L74.39 143.79 ZM74.39 143.79 L69.89 145.09 L71.8 143.19 L74.39 143.79 ZM74.39
						 143.79 L71.8 143.18 L72.58 140.41 L74.39 143.79 ZM72.58 122.49 L71.77 120.31 L72.58 122.49 ZM74.39 125.64
						 L71.77 120.31 L69.81 120.09 L74.39 125.64 ZM74.39 125.64 L69.81 120.09 L67.86 121.97 L74.39 125.64 ZM74.39
						 125.64 L67.85 121.97 L67.06 124.85 L74.39 125.64 ZM74.39 125.64 L67.06 124.85 L67.9 127.01 L74.39 125.64
						 ZM74.39 125.64 L67.9 127 L69.85 127.19 L74.39 125.64 ZM74.39 125.64 L69.86 127.19 L71.79 125.33 L74.39 125.64
						 ZM74.39 125.64 L71.79 125.33 L72.58 122.49 L74.39 125.64 ZM61.1 200.23 L58.63 194.32 L56.63 194.49 L61.1
						 200.23 ZM61.1 200.23 L56.63 194.49 L54.67 196.51 L61.1 200.23 ZM61.1 200.23 L54.67 196.51 L53.92 199.18
						 L61.1 200.23 ZM61.1 200.23 L53.92 199.18 L54.81 200.92 L56.81 200.72 L61.1 200.23 ZM61.1 200.23 L56.82 200.71
						 L58.75 198.71 L61.1 200.23 ZM61.1 200.23 L58.75 198.71 L59.5 196.07 L61.1 200.23 ZM45.7 203.9 L44.76 202.19
						 L45.7 203.9 ZM47.1 208.18 L44.76 202.19 L42.68 202.4 L47.1 208.18 ZM47.1 208.18 L42.68 202.4 L40.68 204.45
						 L47.1 208.18 ZM47.1 208.18 L40.68 204.44 L39.96 207.09 L47.1 208.18 ZM47.1 208.18 L39.96 207.09 L40.94 208.78
						 L43.02 208.53 L47.1 208.18 ZM47.1 208.18 L43.01 208.54 L44.97 206.52 L47.1 208.18 ZM47.1 208.18 L44.97 206.52
						 L45.7 203.9 L47.1 208.18 ZM31.13 212.14 L30.11 210.46 L31.13 212.14 ZM32.32 216.56 L30.11 210.47 L27.94
						 210.73 L32.32 216.56 ZM32.32 216.56 L27.94 210.73 L25.9 212.8 L32.32 216.56 ZM32.32 216.56 L25.9 212.79
						 L25.21 215.45 L32.32 216.56 ZM32.32 216.56 L25.21 215.45 L26.27 217.1 L32.32 216.56 ZM32.32 216.56 L26.27
						 217.1 L28.44 216.81 L32.32 216.56 ZM32.32 216.56 L28.43 216.81 L30.43 214.76 L32.32 216.56 ZM32.32 216.56
						 L30.44 214.76 L31.13 212.14 L32.32 216.56 ZM15.73 220.85 L14.62 219.22 L15.73 220.85 ZM16.71 225.42 L14.62
						 219.21 L12.36 219.53 L16.71 225.42 ZM16.71 225.42 L12.36 219.53 L10.28 221.62 L16.71 225.42 ZM16.71 225.42
						 L10.27 221.61 L9.62 224.26 L16.71 225.42 ZM16.71 225.42 L9.62 224.26 L10.77 225.88 L16.71 225.42 ZM16.71
						 225.42 L10.76 225.88 L13.02 225.54 L16.71 225.42 L13.02 225.54 L15.07 223.46 L16.71 225.42 ZM16.71 225.42
						 L15.07 223.46 L15.73 220.85 L16.71 225.42 ZM155.68 233.6 L155.05 230.96 L155.68 233.6 ZM148.58 234.79 L155.05
						 230.96 L152.92 228.82 L148.58 234.79 ZM148.58 234.79 L152.92 228.81 L150.55 228.46 L148.58 234.79 ZM148.58
						 234.79 L150.54 228.46 L149.33 230.06 L148.58 234.79 ZM148.58 234.79 L149.34 230.06 L149.97 232.67 L148.58
						 234.79 ZM148.58 234.79 L149.97 232.67 L152.06 234.78 L148.58 234.79 ZM148.58 234.79 L152.06 234.78 L154.43
						 235.18 L148.58 234.79 ZM148.58 234.79 L154.43 235.18 L155.68 233.59 L148.58 234.79 ZM139.15 224.26 L138.5
						 221.61 L139.15 224.26 ZM132.05 225.42 L138.49 221.61 L136.41 219.52 L132.05 225.42 ZM132.05 225.42 L136.41
						 219.53 L134.14 219.21 L132.05 225.42 ZM132.05 225.42 L134.14 219.21 L133.03 220.84 L132.05 225.42 ZM132.05
						 225.42 L133.03 220.84 L133.69 223.45 L132.05 225.42 ZM132.05 225.42 L133.69 223.46 L135.74 225.54 L132.05
						 225.42 ZM132.05 225.42 L135.75 225.54 L132.05 225.42 ZM132.05 225.42 L138.01 225.88 L139.15 224.26 L132.05
						 225.42 ZM123.55 215.45 L122.86 212.79 L123.55 215.45 ZM116.43 216.56 L122.85 212.79 L120.82 210.72 L116.43
						 216.56 ZM116.43 216.56 L120.82 210.73 L118.65 210.47 L116.43 216.56 ZM116.43 216.56 L118.66 210.47 L117.64
						 212.15 L116.43 216.56 ZM116.43 216.56 L117.63 212.14 L118.32 214.76 L116.43 216.56 ZM116.43 216.56 L118.33
						 214.76 L120.33 216.81 L122.5 217.1 L116.43 216.56 ZM116.43 216.56 L122.5 217.1 L123.55 215.46 L116.43 216.56
						 ZM108.81 207.09 L108.09 204.44 L108.81 207.09 ZM101.67 208.18 L108.09 204.44 L106.09 202.39 L101.67 208.18
						 ZM101.67 208.18 L106.09 202.4 L104.01 202.19 L101.67 208.18 ZM101.67 208.18 L104.01 202.19 L103.07 203.9
						 L101.67 208.18 ZM101.67 208.18 L103.07 203.9 L103.79 206.52 L101.67 208.18 ZM101.67 208.18 L103.79 206.52
						 L105.76 208.54 L101.67 208.18 ZM101.67 208.18 L107.84 208.79 L108.81 207.1 L101.67 208.18 ZM94.85 199.18
						 L94.09 196.51 L94.85 199.18 ZM87.66 200.23 L94.08 196.51 L92.13 194.49 L87.66 200.23 ZM87.66 200.23 L92.13
						 194.49 L90.13 194.32 L87.66 200.23 ZM87.66 200.23 L90.13 194.32 L89.26 196.07 L87.66 200.23 ZM87.66 200.23
						 L89.26 196.07 L90.01 198.71 L87.66 200.23 ZM87.66 200.23 L90.01 198.71 L91.94 200.71 L87.66 200.23 ZM87.66
						 200.23 L91.94 200.71 L87.66 200.23 ZM87.66 200.23 L93.94 200.91 L94.84 199.17 L87.66 200.23 ZM81.6 191.67
						 L80.82 188.98 L81.6 191.67 ZM74.39 192.69 L80.82 188.99 L78.9 186.99 L74.39 192.69 ZM74.39 192.69 L78.9
						 186.98 L76.97 186.85 L76.17 188.64 L74.39 192.69 ZM74.39 192.69 L76.16 188.64 L76.94 191.29 L74.39 192.69
						 ZM74.39 192.69 L76.94 191.29 L78.84 193.27 L74.39 192.69 ZM74.39 192.69 L78.84 193.27 L80.77 193.44 L74.39
						 192.69 ZM74.39 192.69 L80.78 193.44 L81.6 191.68 L74.39 192.69 ZM81.61 176.28 L80.83 173.56 L81.61 176.28
						 ZM74.39 177.24 L80.83 173.55 L78.9 171.59 L74.39 177.24 ZM74.39 177.24 L78.9 171.59 L76.96 171.53 L74.39
						 177.24 ZM74.39 177.24 L76.97 171.53 L76.17 173.41 L74.39 177.24 ZM74.39 177.24 L76.17 173.41 L76.95 176.1
						 L74.39 177.24 ZM74.39 177.24 L76.95 176.1 L78.85 178.05 L74.39 177.24 ZM74.39 177.24 L78.85 178.05 L74.39
						 177.24 ZM74.39 177.24 L80.78 178.13 L81.61 176.28 L74.39 177.24 ZM81.62 160.06 L80.84 157.3 L74.38 160.97
						 L80.84 157.3 L78.91 155.35 L81.62 160.06 ZM74.39 160.97 L78.91 155.35 L76.98 155.39 L74.39 160.97 ZM74.39
						 160.97 L76.98 155.39 L76.18 157.35 L74.39 160.97 ZM74.39 160.97 L76.17 157.35 L76.95 160.08 L74.39 160.97
						 ZM74.39 160.97 L76.95 160.08 L78.86 162 L74.39 160.97 ZM74.39 160.97 L78.86 162 L80.8 162 L74.39 160.97
						 ZM74.39 160.97 L80.8 162 L81.63 160.06 L74.39 160.97 ZM81.66 142.94 L80.87 140.13 L81.66 142.94 ZM74.39
						 143.79 L80.88 140.13 L78.93 138.22 L74.39 143.79 ZM74.39 143.79 L78.93 138.22 L76.99 138.34 L74.39 143.79
						 ZM74.39 143.79 L76.99 138.34 L76.18 140.41 L74.39 143.79 ZM74.39 143.79 L76.18 140.41 L76.97 143.18 L74.39
						 143.79 ZM74.39 143.79 L76.97 143.18 L78.89 145.08 L74.39 143.79 ZM74.39 143.79 L78.88 145.09 L80.82 145
						 L74.39 143.79 ZM74.39 143.79 L80.82 144.99 L81.66 142.93 L74.39 143.79 ZM81.71 124.85 L80.92 121.97 L81.71
						 124.85 ZM74.39 125.64 L80.91 121.97 L78.96 120.09 L74.39 125.64 ZM74.39 125.64 L78.96 120.09 L77 120.31
						 L74.39 125.64 ZM74.39 125.64 L77 120.31 L76.19 122.49 L74.39 125.64 ZM74.39 125.64 L76.19 122.48 L76.98
						 125.32 L78.91 127.18 L74.39 125.64 ZM74.39 125.64 L78.91 127.19 L80.87 127 L74.39 125.64 ZM74.39 125.64
						 L80.87 127 L81.71 124.84 L74.39 125.64 ZM81.77 105.7 L80.98 102.76 L81.77 105.7 ZM74.39 106.43 L80.98 102.75
						 L79 100.89 L74.39 106.43 ZM74.39 106.43 L79 100.89 L77.03 101.23 L74.39 106.43 ZM74.39 106.43 L77.02 101.23
						 L76.21 103.52 L74.39 106.43 ZM74.39 106.43 L76.21 103.52 L77 106.43 L74.39 106.43 ZM74.39 106.43 L77 106.43
						 L78.95 108.27 L74.39 106.43 ZM74.39 106.43 L78.95 108.27 L80.92 107.99 L74.39 106.43 ZM74.39 106.43 L80.92
						 107.98 L81.77 105.69 L74.39 106.43 ZM96.99 111.75 L96.23 108.83 L96.99 111.75 ZM89.67 112.5 L96.23 108.83
						 L94.22 106.96 L89.67 112.5 ZM89.67 112.5 L94.23 106.96 L92.17 107.26 L89.67 112.5 ZM89.67 112.5 L92.17 107.27
						 L91.28 109.53 L89.67 112.5 ZM89.67 112.5 L91.27 109.52 L92.03 112.41 L89.67 112.5 ZM89.67 112.5 L92.03 112.41
						 L94 114.25 L89.67 112.5 ZM89.67 112.5 L94.01 114.25 L96.07 113.99 L89.67 112.5 ZM89.67 112.5 L96.07 114
						 L97 111.75 L89.67 112.5 ZM113.16 118.18 L112.44 115.27 L113.16 118.18 ZM105.9 118.96 L112.43 115.27 L110.38
						 113.4 L105.9 118.96 ZM105.9 118.96 L110.39 113.4 L108.25 113.66 L107.26 115.88 L105.9 118.96 ZM105.9 118.96
						 L107.26 115.88 L107.99 118.75 L105.9 118.96 ZM105.9 118.96 L107.99 118.75 L110 120.62 L105.9 118.96 ZM105.9
						 118.96 L110.01 120.62 L112.14 120.39 L105.9 118.96 ZM105.9 118.96 L112.14 120.39 L113.15 118.19 L105.9 118.96
						 ZM130.38 125.02 L129.69 122.12 L130.38 125.02 ZM123.19 125.82 L129.69 122.12 L127.61 120.23 L123.19 125.82
						 ZM123.19 125.82 L127.61 120.23 L125.37 120.46 L123.19 125.82 ZM123.19 125.82 L125.37 120.46 L124.3 122.64
						 L123.19 125.82 ZM123.19 125.82 L124.3 122.64 L124.99 125.5 L123.19 125.82 ZM123.19 125.82 L124.99 125.5
						 L127.04 127.38 L123.19 125.82 ZM123.19 125.82 L127.04 127.38 L129.27 127.19 L123.19 125.82 ZM123.19 125.82
						 L129.27 127.19 L130.38 125.01 L123.19 125.82 Z" class="st20"/>
			<path d="M59.1 112.5 L54.55 106.96 L52.54 108.83M59.1 112.5 L52.55 108.83 L51.78 111.75M59.1 112.5 L51.78 111.75 L52.72
						 114M59.1 112.5 L52.71 114 L54.76 114.26M59.1 112.5 L54.76 114.25 L56.73 112.41M59.1 112.5 L56.73 112.41
						 L57.5 109.52 L59.1 112.5M42.85 118.96 L40.51 113.66 L38.36 113.4M42.85 118.96 L38.37 113.4 L36.33 115.27M42.85
						 118.96 L36.33 115.27 L35.6 118.18M42.85 118.96 L35.6 118.19 L36.62 120.39M42.85 118.96 L36.62 120.39 L38.76
						 120.62M42.85 118.96 L38.76 120.62 L40.77 118.75M42.85 118.96 L40.77 118.75 L41.49 115.88 L42.85 118.96M24.47
						 122.64 L23.39 120.46M25.58 125.82 L23.39 120.46 L21.15 120.23M25.58 125.82 L21.15 120.23 L19.07 122.12M25.58
						 125.82 L19.07 122.12 L18.39 125.02M25.58 125.82 L18.39 125.02 L19.49 127.2M25.58 125.82 L19.49 127.19 L21.72
						 127.38M25.58 125.82 L21.72 127.38 L23.78 125.5M25.58 125.82 L23.78 125.5 L24.47 122.64 L25.58 125.82M6.3
						 129.84 L5.12 127.69M7.15 133.14 L5.12 127.7 L2.78 127.51M7.15 133.14 L2.78 127.51 L0.65 129.43M7.15 133.14
						 L0.65 129.43 L0 132.32M7.15 133.14 L0 132.31 L1.21 134.45M7.15 133.14 L1.22 134.45 L3.56 134.6M7.15 133.14
						 L3.56 134.6 L5.65 132.7M7.15 133.14 L5.65 132.7 L6.3 129.85 L7.15 133.14M74.39 192.69 L71.8 186.85 L69.88
						 186.98M74.39 192.69 L69.88 186.98 L67.95 188.98M74.39 192.69 L67.95 188.99 L67.17 191.68M74.39 192.69 L67.17
						 191.67 L67.99 193.44M74.39 192.69 L67.99 193.44 L69.92 193.28M74.39 192.69 L69.92 193.27 L71.82 191.29M74.39
						 192.69 L71.82 191.29 L72.6 188.64 L74.39 192.69M74.39 177.24 L71.8 171.53 L69.87 171.59M74.39 177.24 L69.87
						 171.59 L67.93 173.55M74.39 177.24 L67.94 173.55 L67.16 176.28M74.39 177.24 L67.16 176.28 L67.99 178.13M74.39
						 177.24 L67.99 178.13 L69.91 178.04M74.39 177.24 L69.92 178.05 L71.82 176.1M74.39 177.24 L71.82 176.1 L72.6
						 173.41 L74.39 177.24M74.39 160.97 L71.8 155.39 L69.86 155.35M74.39 160.97 L69.86 155.35 L67.92 157.3M74.39
						 160.97 L67.92 157.3 L67.14 160.06M74.39 160.97 L67.14 160.06 L67.98 162M74.39 160.97 L67.97 162 L69.9 162M74.39
						 160.97 L69.9 162 L71.81 160.08M74.39 160.97 L71.81 160.08 L72.59 157.35 L74.39 160.97M72.58 140.41 L71.78
						 138.34M74.39 143.79 L71.78 138.34 L69.83 138.22M74.39 143.79 L69.84 138.22 L67.9 140.13M74.39 143.79 L67.9
						 140.13 L67.11 142.94M74.39 143.79 L67.11 142.94 L67.94 145M74.39 143.79 L67.94 144.99 L69.89 145.08M74.39
						 143.79 L69.89 145.09 L71.8 143.19M74.39 143.79 L71.8 143.18 L72.58 140.41 L74.39 143.79M72.58 122.49 L71.77
						 120.31M74.39 125.64 L71.77 120.31 L69.81 120.09M74.39 125.64 L69.81 120.09 L67.86 121.97M74.39 125.64 L67.85
						 121.97 L67.06 124.85M74.39 125.64 L67.06 124.85 L67.9 127.01M74.39 125.64 L67.9 127 L69.85 127.19M74.39
						 125.64 L69.86 127.19 L71.79 125.33M74.39 125.64 L71.79 125.33 L72.58 122.49 L74.39 125.64M61.1 200.23 L58.63
						 194.32 L56.63 194.49M61.1 200.23 L56.63 194.49 L54.67 196.51M61.1 200.23 L54.67 196.51 L53.92 199.18M61.1
						 200.23 L53.92 199.18 L54.81 200.92 L56.81 200.72M61.1 200.23 L56.82 200.71 L58.75 198.71M61.1 200.23 L58.75
						 198.71 L59.5 196.07 L61.1 200.23M45.7 203.9 L44.76 202.19M47.1 208.18 L44.76 202.19 L42.68 202.4M47.1 208.18
						 L42.68 202.4 L40.68 204.45M47.1 208.18 L40.68 204.44 L39.96 207.09M47.1 208.18 L39.96 207.09 L40.94 208.78
						 L43.02 208.53M47.1 208.18 L43.01 208.54 L44.97 206.52M47.1 208.18 L44.97 206.52 L45.7 203.9 L47.1 208.18M31.13
						 212.14 L30.11 210.46M32.32 216.56 L30.11 210.47 L27.94 210.73M32.32 216.56 L27.94 210.73 L25.9 212.8M32.32
						 216.56 L25.9 212.79 L25.21 215.45M32.32 216.56 L25.21 215.45 L26.27 217.1M32.32 216.56 L26.27 217.1 L28.44
						 216.81M32.32 216.56 L28.43 216.81 L30.43 214.76M32.32 216.56 L30.44 214.76 L31.13 212.14 L32.32 216.56M15.73
						 220.85 L14.62 219.22M16.71 225.42 L14.62 219.21 L12.36 219.53M16.71 225.42 L12.36 219.53 L10.28 221.62M16.71
						 225.42 L10.27 221.61 L9.62 224.26M16.71 225.42 L9.62 224.26 L10.77 225.88M16.71 225.42 L10.76 225.88 L13.02
						 225.54 L16.71 225.42 L13.02 225.54 L15.07 223.46M16.71 225.42 L15.07 223.46 L15.73 220.85 L16.71 225.42M155.68
						 233.6 L155.05 230.96M148.58 234.79 L155.05 230.96 L152.92 228.82M148.58 234.79 L152.92 228.81 L150.55 228.46M148.58
						 234.79 L150.54 228.46 L149.33 230.06M148.58 234.79 L149.34 230.06 L149.97 232.67M148.58 234.79 L149.97 232.67
						 L152.06 234.78M148.58 234.79 L152.06 234.78 L154.43 235.18M148.58 234.79 L154.43 235.18 L155.68 233.59 L148.58
						 234.79M139.15 224.26 L138.5 221.61M132.05 225.42 L138.49 221.61 L136.41 219.52M132.05 225.42 L136.41 219.53
						 L134.14 219.21M132.05 225.42 L134.14 219.21 L133.03 220.84M132.05 225.42 L133.03 220.84 L133.69 223.45M132.05
						 225.42 L133.69 223.46 L135.74 225.54M132.05 225.42 L135.75 225.54M132.05 225.42 L138.01 225.88 L139.15 224.26
						 L132.05 225.42M123.55 215.45 L122.86 212.79M116.43 216.56 L122.85 212.79 L120.82 210.72M116.43 216.56 L120.82
						 210.73 L118.65 210.47M116.43 216.56 L118.66 210.47 L117.64 212.15M116.43 216.56 L117.63 212.14 L118.32 214.76M116.43
						 216.56 L118.33 214.76 L120.33 216.81 L122.5 217.1M116.43 216.56 L122.5 217.1 L123.55 215.46 L116.43 216.56M108.81
						 207.09 L108.09 204.44M101.67 208.18 L108.09 204.44 L106.09 202.39M101.67 208.18 L106.09 202.4 L104.01 202.19M101.67
						 208.18 L104.01 202.19 L103.07 203.9M101.67 208.18 L103.07 203.9 L103.79 206.52M101.67 208.18 L103.79 206.52
						 L105.76 208.54M101.67 208.18 L107.84 208.79 L108.81 207.1 L101.67 208.18M94.85 199.18 L94.09 196.51M87.66
						 200.23 L94.08 196.51 L92.13 194.49M87.66 200.23 L92.13 194.49 L90.13 194.32M87.66 200.23 L90.13 194.32 L89.26
						 196.07M87.66 200.23 L89.26 196.07 L90.01 198.71M87.66 200.23 L90.01 198.71 L91.94 200.71M87.66 200.23 L91.94
						 200.71M87.66 200.23 L93.94 200.91 L94.84 199.17 L87.66 200.23M81.6 191.67 L80.82 188.98M74.39 192.69 L80.82
						 188.99 L78.9 186.99M74.39 192.69 L78.9 186.98 L76.97 186.85 L76.17 188.64M74.39 192.69 L76.16 188.64 L76.94
						 191.29M74.39 192.69 L76.94 191.29 L78.84 193.27M74.39 192.69 L78.84 193.27 L80.77 193.44M74.39 192.69 L80.78
						 193.44 L81.6 191.68 L74.39 192.69M81.61 176.28 L80.83 173.56M74.39 177.24 L80.83 173.55 L78.9 171.59M74.39
						 177.24 L78.9 171.59 L76.96 171.53M74.39 177.24 L76.97 171.53 L76.17 173.41M74.39 177.24 L76.17 173.41 L76.95
						 176.1M74.39 177.24 L76.95 176.1 L78.85 178.05M74.39 177.24 L78.85 178.05M74.39 177.24 L80.78 178.13 L81.61
						 176.28 L74.39 177.24M81.62 160.06 L80.84 157.3 L74.38 160.97 L80.84 157.3 L78.91 155.35M74.39 160.97 L78.91
						 155.35 L76.98 155.39M74.39 160.97 L76.98 155.39 L76.18 157.35M74.39 160.97 L76.17 157.35 L76.95 160.08M74.39
						 160.97 L76.95 160.08 L78.86 162M74.39 160.97 L78.86 162 L80.8 162M74.39 160.97 L80.8 162 L81.63 160.06 L74.39
						 160.97M81.66 142.94 L80.87 140.13M74.39 143.79 L80.88 140.13 L78.93 138.22M74.39 143.79 L78.93 138.22 L76.99
						 138.34M74.39 143.79 L76.99 138.34 L76.18 140.41M74.39 143.79 L76.18 140.41 L76.97 143.18M74.39 143.79 L76.97
						 143.18 L78.89 145.08M74.39 143.79 L78.88 145.09 L80.82 145M74.39 143.79 L80.82 144.99 L81.66 142.93 L74.39
						 143.79M81.71 124.85 L80.92 121.97M74.39 125.64 L80.91 121.97 L78.96 120.09M74.39 125.64 L78.96 120.09 L77
						 120.31M74.39 125.64 L77 120.31 L76.19 122.49M74.39 125.64 L76.19 122.48 L76.98 125.32 L78.91 127.18M74.39
						 125.64 L78.91 127.19 L80.87 127M74.39 125.64 L80.87 127 L81.71 124.84 L74.39 125.64M81.77 105.7 L80.98 102.76M74.39
						 106.43 L80.98 102.75 L79 100.89M74.39 106.43 L79 100.89 L77.03 101.23M74.39 106.43 L77.02 101.23 L76.21
						 103.52M74.39 106.43 L76.21 103.52 L77 106.43M74.39 106.43 L77 106.43 L78.95 108.27M74.39 106.43 L78.95 108.27
						 L80.92 107.99M74.39 106.43 L80.92 107.98 L81.77 105.69 L74.39 106.43M96.99 111.75 L96.23 108.83M89.67 112.5
						 L96.23 108.83 L94.22 106.96M89.67 112.5 L94.23 106.96 L92.17 107.26M89.67 112.5 L92.17 107.27 L91.28 109.53M89.67
						 112.5 L91.27 109.52 L92.03 112.41M89.67 112.5 L92.03 112.41 L94 114.25M89.67 112.5 L94.01 114.25 L96.07
						 113.99M89.67 112.5 L96.07 114 L97 111.75 L89.67 112.5M113.16 118.18 L112.44 115.27M105.9 118.96 L112.43
						 115.27 L110.38 113.4M105.9 118.96 L110.39 113.4 L108.25 113.66 L107.26 115.88M105.9 118.96 L107.26 115.88
						 L107.99 118.75M105.9 118.96 L107.99 118.75 L110 120.62M105.9 118.96 L110.01 120.62 L112.14 120.39M105.9
						 118.96 L112.14 120.39 L113.15 118.19 L105.9 118.96M130.38 125.02 L129.69 122.12M123.19 125.82 L129.69 122.12
						 L127.61 120.23M123.19 125.82 L127.61 120.23 L125.37 120.46M123.19 125.82 L125.37 120.46 L124.3 122.64M123.19
						 125.82 L124.3 122.64 L124.99 125.5M123.19 125.82 L124.99 125.5 L127.04 127.38M123.19 125.82 L127.04 127.38
						 L129.27 127.19M123.19 125.82 L129.27 127.19 L130.38 125.01 L123.19 125.82" class="st21"/>
		</g>
		<g id="shape6054-156" v:mID="6054" v:groupContext="shape" transform="translate(332.489,-81.7861)">
			<title>工作表.6054</title>
			<path d="M168.63 148.66 L167.99 145.78 L168.63 148.66 ZM161.49 149.5 L168 145.78 L165.86 143.87 L161.49 149.5 ZM161.49
						 149.5 L165.86 143.87 L163.52 144.05 L161.49 149.5 ZM161.49 149.5 L163.52 144.05 L162.34 146.21 L161.49 149.5
						 ZM161.49 149.5 L162.34 146.21 L162.99 149.06 L161.49 149.5 ZM161.49 149.5 L162.99 149.06 L165.08 150.96
						 L161.49 149.5 ZM161.49 149.5 L165.08 150.96 L167.42 150.81 L161.49 149.5 ZM161.49 149.5 L167.42 150.81 L168.63
						 148.66 L161.49 149.5 ZM188.29 156.45 L187.68 153.57 L188.29 156.45 ZM181.17 157.31 L187.68 153.57 L185.5
						 151.62 L181.17 157.31 ZM181.17 157.31 L185.5 151.62 L183.03 151.76 L181.17 157.31 ZM181.17 157.31 L183.03
						 151.76 L181.73 153.89 L182.34 156.74 L181.17 157.31 ZM181.17 157.31 L182.35 156.74 L184.5 158.67 L181.17
						 157.31 ZM181.17 157.31 L184.5 158.67 L186.96 158.56 L181.17 157.31 ZM181.17 157.31 L186.96 158.56 L188.28
						 156.45 L181.17 157.31 ZM185.37 177.63 L184.76 174.81 L185.37 177.63 ZM178.3 178.57 L184.77 174.81 L182.6
						 172.84 L178.3 178.57 ZM178.3 178.57 L182.61 172.84 L180.18 172.87 L178.3 178.57 ZM178.3 178.57 L180.17 172.87
						 L178.91 174.87 L178.3 178.57 ZM178.3 178.57 L178.91 174.87 L179.52 177.65 L178.3 178.57 ZM178.3 178.57 L179.52
						 177.65 L181.65 179.61 L178.3 178.57 ZM178.3 178.57 L181.65 179.61 L184.07 179.62 L178.3 178.57 ZM178.3 178.57
						 L184.07 179.62 L185.38 177.64 L178.3 178.57 ZM182.66 197.45 L182.05 194.69 L182.66 197.45 ZM175.6 198.46
						 L182.05 194.69 L179.9 192.67 L175.6 198.46 ZM175.6 198.46 L179.9 192.67 L177.5 192.59 L175.6 198.46 ZM175.6
						 198.46 L177.49 192.59 L176.24 194.48 L175.6 198.46 ZM175.6 198.46 L176.24 194.48 L176.86 197.2 L175.6 198.46
						 ZM175.6 198.46 L176.86 197.2 L178.98 199.2 L175.6 198.46 ZM175.6 198.46 L178.98 199.21 L181.38 199.32 L175.6
						 198.46 ZM175.6 198.46 L181.38 199.32 L182.66 197.45 L175.6 198.46 ZM180.13 216.05 L179.52 213.33 L180.13
						 216.05 ZM173.07 217.11 L179.52 213.33 L177.37 211.27 L173.07 217.11 L177.37 211.27 L174.98 211.09 L173.07
						 217.11 ZM173.07 217.11 L174.99 211.1 L173.75 212.87 L173.07 217.11 ZM173.07 217.11 L173.75 212.87 L174.37
						 215.55 L173.07 217.11 ZM173.07 217.11 L174.37 215.55 L176.48 217.59 L178.86 217.8 L173.07 217.11 ZM173.07
						 217.11 L178.86 217.8 L180.13 216.05 L173.07 217.11 ZM177.77 233.51 L177.15 230.84 L177.77 233.51 ZM170.69
						 234.64 L177.15 230.83 L175.01 228.73 L170.69 234.64 ZM170.69 234.64 L175.01 228.74 L172.63 228.47 L170.69
						 234.64 ZM170.69 234.64 L172.63 228.46 L171.41 230.15 L170.69 234.64 ZM170.69 234.64 L171.41 230.15 L172.04
						 232.79 L170.69 234.64 ZM170.69 234.64 L172.04 232.79 L174.14 234.87 L176.51 235.18 L170.69 234.64 ZM170.69
						 234.64 L176.51 235.18 L177.77 233.51 L170.69 234.64 ZM6.52 134.65 L8.23 133.43 L6.52 134.65 ZM3.25 127.02
						 L8.23 133.43 L7.52 132.22 L3.25 127.02 ZM3.25 127.02 L7.52 132.22 L4.84 131.73 L3.25 127.02 ZM3.25 127.02
						 L4.84 131.72 L1.74 132.21 L3.25 127.02 ZM3.25 127.02 L1.74 132.22 L0 133.43 L3.25 127.02 ZM3.25 127.02 L0
						 133.43 L0.66 134.65 L3.25 127.02 ZM3.25 127.02 L0.67 134.65 L3.38 135.16 L3.25 127.02 ZM3.25 127.02 L3.38
						 135.16 L6.52 134.65 L3.25 127.02 ZM22.08 143.6 L23.69 142.33 L22.08 143.6 ZM18.89 136.07 L23.68 142.33 L22.89
						 141.09 L18.89 136.07 ZM18.89 136.07 L22.89 141.09 L20.2 140.58 L18.89 136.07 ZM18.89 136.07 L20.2 140.58
						 L17.16 141.09 L15.53 142.33 L18.89 136.07 ZM18.89 136.07 L15.53 142.33 L16.28 143.6 L18.89 136.07 ZM18.89
						 136.07 L16.28 143.6 L19 144.13 L18.89 136.07 ZM18.89 136.07 L19 144.13 L22.07 143.6 L18.89 136.07 ZM38.77
						 153.15 L40.26 151.85 L38.77 153.15 ZM35.68 145.73 L40.27 151.85 L39.4 150.55 L35.68 145.73 ZM35.68 145.73
						 L39.39 150.55 L36.69 150.03 L35.68 145.73 ZM35.68 145.73 L36.69 150.03 L33.71 150.55 L35.68 145.73 ZM35.68
						 145.73 L33.72 150.55 L32.2 151.85 L35.68 145.73 ZM35.68 145.73 L32.2 151.85 L33.04 153.15 L35.68 145.73
						 ZM35.68 145.73 L33.03 153.15 L35.76 153.7 L35.68 145.73 ZM35.68 145.73 L35.76 153.7 L38.78 153.15 L35.68
						 145.73 ZM56.73 163.39 L58.11 162.04 L53.73 156.06 L56.73 163.39 ZM58.11 162.04 L57.15 160.7 L58.11 162.04
						 ZM53.73 156.06 L57.15 160.7 L54.43 160.16 L53.73 156.06 ZM53.73 156.06 L54.42 160.15 L51.51 160.69 L53.73
						 156.06 ZM53.73 156.06 L51.51 160.7 L50.09 162.04 L53.73 156.06 ZM53.73 156.06 L50.1 162.04 L51.03 163.39
						 L53.73 156.06 ZM53.73 156.06 L51.02 163.39 L53.78 163.96 L53.73 156.06 ZM53.73 156.06 L53.78 163.96 L56.73
						 163.39 L53.73 156.06 ZM76.11 174.38 L77.38 172.97 L76.11 174.38 ZM73.19 167.12 L77.38 172.98 L76.31 171.58
						 L73.19 167.12 ZM73.19 167.12 L76.31 171.58 L73.55 171 L70.7 171.58 L73.19 167.12 ZM73.19 167.12 L70.7 171.58
						 L69.39 172.98 L73.19 167.12 ZM73.19 167.12 L69.39 172.98 L70.43 174.38 L73.19 167.12 ZM73.19 167.12 L70.43
						 174.38 L73.22 174.98 L73.19 167.12 ZM73.19 167.12 L73.22 174.97 L76.11 174.38 L73.19 167.12 ZM97.09 186.21
						 L98.24 184.74 L97.09 186.21 ZM94.26 179.01 L98.24 184.74 L97.06 183.29 L94.26 179.01 ZM94.26 179.01 L97.06
						 183.28 L94.26 182.68 L91.46 183.28 L94.26 179.01 ZM94.26 179.01 L91.46 183.28 L90.27 184.73 L94.26 179.01
						 ZM94.26 179.01 L90.27 184.74 L91.42 186.21 L94.26 179.01 ZM94.26 179.01 L91.43 186.21 L94.26 186.83 L97.09
						 186.21 L94.26 179.01 ZM187.85 134.65 L188.52 133.43 L187.85 134.65 ZM185.27 127.02 L188.52 133.43 L186.78
						 132.22 L185.27 127.02 ZM185.27 127.02 L186.78 132.22 L183.68 131.73 L185.27 127.02 ZM185.27 127.02 L183.68
						 131.72 L181 132.21 L185.27 127.02 ZM185.27 127.02 L181 132.22 L185.27 127.02 ZM185.27 127.02 L180.29 133.43
						 L182 134.65 L185.27 127.02 ZM185.27 127.02 L182 134.65 L185.14 135.16 L185.27 127.02 ZM185.27 127.02 L185.14
						 135.16 L187.84 134.65 L185.27 127.02 ZM172.24 143.6 L172.99 142.33 L172.24 143.6 ZM169.62 136.07 L172.98
						 142.33 L171.35 141.09 L168.31 140.58 L169.62 136.07 ZM169.62 136.07 L168.31 140.58 L165.62 141.09 L169.62
						 136.07 ZM169.62 136.07 L165.62 141.09 L164.83 142.33 L169.62 136.07 ZM169.62 136.07 L164.83 142.33 L166.44
						 143.6 L169.62 136.07 ZM169.62 136.07 L166.44 143.6 L169.51 144.13 L169.62 136.07 ZM169.62 136.07 L169.51
						 144.13 L172.23 143.6 L169.62 136.07 ZM155.49 153.15 L156.33 151.85 L155.49 153.15 ZM152.84 145.73 L156.33
						 151.85 L154.81 150.55 L152.84 145.73 ZM152.84 145.73 L154.81 150.55 L151.83 150.03 L152.84 145.73 ZM152.84
						 145.73 L151.84 150.03 L149.13 150.55 L152.84 145.73 ZM152.84 145.73 L149.13 150.55 L148.26 151.85 L152.84
						 145.73 ZM152.84 145.73 L148.25 151.85 L149.75 153.15 L152.84 145.73 ZM152.84 145.73 L149.75 153.15 L152.76
						 153.7 L152.84 145.73 ZM152.84 145.73 L152.76 153.7 L155.5 153.15 L152.84 145.73 ZM137.49 163.39 L138.43
						 162.04 L137.49 163.39 ZM134.79 156.06 L138.42 162.04 L137 160.7 L134.79 156.06 ZM134.79 156.06 L137.01 160.7
						 L134.1 160.16 L134.79 156.06 ZM134.79 156.06 L134.1 160.15 L131.37 160.69 L134.79 156.06 ZM134.79 156.06
						 L130.39 162.04 L131.78 163.39 L134.79 156.06 ZM134.79 156.06 L131.78 163.39 L134.73 163.96 L134.79 156.06
						 ZM134.79 156.06 L134.73 163.96 L137.49 163.39 L134.79 156.06 ZM118.08 174.38 L119.12 172.97 L118.08 174.38
						 ZM115.32 167.12 L119.12 172.98 L117.82 171.58 L115.32 167.12 ZM115.32 167.12 L117.82 171.58 L114.96 171
						 L112.2 171.58 L115.32 167.12 ZM115.32 167.12 L112.2 171.58 L115.32 167.12 ZM115.32 167.12 L111.14 172.98
						 L112.41 174.38 L115.32 167.12 ZM115.32 167.12 L112.4 174.38 L115.29 174.98 L115.32 167.12 ZM115.32 167.12
						 L115.3 174.97 L118.08 174.38 L115.32 167.12 ZM97.16 98.79 L98.34 97.77 L97.16 98.79 ZM94.26 91.08 L98.34
						 97.77 L97.13 96.78 L94.26 91.08 ZM94.26 91.08 L97.13 96.78 L94.26 96.37 L91.39 96.78 L94.26 91.08 ZM94.26
						 91.08 L91.39 96.78 L90.18 97.77 L94.26 91.08 ZM94.26 91.08 L90.18 97.77 L91.36 98.79 L94.26 91.08 ZM94.26
						 91.08 L91.36 98.79 L94.26 99.21 L97.17 98.79 L94.26 91.08 ZM113.1 105.18 L114.18 104.14 L113.1 105.18 ZM110.26
						 97.51 L114.18 104.14 L112.88 103.11 L110.26 97.51 ZM110.26 97.51 L112.88 103.11 L109.98 102.68 L107.16 103.11
						 L110.26 97.51 ZM110.26 97.51 L107.16 103.11 L106.03 104.14 L110.26 97.51 ZM110.26 97.51 L106.03 104.14 L107.31
						 105.18 L110.26 97.51 ZM110.26 97.51 L107.31 105.18 L110.24 105.62 L110.26 97.51 L110.24 105.62 L113.1 105.18
						 L110.26 97.51 ZM130.03 111.93 L131.01 110.85 L130.03 111.93 ZM127.26 104.3 L131.01 110.85 L129.61 109.79
						 L127.26 104.3 ZM127.26 104.3 L129.62 109.79 L126.68 109.35 L127.26 104.3 ZM127.26 104.3 L126.68 109.35 L123.89
						 109.79 L127.26 104.3 ZM127.26 104.3 L123.89 109.79 L122.87 110.85 L127.26 104.3 ZM127.26 104.3 L122.87 110.85
						 L124.23 111.94 L127.26 104.3 ZM127.26 104.3 L124.23 111.94 L127.2 112.39 L127.26 104.3 ZM127.26 104.3 L127.21
						 112.39 L130.03 111.94 L127.26 104.3 ZM148.05 119.07 L148.93 117.95 L148.05 119.07 ZM145.34 111.45 L148.93
						 117.95 L147.43 116.83 L145.34 111.45 ZM145.34 111.45 L147.44 116.83 L144.45 116.38 L145.34 111.45 ZM145.34
						 111.45 L144.45 116.38 L141.71 116.83 L145.34 111.45 ZM145.34 111.45 L141.71 116.83 L140.78 117.95 L145.34
						 111.45 ZM145.34 111.45 L140.78 117.95 L142.25 119.07 L145.34 111.45 ZM145.34 111.45 L142.25 119.07 L145.27
						 119.53 L145.34 111.45 ZM145.34 111.45 L145.27 119.53 L148.05 119.07 L145.34 111.45 ZM167.28 126.63 L168.06
						 125.46 L167.28 126.63 ZM164.64 119.01 L168.06 125.46 L166.45 124.3 L163.41 123.83 L164.64 119.01 ZM164.64
						 119.01 L163.41 123.83 L160.71 124.3 L164.64 119.01 ZM164.64 119.01 L160.71 124.3 L164.64 119.01 ZM164.64
						 119.01 L159.89 125.46 L161.47 126.63 L164.64 119.01 ZM164.64 119.01 L161.47 126.63 L164.53 127.12 L164.64
						 119.01 ZM164.64 119.01 L164.53 127.12 L167.28 126.63 L164.64 119.01 ZM81.21 105.18 L82.48 104.14 L81.21
						 105.18 ZM78.26 97.51 L82.48 104.14 L81.36 103.11 L78.26 97.51 ZM78.26 97.51 L81.36 103.11 L78.54 102.68
						 L78.26 97.51 ZM78.26 97.51 L78.54 102.68 L75.63 103.11 L78.26 97.51 ZM78.26 97.51 L75.63 103.11 L74.33 104.14
						 L78.26 97.51 ZM78.26 97.51 L74.34 104.14 L75.43 105.18 L78.26 97.51 ZM78.26 97.51 L75.43 105.18 L78.29 105.62
						 L78.26 97.51 ZM78.26 97.51 L78.28 105.62 L81.21 105.18 L78.26 97.51 ZM64.28 111.93 L65.65 110.85 L64.28
						 111.93 ZM61.26 104.3 L65.65 110.85 L64.62 109.79 L61.26 104.3 ZM61.26 104.3 L64.62 109.79 L61.83 109.35
						 L61.26 104.3 ZM61.26 104.3 L61.83 109.35 L58.89 109.79 L61.26 104.3 ZM61.26 104.3 L58.89 109.79 L57.5 110.85
						 L61.26 104.3 ZM61.26 104.3 L57.5 110.85 L58.49 111.94 L61.26 104.3 ZM61.26 104.3 L58.49 111.94 L61.31 112.39
						 L61.26 104.3 ZM61.26 104.3 L61.31 112.39 L64.27 111.94 L61.26 104.3 ZM46.26 119.07 L47.72 117.95 L46.26
						 119.07 ZM43.18 111.45 L47.73 117.95 L46.81 116.83 L43.18 111.45 ZM43.18 111.45 L46.81 116.83 L44.07 116.38
						 L43.18 111.45 ZM43.18 111.45 L44.07 116.38 L41.08 116.83 L43.18 111.45 ZM43.18 111.45 L41.08 116.83 L39.58
						 117.95 L43.18 111.45 ZM43.18 111.45 L39.59 117.95 L40.48 119.07 L43.18 111.45 ZM43.18 111.45 L40.47 119.07
						 L43.25 119.53 L43.18 111.45 ZM43.18 111.45 L43.25 119.53 L46.27 119.07 L43.18 111.45 ZM27.05 126.63 L28.63
						 125.46 L27.05 126.63 ZM23.88 119.01 L28.63 125.46 L27.81 124.3 L23.88 119.01 ZM23.88 119.01 L27.81 124.3
						 L25.09 123.83 L23.88 119.01 ZM23.88 119.01 L25.09 123.83 L22.06 124.3 L20.45 125.46 L23.88 119.01 ZM23.88
						 119.01 L20.46 125.46 L21.24 126.63 L23.88 119.01 L21.24 126.63 L23.98 127.12 L23.88 119.01 ZM23.88 119.01
						 L23.98 127.12 L27.05 126.63 L23.88 119.01 ZM7.35 157.31 L3.25 127.02 L7.35 157.31 ZM22.26 165.7 L18.89 136.07
						 L22.26 165.7 ZM38.27 174.69 L35.67 145.73 L38.27 174.69 ZM55.51 184.37 L53.73 156.06 L55.51 184.37 ZM74.12
						 194.82 L73.19 167.12 L74.12 194.82 ZM94.26 206.13 L94.26 179.01 L94.26 206.13 ZM181.17 157.31 L185.27 127.02
						 L181.17 157.31 ZM166.26 165.7 L169.63 136.07 L166.26 165.7 ZM150.24 174.69 L152.84 145.73 L150.24 174.69
						 ZM133.01 184.37 L134.8 156.06 L133.01 184.37 Z" class="st20"/>
			<path d="M168.63 148.66 L167.99 145.78M161.49 149.5 L168 145.78 L165.86 143.87M161.49 149.5 L165.86 143.87 L163.52 144.05M161.49
						 149.5 L163.52 144.05 L162.34 146.21M161.49 149.5 L162.34 146.21 L162.99 149.06M161.49 149.5 L162.99 149.06
						 L165.08 150.96M161.49 149.5 L165.08 150.96 L167.42 150.81M161.49 149.5 L167.42 150.81 L168.63 148.66 L161.49
						 149.5M188.29 156.45 L187.68 153.57M181.17 157.31 L187.68 153.57 L185.5 151.62M181.17 157.31 L185.5 151.62
						 L183.03 151.76M181.17 157.31 L183.03 151.76 L181.73 153.89 L182.34 156.74M181.17 157.31 L182.35 156.74 L184.5
						 158.67M181.17 157.31 L184.5 158.67 L186.96 158.56M181.17 157.31 L186.96 158.56 L188.28 156.45 L181.17 157.31M185.37
						 177.63 L184.76 174.81M178.3 178.57 L184.77 174.81 L182.6 172.84M178.3 178.57 L182.61 172.84 L180.18 172.87M178.3
						 178.57 L180.17 172.87 L178.91 174.87M178.3 178.57 L178.91 174.87 L179.52 177.65M178.3 178.57 L179.52 177.65
						 L181.65 179.61M178.3 178.57 L181.65 179.61 L184.07 179.62M178.3 178.57 L184.07 179.62 L185.38 177.64 L178.3
						 178.57M182.66 197.45 L182.05 194.69M175.6 198.46 L182.05 194.69 L179.9 192.67M175.6 198.46 L179.9 192.67
						 L177.5 192.59M175.6 198.46 L177.49 192.59 L176.24 194.48M175.6 198.46 L176.24 194.48 L176.86 197.2M175.6
						 198.46 L176.86 197.2 L178.98 199.2M175.6 198.46 L178.98 199.21 L181.38 199.32M175.6 198.46 L181.38 199.32
						 L182.66 197.45 L175.6 198.46M180.13 216.05 L179.52 213.33M173.07 217.11 L179.52 213.33 L177.37 211.27 L173.07
						 217.11 L177.37 211.27 L174.98 211.09M173.07 217.11 L174.99 211.1 L173.75 212.87M173.07 217.11 L173.75 212.87
						 L174.37 215.55M173.07 217.11 L174.37 215.55 L176.48 217.59 L178.86 217.8M173.07 217.11 L178.86 217.8 L180.13
						 216.05 L173.07 217.11M177.77 233.51 L177.15 230.84M170.69 234.64 L177.15 230.83 L175.01 228.73M170.69 234.64
						 L175.01 228.74 L172.63 228.47M170.69 234.64 L172.63 228.46 L171.41 230.15M170.69 234.64 L171.41 230.15 L172.04
						 232.79M170.69 234.64 L172.04 232.79 L174.14 234.87 L176.51 235.18M170.69 234.64 L176.51 235.18 L177.77 233.51
						 L170.69 234.64M6.52 134.65 L8.23 133.43M3.25 127.02 L8.23 133.43 L7.52 132.22M3.25 127.02 L7.52 132.22 L4.84
						 131.73M3.25 127.02 L4.84 131.72 L1.74 132.21M3.25 127.02 L1.74 132.22 L0 133.43M3.25 127.02 L0 133.43 L0.66
						 134.65M3.25 127.02 L0.67 134.65 L3.38 135.16M3.25 127.02 L3.38 135.16 L6.52 134.65 L3.25 127.02M22.08 143.6
						 L23.69 142.33M18.89 136.07 L23.68 142.33 L22.89 141.09M18.89 136.07 L22.89 141.09 L20.2 140.58M18.89 136.07
						 L20.2 140.58 L17.16 141.09 L15.53 142.33M18.89 136.07 L15.53 142.33 L16.28 143.6M18.89 136.07 L16.28 143.6
						 L19 144.13M18.89 136.07 L19 144.13 L22.07 143.6 L18.89 136.07M38.77 153.15 L40.26 151.85M35.68 145.73 L40.27
						 151.85 L39.4 150.55M35.68 145.73 L39.39 150.55 L36.69 150.03M35.68 145.73 L36.69 150.03 L33.71 150.55M35.68
						 145.73 L33.72 150.55 L32.2 151.85M35.68 145.73 L32.2 151.85 L33.04 153.15M35.68 145.73 L33.03 153.15 L35.76
						 153.7M35.68 145.73 L35.76 153.7 L38.78 153.15 L35.68 145.73M56.73 163.39 L58.11 162.04 L53.73 156.06M58.11
						 162.04 L57.15 160.7M53.73 156.06 L57.15 160.7 L54.43 160.16M53.73 156.06 L54.42 160.15 L51.51 160.69M53.73
						 156.06 L51.51 160.7 L50.09 162.04M53.73 156.06 L50.1 162.04 L51.03 163.39M53.73 156.06 L51.02 163.39 L53.78
						 163.96M53.73 156.06 L53.78 163.96 L56.73 163.39 L53.73 156.06M76.11 174.38 L77.38 172.97M73.19 167.12 L77.38
						 172.98 L76.31 171.58M73.19 167.12 L76.31 171.58 L73.55 171 L70.7 171.58M73.19 167.12 L70.7 171.58 L69.39
						 172.98M73.19 167.12 L69.39 172.98 L70.43 174.38M73.19 167.12 L70.43 174.38 L73.22 174.98M73.19 167.12 L73.22
						 174.97 L76.11 174.38 L73.19 167.12M97.09 186.21 L98.24 184.74M94.26 179.01 L98.24 184.74 L97.06 183.29M94.26
						 179.01 L97.06 183.28 L94.26 182.68 L91.46 183.28M94.26 179.01 L91.46 183.28 L90.27 184.73M94.26 179.01 L90.27
						 184.74 L91.42 186.21M94.26 179.01 L91.43 186.21 L94.26 186.83 L97.09 186.21 L94.26 179.01M187.85 134.65
						 L188.52 133.43M185.27 127.02 L188.52 133.43 L186.78 132.22M185.27 127.02 L186.78 132.22 L183.68 131.73M185.27
						 127.02 L183.68 131.72 L181 132.21M185.27 127.02 L181 132.22M185.27 127.02 L180.29 133.43 L182 134.65M185.27
						 127.02 L182 134.65 L185.14 135.16M185.27 127.02 L185.14 135.16 L187.84 134.65 L185.27 127.02M172.24 143.6
						 L172.99 142.33M169.62 136.07 L172.98 142.33 L171.35 141.09 L168.31 140.58M169.62 136.07 L168.31 140.58 L165.62
						 141.09M169.62 136.07 L165.62 141.09 L164.83 142.33M169.62 136.07 L164.83 142.33 L166.44 143.6M169.62 136.07
						 L166.44 143.6 L169.51 144.13M169.62 136.07 L169.51 144.13 L172.23 143.6 L169.62 136.07M155.49 153.15 L156.33
						 151.85M152.84 145.73 L156.33 151.85 L154.81 150.55M152.84 145.73 L154.81 150.55 L151.83 150.03M152.84 145.73
						 L151.84 150.03 L149.13 150.55M152.84 145.73 L149.13 150.55 L148.26 151.85M152.84 145.73 L148.25 151.85 L149.75
						 153.15M152.84 145.73 L149.75 153.15 L152.76 153.7M152.84 145.73 L152.76 153.7 L155.5 153.15 L152.84 145.73M137.49
						 163.39 L138.43 162.04M134.79 156.06 L138.42 162.04 L137 160.7M134.79 156.06 L137.01 160.7 L134.1 160.16M134.79
						 156.06 L134.1 160.15 L131.37 160.69M134.79 156.06 L130.39 162.04 L131.78 163.39M134.79 156.06 L131.78 163.39
						 L134.73 163.96M134.79 156.06 L134.73 163.96 L137.49 163.39 L134.79 156.06M118.08 174.38 L119.12 172.97M115.32
						 167.12 L119.12 172.98 L117.82 171.58M115.32 167.12 L117.82 171.58 L114.96 171 L112.2 171.58M115.32 167.12
						 L112.2 171.58M115.32 167.12 L111.14 172.98 L112.41 174.38M115.32 167.12 L112.4 174.38 L115.29 174.98M115.32
						 167.12 L115.3 174.97 L118.08 174.38 L115.32 167.12M97.16 98.79 L98.34 97.77M94.26 91.08 L98.34 97.77 L97.13
						 96.78M94.26 91.08 L97.13 96.78 L94.26 96.37 L91.39 96.78M94.26 91.08 L91.39 96.78 L90.18 97.77M94.26 91.08
						 L90.18 97.77 L91.36 98.79M94.26 91.08 L91.36 98.79 L94.26 99.21 L97.17 98.79 L94.26 91.08M113.1 105.18 L114.18
						 104.14M110.26 97.51 L114.18 104.14 L112.88 103.11M110.26 97.51 L112.88 103.11 L109.98 102.68 L107.16 103.11M110.26
						 97.51 L107.16 103.11 L106.03 104.14M110.26 97.51 L106.03 104.14 L107.31 105.18M110.26 97.51 L107.31 105.18
						 L110.24 105.62 L110.26 97.51 L110.24 105.62 L113.1 105.18 L110.26 97.51M130.03 111.93 L131.01 110.85M127.26
						 104.3 L131.01 110.85 L129.61 109.79M127.26 104.3 L129.62 109.79 L126.68 109.35M127.26 104.3 L126.68 109.35
						 L123.89 109.79M127.26 104.3 L123.89 109.79 L122.87 110.85M127.26 104.3 L122.87 110.85 L124.23 111.94M127.26
						 104.3 L124.23 111.94 L127.2 112.39M127.26 104.3 L127.21 112.39 L130.03 111.94 L127.26 104.3M148.05 119.07
						 L148.93 117.95M145.34 111.45 L148.93 117.95 L147.43 116.83M145.34 111.45 L147.44 116.83 L144.45 116.38M145.34
						 111.45 L144.45 116.38 L141.71 116.83M145.34 111.45 L141.71 116.83 L140.78 117.95M145.34 111.45 L140.78 117.95
						 L142.25 119.07M145.34 111.45 L142.25 119.07 L145.27 119.53M145.34 111.45 L145.27 119.53 L148.05 119.07 L145.34
						 111.45M167.28 126.63 L168.06 125.46M164.64 119.01 L168.06 125.46 L166.45 124.3 L163.41 123.83M164.64 119.01
						 L163.41 123.83 L160.71 124.3M164.64 119.01 L160.71 124.3M164.64 119.01 L159.89 125.46 L161.47 126.63M164.64
						 119.01 L161.47 126.63 L164.53 127.12M164.64 119.01 L164.53 127.12 L167.28 126.63 L164.64 119.01M81.21 105.18
						 L82.48 104.14M78.26 97.51 L82.48 104.14 L81.36 103.11M78.26 97.51 L81.36 103.11 L78.54 102.68M78.26 97.51
						 L78.54 102.68 L75.63 103.11M78.26 97.51 L75.63 103.11 L74.33 104.14M78.26 97.51 L74.34 104.14 L75.43 105.18M78.26
						 97.51 L75.43 105.18 L78.29 105.62M78.26 97.51 L78.28 105.62 L81.21 105.18 L78.26 97.51M64.28 111.93 L65.65
						 110.85M61.26 104.3 L65.65 110.85 L64.62 109.79M61.26 104.3 L64.62 109.79 L61.83 109.35M61.26 104.3 L61.83
						 109.35 L58.89 109.79M61.26 104.3 L58.89 109.79 L57.5 110.85M61.26 104.3 L57.5 110.85 L58.49 111.94M61.26
						 104.3 L58.49 111.94 L61.31 112.39M61.26 104.3 L61.31 112.39 L64.27 111.94 L61.26 104.3M46.26 119.07 L47.72
						 117.95M43.18 111.45 L47.73 117.95 L46.81 116.83M43.18 111.45 L46.81 116.83 L44.07 116.38M43.18 111.45 L44.07
						 116.38 L41.08 116.83M43.18 111.45 L41.08 116.83 L39.58 117.95M43.18 111.45 L39.59 117.95 L40.48 119.07M43.18
						 111.45 L40.47 119.07 L43.25 119.53M43.18 111.45 L43.25 119.53 L46.27 119.07 L43.18 111.45M27.05 126.63 L28.63
						 125.46M23.88 119.01 L28.63 125.46 L27.81 124.3M23.88 119.01 L27.81 124.3 L25.09 123.83M23.88 119.01 L25.09
						 123.83 L22.06 124.3 L20.45 125.46M23.88 119.01 L20.46 125.46 L21.24 126.63 L23.88 119.01 L21.24 126.63 L23.98
						 127.12M23.88 119.01 L23.98 127.12 L27.05 126.63 L23.88 119.01M7.35 157.31 L3.25 127.02M22.26 165.7 L18.89
						 136.07M38.27 174.69 L35.67 145.73M55.51 184.37 L53.73 156.06M74.12 194.82 L73.19 167.12M94.26 206.13 L94.26
						 179.01M181.17 157.31 L185.27 127.02M166.26 165.7 L169.63 136.07M150.24 174.69 L152.84 145.73M133.01 184.37
						 L134.8 156.06" class="st21"/>
		</g>
		<g id="shape6055-159" v:mID="6055" v:groupContext="shape" transform="translate(356.364,-122.149)">
			<title>工作表.6055</title>
			<path d="M90.52 235.18 L91.45 207.48 L90.52 235.18 ZM70.39 163.14 L70.39 131.44 L70.39 163.14 ZM85.67 169.22 L86.39 137.89
						 L85.67 169.22 ZM101.9 175.68 L103.38 144.66 L101.9 175.68 ZM119.19 182.53 L121.47 151.81 L119.19 182.53
						 ZM137.61 189.86 L140.77 159.38 L137.61 189.86 ZM55.1 169.22 L54.38 137.88 L55.1 169.22 ZM38.86 175.68 L37.39
						 144.66 L38.86 175.68 ZM21.58 182.53 L19.29 151.81 L21.58 182.53 ZM3.16 189.86 L0 159.38 L3.16 189.86 Z"
					class="st20"/>
			<path d="M90.52 235.18 L91.45 207.48M70.39 163.14 L70.39 131.44M85.67 169.22 L86.39 137.89M101.9 175.68 L103.38 144.66M119.19
						 182.53 L121.47 151.81M137.61 189.86 L140.77 159.38M55.1 169.22 L54.38 137.88M38.86 175.68 L37.39 144.66M21.58
						 182.53 L19.29 151.81M3.16 189.86 L0 159.38" class="st21"/>
		</g>
	</g>
</svg>
